<?xml version="1.0" encoding="UTF-8" standalone="no"?>
<!DOCTYPE svg PUBLIC "-//W3C//DTD SVG 1.1//EN" "http://www.w3.org/Graphics/SVG/1.1/DTD/svg11.dtd">
<svg width="100%" height="100%" viewBox="0 0 387 647" version="1.1" xmlns="http://www.w3.org/2000/svg" xmlns:xlink="http://www.w3.org/1999/xlink" xml:space="preserve" xmlns:serif="http://www.serif.com/" style="fill-rule:evenodd;clip-rule:evenodd;stroke-linejoin:round;stroke-miterlimit:2;">
    <g>
        <path d="M72.13,505.61C70.51,505.52 68.83,505.46 67.1,505.41C65.37,505.37 63.1,505.35 60.3,505.35C59.91,522.78 59.61,539.04 59.41,554.13C59.21,569.22 59.11,583.09 59.11,595.75C57.84,596.23 56.75,596.57 55.83,596.77C54.91,596.97 54.08,597.07 53.33,597.07C52.5,597.07 51.63,596.94 50.73,596.68C49.83,596.42 48.81,595.98 47.68,595.37C48.07,583.5 48.37,571.61 48.57,559.7C48.77,547.79 48.87,535.76 48.87,523.63L48.87,521.2C48.78,515.68 48.74,510.41 48.74,505.37C47.56,505.41 45.7,505.46 43.16,505.5C40.62,505.54 38.67,505.59 37.31,505.63C36.92,504.84 36.62,504.01 36.42,503.13C36.22,502.26 36.12,501.38 36.12,500.5C36.12,500.37 36.14,500.14 36.19,499.81C36.23,499.48 36.26,499.25 36.26,499.12C37,497.33 38.47,496.06 40.66,495.31C42.85,494.57 46.31,494.19 51.04,494.19C54.41,494.19 58.01,494.46 61.85,495.01C65.68,495.56 69.79,496.4 74.17,497.54L74.17,499.12C74.17,500.57 74.01,501.8 73.68,502.83C73.35,503.85 72.83,504.78 72.13,505.61Z" style="fill:rgb(160,160,160);fill-rule:nonzero;"/>
        <path d="M72.59,595.09C72.81,589.09 72.97,583.87 73.08,579.42C73.19,574.97 73.24,570.96 73.24,567.36C73.24,559.43 73.1,551.9 72.81,544.76C72.52,537.62 72.08,530.75 71.46,524.13C72.51,522.99 73.68,522.08 74.97,521.4C76.26,520.72 77.78,520.25 79.54,519.99C80.94,520.95 81.95,522.35 82.56,524.19C83.17,526.03 83.57,529.38 83.74,534.24C86.72,531.31 89.25,528.91 91.33,527.05C93.41,525.19 95.13,523.78 96.49,522.81C97.98,523.38 99.15,524.27 100,525.47C100.85,526.67 101.57,528.52 102.14,531.02C98.99,532.9 95.94,535.1 93.01,537.62C90.08,540.14 87.21,543.04 84.4,546.32C84.27,550.48 84.17,554.69 84.1,558.93C84.03,563.18 84,567.49 84,571.87C84,574.63 84.04,577.96 84.13,581.86C84.22,585.76 84.35,590.01 84.52,594.6L82.48,597.16C82.09,597.16 81.49,597.14 80.71,597.1C79.92,597.06 79.35,597.03 79,597.03C77.42,597.03 76.13,596.88 75.12,596.57C74.15,596.3 73.29,595.79 72.59,595.09Z" style="fill:rgb(160,160,160);fill-rule:nonzero;"/>
        <path d="M109.71,534.91L109.32,534.91C107.92,534.91 106.69,534.34 105.64,533.2C104.59,532.06 104.06,530.83 104.06,529.52C104.06,529.35 104.13,529.13 104.26,528.86C104.39,528.59 104.63,528.25 104.98,527.81C107.48,526.32 110.06,524.88 112.73,523.47C115.4,522.07 118.12,520.73 120.88,519.46C126.35,520.51 130.14,523.48 132.25,528.36C134.35,533.24 135.4,544.84 135.4,563.15C135.4,569.19 135.25,579.25 134.94,593.3C134.9,594.75 134.87,595.82 134.87,596.52C133.95,596.91 133.14,597.2 132.44,597.37C131.74,597.54 131.06,597.63 130.4,597.63C129.7,597.63 128.97,597.52 128.2,597.3C127.43,597.08 126.7,596.77 126,596.38L125.47,593.29C123.63,594.17 121.78,594.86 119.92,595.36C118.06,595.86 116.45,596.12 115.09,596.12C111.5,596.12 108.83,594.34 107.08,590.77C105.33,587.2 104.45,581.67 104.45,574.18C104.45,565.47 105.84,559.2 108.62,555.39C111.4,551.58 115.95,549.67 122.25,549.67L124.35,549.67C124.31,544.24 123.67,539.77 122.44,536.27C121.21,532.77 119.75,531.01 118.04,531.01C117.65,531.01 117.13,531.12 116.5,531.34C115.87,531.56 115.22,531.84 114.56,532.19L109.71,534.91ZM124.89,584.32C124.89,580.29 124.86,576.22 124.79,572.1C124.72,567.98 124.63,563.8 124.49,559.55C124.27,559.51 124.03,559.47 123.77,559.45C123.51,559.43 123.13,559.42 122.65,559.42C120.06,559.42 118.12,560.45 116.8,562.51C115.49,564.57 114.83,567.61 114.83,571.64C114.83,577.07 115.31,580.63 116.28,582.32C117.24,584.01 119,584.85 121.54,584.85C121.98,584.85 122.74,584.74 123.84,584.52C124.27,584.43 124.63,584.36 124.89,584.32Z" style="fill:rgb(160,160,160);fill-rule:nonzero;"/>
        <path d="M146.04,500.49C147.09,500.23 148.13,500.03 149.16,499.9C150.19,499.77 151.16,499.7 152.08,499.7C152.56,499.7 153.24,499.79 154.12,499.96C155,500.14 155.98,500.4 157.08,500.75C157.47,501.98 157.77,503.02 157.97,503.87C158.17,504.72 158.27,505.44 158.27,506.01C158.27,506.58 158.17,507.24 157.97,507.98C157.77,508.73 157.43,509.71 156.95,510.94C155.77,511.29 154.69,511.54 153.73,511.69C152.77,511.84 151.96,511.92 151.3,511.92C150.73,511.92 150.05,511.84 149.26,511.69C148.47,511.54 147.44,511.31 146.17,511C145.82,509.73 145.56,508.63 145.38,507.72C145.2,506.8 145.12,506.01 145.12,505.36C145.12,504.92 145.17,504.4 145.28,503.78C145.4,503.16 145.65,502.07 146.04,500.49ZM146.96,596.28C146.65,588.48 146.42,581.41 146.27,575.06C146.12,568.71 146.04,562.69 146.04,556.99C146.04,553.27 146.11,548.8 146.24,543.59C146.37,538.38 146.61,530.95 146.96,521.32C147.79,521.06 148.61,520.86 149.42,520.73C150.23,520.6 151.03,520.53 151.82,520.53C152.65,520.53 153.44,520.57 154.19,520.66C154.93,520.75 155.7,520.88 156.49,521.05C156.75,530.47 156.94,539.4 157.05,547.85C157.16,556.3 157.21,564.52 157.21,572.49C157.21,575.03 157.19,578.83 157.14,583.89C157.1,588.95 157.05,592.73 157.01,595.22C156.05,595.88 155.06,596.37 154.05,596.7C153.04,597.03 152.03,597.19 151.03,597.19C150.5,597.19 149.95,597.13 149.35,596.99C148.77,596.87 147.97,596.63 146.96,596.28Z" style="fill:rgb(160,160,160);fill-rule:nonzero;"/>
        <path d="M166.34,526.05C167.52,524.69 168.87,523.64 170.38,522.9C171.89,522.16 173.65,521.7 175.67,521.52L176.85,525.26C178.65,524.52 180.49,523.72 182.37,522.86C184.25,522.01 186.18,521.1 188.15,520.13C188.54,520.04 188.95,519.98 189.37,519.93C189.79,519.89 190.28,519.86 190.85,519.86C194.13,519.86 196.52,521.25 198.01,524.03C199.5,526.81 200.24,531.33 200.24,537.6L200.24,552.97C200.24,562.34 200.33,570.39 200.5,577.11C200.67,583.83 200.96,589.67 201.35,594.62C200.25,595.37 199.19,595.91 198.16,596.26C197.13,596.61 196.02,596.79 194.84,596.79C193.83,596.79 192.81,596.65 191.78,596.36C190.75,596.08 189.67,595.65 188.53,595.08C188.79,588.73 189,582.53 189.15,576.49C189.3,570.45 189.38,564.53 189.38,558.75L189.38,555.92C189.38,544.8 189.02,537.97 188.3,535.46C187.58,532.94 186.19,531.68 184.13,531.68C182.86,531.68 181.67,532.02 180.55,532.7C179.43,533.38 178.55,534.29 177.89,535.43C178.2,540.73 178.42,546.04 178.55,551.36C178.68,556.68 178.75,562.1 178.75,567.62C178.75,571.04 178.73,575.73 178.68,581.71C178.64,587.69 178.61,591.95 178.61,594.49C177.95,595.32 177.19,595.91 176.31,596.26C175.43,596.61 174.27,596.79 172.83,596.79C171.69,596.79 170.62,596.66 169.61,596.4C168.6,596.14 167.55,595.7 166.46,595.09C166.94,587.29 167.29,579.65 167.51,572.16C167.73,564.67 167.84,557.29 167.84,550.02C167.84,544.68 167.72,540.18 167.48,536.52C167.25,532.87 166.87,529.38 166.34,526.05Z" style="fill:rgb(160,160,160);fill-rule:nonzero;"/>
        <path d="M222.78,493.92L224.23,495.1C223.57,505.09 223.09,514.74 222.78,524.07C222.47,533.4 222.32,542.4 222.32,551.07C222.32,558.25 222.46,564.89 222.75,570.98C223.03,577.07 223.48,603.6 224.1,609.17C224.54,609.13 225.19,609.06 226.07,608.97C233.38,608.31 237.28,607.46 237.76,606.41L238.22,606.34C238.83,606.34 239.48,606.47 240.16,606.73C240.84,606.99 241.66,607.45 242.62,608.11C243.28,608.81 243.76,609.57 244.07,610.38C244.38,611.19 244.53,612.1 244.53,613.11C244.53,613.29 244.51,613.53 244.46,613.83C244.42,614.14 244.39,614.38 244.39,614.55C242.29,615.82 239.74,616.83 236.74,617.57C233.74,618.31 229.92,618.88 225.28,619.28C222,618.58 219.41,617.76 217.53,616.82C215.65,615.88 214.07,614.64 212.8,613.11C212.27,604.48 211.89,575.44 211.65,567.4C211.41,559.36 211.29,551.45 211.29,543.65C211.29,535.33 211.46,527.17 211.82,519.18C212.17,511.19 212.72,503.29 213.46,495.5C214.16,494.8 214.92,494.28 215.73,493.96C216.54,493.63 217.54,493.47 218.72,493.47C219.38,493.47 220.03,493.5 220.69,493.57C221.33,493.63 222.03,493.75 222.78,493.92Z" style="fill:rgb(160,160,160);fill-rule:nonzero;"/>
        <path d="M238.43,534.91L238.04,534.91C236.64,534.91 235.41,534.34 234.36,533.2C233.31,532.06 232.78,530.83 232.78,529.52C232.78,529.35 232.85,529.13 232.98,528.86C233.11,528.6 233.35,528.25 233.7,527.81C236.2,526.32 238.78,524.88 241.45,523.47C244.12,522.07 246.84,520.73 249.6,519.46C255.07,520.51 258.86,523.48 260.97,528.36C263.07,533.24 264.12,544.84 264.12,563.15C264.12,569.19 263.97,579.25 263.66,593.3C263.62,594.75 263.6,595.82 263.6,596.52C262.68,596.91 261.87,597.2 261.17,597.37C260.47,597.54 259.79,597.63 259.13,597.63C258.43,597.63 257.7,597.52 256.93,597.3C256.16,597.08 255.43,596.77 254.73,596.38L254.2,593.29C252.36,594.17 250.51,594.86 248.65,595.36C246.79,595.86 245.18,596.12 243.82,596.12C240.23,596.12 237.56,594.34 235.81,590.77C234.06,587.2 233.18,581.67 233.18,574.18C233.18,565.47 234.57,559.2 237.35,555.39C240.13,551.58 244.68,549.67 250.98,549.67L253.08,549.67C253.04,544.24 252.4,539.77 251.17,536.27C249.94,532.77 248.48,531.01 246.77,531.01C246.38,531.01 245.86,531.12 245.23,531.34C244.59,531.56 243.95,531.84 243.29,532.19L238.43,534.91ZM253.61,584.32C253.61,580.29 253.58,576.22 253.51,572.1C253.44,567.98 253.35,563.8 253.21,559.55C252.99,559.51 252.75,559.47 252.49,559.45C252.23,559.43 251.85,559.42 251.37,559.42C248.79,559.42 246.84,560.45 245.52,562.51C244.21,564.57 243.55,567.61 243.55,571.64C243.55,577.07 244.03,580.63 245,582.32C245.96,584.01 247.71,584.85 250.26,584.85C250.7,584.85 251.46,584.74 252.56,584.52C252.99,584.43 253.34,584.36 253.61,584.32Z" style="fill:rgb(160,160,160);fill-rule:nonzero;"/>
        <path d="M285.01,596.41C283.21,596.41 281.68,596.14 280.41,595.59C279.14,595.04 278.02,594.2 277.06,593.06C275.57,590 274.48,586.36 273.78,582.15C273.08,577.95 272.73,572.65 272.73,566.25C272.73,557.75 273.35,549.99 274.6,542.96C275.85,535.93 277.61,530.2 279.89,525.78C280.59,524.25 281.89,522.99 283.8,522C285.71,521.01 287.71,520.52 289.81,520.52C290.69,520.52 291.64,520.61 292.67,520.78C293.7,520.96 294.76,521.22 295.86,521.57L295.6,498.18C296.78,496.95 298,496.07 299.25,495.52C300.5,494.97 301.93,494.7 303.55,494.7C303.81,494.7 304.18,494.73 304.67,494.8C305.15,494.87 306.12,495.05 307.56,495.36C307.17,507.62 306.87,520.88 306.67,535.14C306.47,549.4 306.37,564.67 306.37,580.96L306.37,595.09L302.36,597.32L301.37,597.32C300.27,597.32 299.25,597.21 298.28,596.99C297.32,596.77 296.37,596.42 295.45,595.94C295.32,595.41 295.2,594.81 295.09,594.13C294.98,593.45 294.88,592.48 294.8,591.21C293.53,592.39 292.1,593.41 290.5,594.27C288.9,595.13 287.07,595.84 285.01,596.41ZM284.62,583.53C286.02,583.92 287.26,584.22 288.33,584.42C289.4,584.62 290.31,584.72 291.06,584.72C291.85,584.72 293.05,584.41 294.67,583.8L294.8,583.73C295.11,578.17 295.35,571.13 295.52,562.61C295.69,554.09 295.8,543.02 295.85,529.4C294.89,529.18 294.05,529.02 293.35,528.91C292.65,528.8 292.06,528.75 291.58,528.75C288.82,528.75 286.81,531.66 285.54,537.49C284.27,543.32 283.64,552.6 283.64,565.35C283.64,568.63 283.72,571.77 283.87,574.74C284.01,577.71 284.27,580.64 284.62,583.53Z" style="fill:rgb(160,160,160);fill-rule:nonzero;"/>
        <path d="M323.71,592.93C322.31,580.97 320.63,569.32 318.68,557.98C316.73,546.64 314.51,535.6 312.01,524.87C313.1,523.99 314.19,523.37 315.26,523C316.33,522.63 317.81,522.44 319.69,522.44C320.52,522.44 321.26,522.45 321.89,522.47C322.52,522.49 323.17,522.53 323.83,522.57C325.06,529.49 326.22,536.96 327.31,544.97C328.4,552.99 329.46,561.61 330.46,570.85C332.04,563.1 333.44,555.03 334.66,546.64C335.89,538.25 336.94,529.5 337.81,520.39C339.04,520.13 339.9,519.95 340.41,519.86C340.91,519.77 341.32,519.73 341.63,519.73C342.59,519.73 343.65,519.89 344.82,520.22C345.98,520.55 347.33,521.04 348.86,521.7C346.23,540.71 342.92,558.8 338.94,575.97C334.95,593.14 330.33,609.28 325.08,624.39L323.7,624.39C321.82,624.39 320.08,624.01 318.48,623.24C316.88,622.47 315.27,621.24 313.65,619.53C315.49,616.33 317.2,612.65 318.77,608.49C320.35,604.33 322,599.14 323.71,592.93Z" style="fill:rgb(160,160,160);fill-rule:nonzero;"/>
    </g>
    <g id="XMLID_00000040555926849115613210000013548999285001829278_">
        <g>
            <path d="M223.5,416.63C224.56,418.57 224.01,421.71 222.35,423.18C220.64,424.68 219.07,424.35 218.27,422.25C218,421.57 217.94,420.8 217.88,420.48C217.87,418.19 218.43,416.61 220.12,415.64C221.49,414.87 222.74,415.26 223.5,416.63Z" style="fill:rgb(160,160,160);fill-rule:nonzero;"/>
            <path d="M226.22,413.53C226,413.62 225.79,413.71 225.57,413.8C224.13,410.96 221.94,410 219.02,410.98C218.38,411.2 217.74,411.54 217.21,411.97C213.6,414.96 212.75,421.63 215.46,425.46C217.5,428.34 220.49,428.96 223.52,427.13C223.91,426.89 224.29,426.63 224.77,426.32C225.14,427.02 225.49,427.66 225.88,428.38C223.87,430.69 221.73,432.85 218.43,432.51C214.85,432.14 212.37,430.07 211,426.72C209.05,421.94 209.1,417.15 211.45,412.59C214.75,406.19 221.53,406.45 225.84,411.25C226.28,411.73 226.11,412.76 226.22,413.53Z" style="fill:rgb(160,160,160);fill-rule:nonzero;"/>
            <path d="M174.25,297.25C174.73,308.29 172.3,318.66 166.96,328.33C166.18,329.76 164.99,330.96 163.99,332.27C168.51,319.16 172.45,306.08 170.42,291.69C172.59,293.23 174.15,294.77 174.25,297.25Z" style="fill:rgb(160,160,160);fill-rule:nonzero;"/>
            <path d="M143.98,271.75C144.32,273.03 144.87,274.25 145.46,275.85C138.37,274.28 131.66,272.79 124.94,271.31C122.96,270.87 120.97,270.53 119,270.05C118.58,269.95 117.99,269.54 117.91,269.18C117.5,267.32 117.17,265.43 116.92,263.54C116.77,262.41 117.14,261.79 118.52,262.17C125.61,264.13 132.69,266.11 139.83,267.9C142.07,268.46 143.4,269.55 143.98,271.75Z" style="fill:rgb(160,160,160);fill-rule:nonzero;"/>
            <path d="M324.25,296.32C324.29,303.57 324.28,310.82 324.28,318.34C322,317.83 319.89,317.35 317.74,316.87L317.74,294C319.77,294.44 321.69,294.82 323.59,295.32C323.89,295.39 324.25,295.97 324.25,296.32Z" style="fill:rgb(160,160,160);fill-rule:nonzero;"/>
            <path d="M339.31,285.36C339.61,285.76 339.84,286.21 340.18,286.77C322.68,282.1 305.36,277.49 288.08,272.88C287.88,270.52 287.71,268.4 287.52,266.15C291.74,267.34 295.89,268.56 300.06,269.69C309.56,272.28 319.05,274.96 328.61,277.33C333.44,278.52 336.56,281.6 339.31,285.36Z" style="fill:rgb(160,160,160);fill-rule:nonzero;"/>
            <path d="M308.01,293.09C308.11,300.12 308.12,307.14 308.14,314.16C308.14,314.32 308.03,314.48 307.88,314.89C305.73,314.33 303.59,313.76 301.36,313.17L301.36,290.26C303.33,290.79 305.19,291.22 306.99,291.82C307.44,291.97 308.01,292.65 308.01,293.09Z" style="fill:rgb(160,160,160);fill-rule:nonzero;"/>
            <path d="M290.05,421.79C290.65,422.94 290.98,424.23 291.43,425.46C291.18,427.76 289.74,429.24 287.7,429.21C286.4,429.19 285.66,428.55 285.25,427.39C284.48,425.23 285.2,422.71 287,421.29C288.21,420.35 289.34,420.45 290.05,421.79Z" style="fill:rgb(163,163,163);fill-rule:nonzero;"/>
            <path d="M293.72,428.49C294.77,425.27 294.63,422.07 292.61,419.18C290.83,416.62 287.92,416.15 285.28,417.82C284.53,418.3 283.63,418.54 282.79,418.88C282.64,418.72 282.5,418.56 282.36,418.4C282.56,417.8 282.68,417.14 283,416.61C284.22,414.61 286.17,413.48 288.34,413.04C289.28,412.84 290.69,413.43 291.45,414.14C298.31,420.51 297.14,431.03 291.47,435.8C288.19,438.55 283.31,437.31 282,433.24C281.73,432.41 282.27,431.33 282.48,430.06C282.94,430.4 283,430.43 283.04,430.47C284.56,432.42 286.38,434.11 289.01,433.62C291.68,433.12 292.95,430.87 293.72,428.49Z" style="fill:rgb(163,163,163);fill-rule:nonzero;"/>
            <path d="M267.5,387.79C263.46,392.83 260.84,398.57 258.92,404.67C258.47,406.08 257.34,406.5 255.68,406.02C254.2,405.59 254.18,404.52 254.67,403.41C257.46,396.99 261.37,391.47 267.5,387.79Z" style="fill:rgb(160,160,160);fill-rule:nonzero;"/>
            <path d="M310.41,411.57C312.56,421.94 312.32,432.23 308.58,442.24C306.04,449.05 302,454.72 295.59,458.49C288.62,462.59 279.81,461.54 274.14,455.78C267.47,449 263.37,440.91 262.02,431.29C263.41,431.29 264.8,431.12 266.1,431.38C266.64,431.48 267.23,432.45 267.39,433.12C268.51,437.79 270.3,442.16 273.19,446.02C276.12,449.93 279.88,452.71 284.85,453.18C291.48,453.82 296.3,450.74 300.31,445.61C304.57,440.17 306.32,434.07 306.47,427.34C306.63,420.52 306.46,413.7 304,407.25C302.56,403.48 300.79,399.8 297.86,396.84C291.09,390.01 282.69,389.66 275.55,396.14C270.08,401.1 267.14,407.41 266.38,414.74C266.33,415.19 266.23,415.62 266.12,416.24C264.47,415.85 263.07,415.52 261.4,415.13C261.91,412.76 262.28,410.36 262.96,408.07C265.08,400.97 268.43,394.62 273.68,389.22C280.24,382.47 291.47,383.34 297.05,388C304.54,394.25 308.49,402.3 310.41,411.57Z" style="fill:rgb(160,160,160);fill-rule:nonzero;"/>
            <path d="M281.01,423.22C281.24,427.55 281.24,427.65 276.96,427.43C266.99,426.93 257.03,426.3 247.06,425.77C240.69,425.44 234.31,425.2 227.57,424.9C227.72,422.27 227.87,419.69 228.03,416.96C245.86,417.44 263.29,420.91 280.73,422.61C280.92,423.01 281.01,423.12 281.01,423.22Z" style="fill:rgb(160,160,160);fill-rule:nonzero;"/>
            <path d="M143.42,404.17C143.52,404.33 143.63,404.5 143.73,404.66C135.83,411.56 132.33,420.55 131.27,430.71C131.08,432.55 131,434.43 130.6,436.23C130.47,436.84 129.52,437.28 128.94,437.79C128.51,437.29 127.74,436.8 127.72,436.28C127.29,425.59 129.69,415.84 137.65,408.15C139.31,406.55 141.49,405.48 143.42,404.17Z" style="fill:rgb(160,160,160);fill-rule:nonzero;"/>
            <path d="M165.69,411.87C169.99,417.94 171.62,424.87 171.53,432.6C171.53,438.05 170.79,443.69 168.12,448.95C166.29,452.58 163.65,455.41 160.27,457.62C154.74,461.24 147.85,458.8 143.88,454.52C139.8,450.11 138.04,444.57 137.02,438.79C135.48,429.98 136.58,421.52 141.03,413.67C143.42,409.46 146.63,405.99 151.65,405.07C157.9,403.92 162.31,407.1 165.69,411.87Z" style="fill:rgb(160,160,160);fill-rule:nonzero;"/>
            <path d="M195.3,380.15C195.41,380.28 195.52,380.42 195.63,380.55C193.96,382.94 192.02,385.19 190.69,387.76C188.59,391.81 186.91,396.08 185.05,400.25C184.74,400.94 184.55,401.71 184.1,402.28C183.81,402.65 183.1,402.95 182.65,402.87C182.21,402.79 181.63,402.26 181.52,401.82C181.34,401.12 181.34,400.29 181.54,399.6C183.06,394.35 185.5,389.52 189.04,385.4C190.79,383.36 193.19,381.88 195.3,380.15Z" style="fill:rgb(160,160,160);fill-rule:nonzero;"/>
            <path d="M243.84,430.59C243.91,430.84 244.02,431.01 243.99,431.14C241.69,440.62 236.92,448.63 229.56,455.02C226.59,457.6 222.96,458.86 219.04,459.13C215.63,459.37 212.19,459.81 208.86,458.59C204.58,457.02 201.23,454.15 198.49,450.63C192.08,442.4 188.58,433.06 187.87,422.62C187.29,414.22 187.97,406.02 191.02,398.13C193.27,392.3 196.29,386.88 200.89,382.51C204.83,378.76 209.72,377.06 215.02,376.41C215.49,376.35 216.05,376.56 216.47,376.81C219.51,378.64 222.92,379.21 226.29,380.1C228.46,380.67 230.63,382.14 232.24,383.76C237.9,389.43 241.49,396.34 243.34,404.12C244.07,407.21 244.53,410.37 245.18,413.81C243.29,413.64 241.71,413.49 240.19,413.36C239.72,411.06 239.41,408.82 238.81,406.67C236.46,398.26 232.46,391.01 224.54,386.49C215.88,381.53 206.69,384.53 200.94,391.35C195.67,397.59 193.2,404.95 192.71,413.07C192.16,422.07 193.62,430.66 197.69,438.7C200.2,443.66 203.9,447.68 208.83,450.38C215.24,453.9 223.35,452.86 229.04,448.26C234.22,444.07 236.65,438.46 238.12,432.24C238.21,431.85 238.3,431.45 238.41,431.06C238.45,430.9 238.54,430.75 238.62,430.59L243.84,430.59Z" style="fill:rgb(160,160,160);fill-rule:nonzero;"/>
            <path d="M340.59,379.74L340.59,384.08C334.23,383.24 327.97,382.42 321.72,381.58C314.3,380.59 306.89,379.61 299.49,378.58C291.97,377.53 284.46,376.41 276.95,375.34C269.03,374.2 261.12,373.06 253.19,371.97C251.64,371.76 250.37,371.6 250.4,369.51C250.41,368.55 249.82,367.59 249.37,366.18C280.22,370.77 310.37,375.25 340.59,379.74Z" style="fill:rgb(160,160,160);fill-rule:nonzero;"/>
            <path d="M196.4,355.83C197.65,355.93 198.09,356.74 198,358.03C197.88,359.63 197.97,361.25 197.97,363.09C195.09,362.76 192.23,362.47 189.39,362.09C182.85,361.21 176.31,360.24 169.76,359.4C168.37,359.22 167.63,358.67 167.14,357.36C166.44,355.53 165.51,353.79 164.56,351.74C170.57,352.61 176.3,353.43 182.04,354.27C185.48,354.78 188.9,355.38 192.35,355.82C193.68,355.99 195.06,355.72 196.4,355.83Z" style="fill:rgb(160,160,160);fill-rule:nonzero;"/>
            <path d="M133.32,333.78L133.32,357.07C128.9,357.49 124.58,357.89 120.05,358.32C124.44,350.03 128.75,341.88 133.06,333.73C133.15,333.75 133.24,333.76 133.32,333.78Z" style="fill:rgb(160,160,160);fill-rule:nonzero;"/>
            <path d="M132.24,362.97L132.24,375.04C105.17,376.36 78.28,377.67 51.29,378.99L51.29,368.35C78.24,366.55 105.2,364.76 132.24,362.97Z" style="fill:rgb(160,160,160);fill-rule:nonzero;"/>
            <path d="M121.63,382.77C119.48,400.29 117.33,417.82 115.17,435.35C108.75,436.18 102.53,436.91 96.33,437.79C88.98,438.85 81.65,440.09 74.3,441.14C70.51,441.69 66.69,442.01 62.88,442.44C60.62,442.69 59.01,441.31 57.38,440.16C52.2,436.53 47.12,432.75 41.91,429.16C40.47,428.17 40.42,427.24 41.26,426C49.88,413.3 56.06,399.21 63.97,386.11C65.2,384.08 66.8,385.23 68.62,384.65C68.04,386.04 67.69,387.12 67.16,388.11C62.56,396.7 57.9,405.26 53.31,413.85C51.46,417.33 49.72,420.87 47.96,424.39C47.04,426.25 47.21,426.67 49.03,427.7C49.79,428.13 50.52,428.6 51.22,429.03C54.6,422.54 57.96,416.09 61.32,409.64C65.28,402.03 69.22,394.41 73.24,386.82C74.68,384.11 74.98,384.07 78.44,384.78C77.97,385.73 77.51,386.64 77.06,387.55C70.47,400.97 63.87,414.38 57.28,427.8C57,428.38 56.74,428.96 56.5,429.55C55.21,432.74 55.21,432.74 58.21,434.33C58.77,434.62 59.32,434.92 60.18,435.38C61.27,433.26 62.41,431.21 63.39,429.08C70.16,414.47 76.89,399.84 83.69,385.25C83.93,384.73 84.73,384.26 85.33,384.17C86.5,384 87.72,384.12 89.26,384.12C88.05,387.19 86.97,390.04 85.79,392.85C80.07,406.41 74.32,419.94 68.6,433.5C68.21,434.42 68.02,435.44 67.66,436.69C70.82,436.35 73.62,436.04 76.07,435.77C78.41,429.31 80.65,423.12 82.9,416.94C86.82,406.17 90.76,395.4 94.64,384.61C95.03,383.51 95.5,383.02 96.71,383.05C97.9,383.08 99.09,382.85 100.56,382.71C95.81,400.29 88.74,416.83 84.22,434.56C87.19,434.24 89.65,433.98 92.11,433.68C92.39,433.65 92.78,433.38 92.87,433.13C93.53,431.41 94.25,429.69 94.71,427.91C98.41,413.68 102.05,399.44 105.72,385.2C106.45,382.36 106.66,382.26 110.98,382.46C110.52,384.97 110.15,387.45 109.6,389.89C106.81,402.32 103.96,414.73 101.16,427.15C100.79,428.83 100.63,430.56 100.33,432.48C103.37,432.09 106.15,431.73 109.12,431.35C109.43,429.18 109.73,426.95 110.09,424.73C112.13,412.08 114.2,399.43 116.25,386.77C116.29,386.55 116.34,386.32 116.38,386.09C116.9,382.43 117.74,381.87 121.63,382.77Z" style="fill:rgb(160,160,160);fill-rule:nonzero;"/>
            <path d="M92.74,159.34C92.74,161.87 92.8,164.11 92.68,166.35C92.66,166.74 91.95,167.35 91.49,167.41C88.75,167.8 86,168.05 83.1,168.36C83.1,166.12 83.07,163.95 83.13,161.79C83.14,161.47 83.6,160.97 83.92,160.9C86.78,160.35 89.67,159.87 92.74,159.34Z" style="fill:rgb(160,160,160);fill-rule:nonzero;"/>
            <path d="M92.72,177.32L92.72,231.3C90.84,231.18 89,231.15 87.2,230.89C86.9,230.84 86.54,229.82 86.53,229.25C86.48,220.71 86.48,212.16 86.47,203.62C86.46,195.89 86.45,188.16 86.44,180.43L86.44,178.03C88.67,177.78 90.63,177.56 92.72,177.32Z" style="fill:rgb(160,160,160);fill-rule:nonzero;"/>
            <path d="M112.87,272.37C113.16,275.6 112.91,278.87 112.91,282.12C113.09,293.5 110.65,304.32 105.59,314.53C103.2,319.36 99.99,323.59 96.02,327.27C86.91,335.7 73.7,335.25 65.15,326.18C59.51,320.21 56.43,312.97 54.71,305.07C51.12,288.62 52.69,272.64 59.52,257.27C62.59,250.35 67.18,244.53 73.61,240.37C78.51,237.2 83.89,235.79 89.69,237.08C94.88,238.23 98.88,241.36 102.14,245.42C108.46,253.3 111.96,262.36 112.87,272.37Z" style="fill:rgb(160,160,160);fill-rule:nonzero;"/>
            <path d="M354.4,131.85C358.16,133.53 359.34,136.68 356.58,140.66C352.01,147.24 347.55,153.9 342.96,160.48C341.81,162.14 340.44,163.68 339.05,165.15C335.7,168.69 331.66,170.94 326.71,171.26C325.82,171.32 325.54,171.68 325.18,172.5C321.75,180.29 318.53,188.2 314.64,195.76C311.53,201.82 306.65,206.65 300.98,210.42C295,214.39 288.18,215.44 281.12,214.73C276.94,214.3 272.78,213.54 268.64,212.93C269.2,215.67 268.3,216.61 265.41,215.89C261.14,214.81 256.92,213.55 252.67,212.41C251,211.96 249.31,211.62 247.54,211.21C247.08,213.93 246.69,216.61 246.15,219.25C244.82,225.81 242.12,231.57 236.54,235.66C236.11,235.97 235.66,236.74 235.74,237.19C236.37,240.36 237.14,243.49 237.84,246.64C238.09,247.76 238.71,247.85 239.76,247.68C249.12,246.16 258.54,245.07 268.02,245.67C276.6,246.2 283.01,250.22 286.06,258.65C286.49,259.84 287.23,260.45 288.5,260.8C302.92,264.73 317.34,268.65 331.7,272.78C336.56,274.17 340.11,277.63 342.86,281.77C344.54,284.31 346.37,286.84 346.87,289.99C346.92,290.28 347.04,290.55 347.09,290.83C347.78,294.26 347.46,294.66 344.03,294.65C341.72,294.64 339.4,294.64 336.97,294.64L336.97,309.73C338.07,309.96 339.14,310.22 340.21,310.4C343.25,310.92 345.35,312.73 346.35,315.5C347.2,317.85 347.93,320.41 347.94,322.88C348.06,346.31 348.01,369.74 348.01,393.17L348.01,395.47C344.24,396.11 340.6,396.72 336.92,397.34L336.92,418.85L342.71,418.85L342.71,430.4C336.42,430.7 330.12,430.99 323.92,431.28C323.59,429.74 323.6,427.99 322.8,426.76C322.26,425.93 320.58,425.84 319.15,425.33C317.75,438.43 315.08,450.68 303.85,459.1C316.75,459.98 329.51,459.62 342.06,461.84C342.07,462.15 342.07,462.46 342.08,462.77C339.66,463.07 337.24,463.46 334.81,463.66C308.95,465.81 283.01,465.7 257.1,465.91C226.81,466.15 196.52,466.05 166.23,466.02C150.77,466 135.31,465.98 119.85,465.67C102.36,465.32 84.88,464.69 67.4,464.08C62.24,463.9 57.09,463.38 51.94,462.98C51.37,462.94 50.82,462.65 50.27,462.1C60.66,459.88 71.21,459.96 82.15,459.34C81.48,458.88 81.12,458.58 80.72,458.37C76.84,456.39 74.22,453.17 72.2,449.43C71.45,448.03 70.72,447.19 68.91,447.3C65.49,447.5 62.06,447.37 58.63,447.41C57.49,447.42 56.72,447.07 55.81,446.21C52.93,443.52 49.86,441.02 46.75,438.61C43.08,435.76 39.28,433.09 35.54,430.33C34.21,429.35 33.93,428.03 34.78,426.56C42.8,412.64 50.84,398.73 58.87,384.81C58.95,384.67 59,384.51 59.17,384.1L47.16,384.1L47.16,363.72C49.57,363.56 52.04,363.38 54.51,363.22C57.06,363.05 59.61,362.88 62.16,362.77C63.5,362.71 64.35,362.18 65.02,360.94C68.7,354.17 72.47,347.44 76.21,340.69C77.12,339.05 77.04,338.73 75.27,338.27C67.38,336.25 62.15,330.91 57.87,324.4C51.23,314.33 48.83,303.03 48.41,291.19C47.91,276.96 50.93,263.5 57.9,251.06C61.91,243.9 67.43,238.05 74.69,234.03C76.24,233.18 77.98,232.58 79.71,232.18C80.85,231.91 81.19,231.55 81.19,230.4C81.2,218.42 81.27,206.44 81.31,194.47C81.32,188.95 81.31,183.44 81.31,177.81C81.06,177.75 80.79,177.68 80.53,177.61C77.25,176.75 76.96,176.38 76.97,172.96C76.97,168.83 77.05,164.7 76.94,160.58C76.9,158.81 77.66,157.75 79.08,156.94C86.62,152.62 94.58,151.18 103,153.79C105.68,154.63 108.23,155.94 110.81,157.09C112.12,157.67 112.51,158.67 112.47,160.17C112.35,164.41 112.39,168.65 112.55,172.89C112.66,175.89 111.85,176.84 107.87,177.46C107.85,177.98 107.81,178.54 107.8,179.1C107.67,197.7 107.54,216.3 107.37,234.91C107.36,236.09 107.66,236.63 108.85,236.96C113.3,238.2 117.72,239.57 122.41,240.97C122.59,239.41 122.9,237.99 122.88,236.58C122.85,233.65 123.76,231.01 124.98,228.41C125.29,227.74 125.32,226.75 125.07,226.05C123.58,222 123.02,218 125.8,214.3C130.16,208.5 134.65,202.81 139.02,197.02C139.81,195.98 140.04,194.43 140.95,193.56C145.84,188.85 150.7,184.09 155.88,179.72C163.36,173.41 171.49,168.07 180.68,164.49C180.71,164.48 180.71,164.38 180.74,164.23C177.73,163.18 175.23,161.47 173.57,158.62C173.34,158.23 172.4,158.12 171.78,158.1C165.15,157.92 160.1,153.18 159.98,146.83C159.95,145.54 160.35,144.24 160.57,142.83C160.27,142.67 159.87,142.45 159.47,142.23C152.65,138.6 150.54,131.14 154.46,124.48C155.04,123.49 155.7,122.53 156.22,121.5C156.36,121.21 156.19,120.72 156.09,120.34C154.24,113.58 157.51,107.43 162.76,103.47C163.44,102.96 164.21,102.54 164.91,102.1C162.24,91.47 166.66,85.17 176.26,81.03C174.79,69.68 189.18,62.63 196.45,64.93C198.99,57.9 204.35,54.15 211.4,52.63C215.52,51.75 219.68,51.67 223.83,52.78C224.77,53.04 225.98,52.78 226.94,52.41C234.66,49.44 242.2,49.4 249.58,53.48C251.8,54.71 253.46,56.47 254.4,58.78C254.98,60.2 255.88,60.42 257.22,60.45C261.7,60.55 265.94,61.52 269.59,64.33C274.08,67.76 276.14,73.67 274.6,79.07C274.32,80.04 274.51,80.47 275.28,81.05C280.33,84.8 282.76,89.81 282.05,96.13C281.7,99.29 280.16,101.92 277.91,104.25C280.11,111.67 280.71,118.8 273.48,123.85C273.48,126.41 273.64,128.89 273.44,131.34C273.2,134.53 271.34,136.82 268.65,138.41C267.6,139.03 267.18,139.67 266.95,141.01C265.98,146.65 264.18,152.09 260.5,156.59C256.64,161.29 252.49,165.74 248.46,170.29C251.29,171.16 254.47,172.08 257.61,173.13C263.27,175.01 268.96,176.82 274.51,178.97C277.52,180.13 280.3,181.91 283.15,183.47C284.52,184.22 285.61,184.03 286.73,182.94C293.9,175.96 300.9,168.82 306.53,160.5C306.85,160.03 306.95,159.14 306.73,158.63C303.94,152.42 304.07,146.04 305.98,139.74C307.27,135.49 307.34,131.47 306.04,127.29C305.65,126.04 305.4,124.65 305.54,123.36C305.85,120.3 309,118.55 312.11,119.63C316.38,121.12 318.46,124.46 319.39,128.66C319.64,129.84 319.65,131.08 319.81,132.63C320.39,132 320.88,131.52 321.33,130.99C326.08,125.5 330.78,119.96 335.58,114.52C337.28,112.59 339.48,111.86 342.03,112.77C342.41,112.9 342.91,113.03 343.09,113.33C344.18,115.09 345.78,115.07 347.64,115.13C351.92,115.26 353.5,117.84 352.58,122.75C353.45,123.25 354.41,123.68 355.21,124.31C356.67,125.46 356.84,126.6 356.04,128.25C355.46,129.43 354.94,130.65 354.4,131.85ZM354.26,138.25C354.62,137.75 354.94,137.04 354.87,136.49C354.8,135.93 354.32,135.22 353.82,134.97C353.44,134.78 352.68,135.08 352.22,135.37C351.81,135.64 351.58,136.18 351.3,136.62C348.33,141.2 344.68,145.09 339.75,148.05C339.66,147.62 339.58,147.19 339.49,146.76L339.5,146.75C339.51,146.76 339.51,146.76 339.52,146.77C339.52,146.76 339.51,146.76 339.51,146.75C340.51,145.81 341.53,144.88 342.51,143.94C347.19,139.48 349.67,133.59 352.81,128.14C353.06,127.72 353.13,127.19 353.27,126.75C350.47,125.18 350.37,125.15 348.7,127.6C345.2,132.74 341.35,137.55 336.46,141.52C337.49,143.28 338.49,145.02 339.51,146.75L339.5,146.75C339.2,146.5 338.89,146.25 338.6,145.99C335.16,142.81 331.69,139.65 328.27,136.45C327.51,135.73 326.89,134.85 326.2,134.04C326.34,133.91 326.47,133.77 326.6,133.64C327.77,134.24 328.94,134.83 330.06,135.4C330.24,135.29 330.35,135.25 330.43,135.17C335.44,130.42 338.23,124.09 342.21,118.61C342.45,118.26 342.34,117.46 342.11,117.01C341.34,115.48 339.2,115.54 337.74,117.23C333.3,122.32 328.91,127.45 324.5,132.57C323.19,134.09 321.87,135.62 320.55,137.14C319.8,138 319.89,138.59 320.47,139.54C322.82,143.35 325.1,147.21 324.66,151.99C324.44,154.38 323.69,156.47 321.96,158.38C321.96,157.26 321.93,156.39 321.97,155.52C322.27,149.26 319.98,143.96 315.85,139.41C315.04,138.52 314.77,137.78 315.05,136.65C315.74,133.94 316.11,131.21 315.58,128.39C315,125.22 313.26,123.1 310.83,122.91C309.14,122.78 308.55,123.37 308.84,125.03C309.08,126.4 309.37,127.77 309.76,129.1C310.64,132.08 310.69,135.05 309.83,138.02C308.4,143.01 308.08,148.09 309,153.17C309.46,155.7 310.44,158.13 311.14,160.43C310.56,160.98 309.97,161.32 309.69,161.83C306.27,168.15 301.47,173.34 296.33,178.25C291.55,182.82 287.13,187.62 285.18,194.16C285.1,194.42 284.85,194.62 284.69,194.85C284.58,194.82 284.48,194.78 284.38,194.74C284.61,192.62 284.84,190.51 285.07,188.37C282.04,186.89 278.99,185.4 275.84,183.86C274.59,186.25 273.34,188.52 272.21,190.86C269.72,196.01 268,201.39 267.7,207.16C267.64,208.32 268.09,208.88 269.21,209.01C274.62,209.64 280.02,210.47 285.44,210.86C290.24,211.2 294.91,210.11 298.75,207.12C303.42,203.47 307.93,199.51 310.71,194.14C314.42,186.94 317.85,179.59 321.42,172.31C322.04,171.04 322.66,169.79 320.94,168.16C322.32,167.97 323.21,167.81 324.1,167.73C325.02,167.65 325.96,167.78 326.86,167.6C331.39,166.73 335.16,164.28 337.88,160.76C343.55,153.41 348.85,145.78 354.26,138.25ZM349.17,121.95C349.45,121.45 349.82,120.86 349.76,120.36C349.67,119.63 349.4,118.58 348.9,118.34C348.27,118.04 347.25,118.28 346.52,118.58C346,118.79 345.65,119.48 345.27,120C341.07,125.66 336.88,131.33 332.51,137.24C333.19,137.99 334.19,139.08 335.22,140.2C335.52,139.96 335.71,139.84 335.88,139.69C341.54,134.7 345.56,128.48 349.17,121.95ZM340.59,384.08L340.59,379.74C310.37,375.25 280.22,370.77 249.37,366.18C249.82,367.59 250.41,368.55 250.4,369.51C250.37,371.6 251.64,371.76 253.19,371.97C261.12,373.06 269.03,374.2 276.95,375.34C284.46,376.41 291.97,377.53 299.49,378.58C306.89,379.61 314.3,380.59 321.72,381.58C327.97,382.42 334.23,383.24 340.59,384.08ZM340.18,286.77C339.84,286.21 339.61,285.76 339.31,285.36C336.56,281.6 333.44,278.52 328.61,277.33C319.05,274.96 309.56,272.28 300.06,269.69C295.89,268.56 291.74,267.34 287.52,266.15C287.71,268.4 287.88,270.52 288.08,272.88C305.36,277.49 322.68,282.1 340.18,286.77ZM324.28,318.34C324.28,310.82 324.29,303.57 324.25,296.32C324.25,295.97 323.89,295.39 323.59,295.32C321.69,294.82 319.77,294.44 317.74,294L317.74,316.87C319.89,317.35 322,317.83 324.28,318.34ZM308.58,442.24C312.32,432.23 312.56,421.94 310.41,411.57C308.49,402.3 304.54,394.25 297.05,388C291.47,383.34 280.24,382.47 273.68,389.22C268.43,394.62 265.08,400.97 262.96,408.07C262.28,410.36 261.91,412.76 261.4,415.13C263.07,415.52 264.47,415.85 266.12,416.24C266.23,415.62 266.33,415.19 266.38,414.74C267.14,407.41 270.08,401.1 275.55,396.14C282.69,389.66 291.09,390.01 297.86,396.84C300.79,399.8 302.56,403.48 304,407.25C306.46,413.7 306.63,420.52 306.47,427.34C306.32,434.07 304.57,440.17 300.31,445.61C296.3,450.74 291.48,453.82 284.85,453.18C279.88,452.71 276.12,449.93 273.19,446.02C270.3,442.16 268.51,437.79 267.39,433.12C267.23,432.45 266.64,431.48 266.1,431.38C264.8,431.12 263.41,431.29 262.02,431.29C263.37,440.91 267.47,449 274.14,455.78C279.81,461.54 288.62,462.59 295.59,458.49C302,454.72 306.04,449.05 308.58,442.24ZM309.41,344.75C311.39,343.92 311.41,343.77 310.34,341.38C299.88,344.67 289.78,349.59 278.43,349.51C278.42,349.49 278.4,349.48 278.39,349.47C278.38,349.48 278.37,349.5 278.35,349.51C273.67,349.55 268.99,349.58 264.31,349.68C263.82,349.69 263.08,350.02 262.89,350.41C262.04,352.18 263.31,354.4 265.35,354.51C267.59,354.62 269.85,354.44 272.1,354.32C274.16,354.2 275.68,353.21 276.73,351.4C277.13,350.69 277.8,350.13 278.35,349.51L278.43,349.51C279.19,350.19 279.88,351 280.73,351.52C284.36,353.74 288.19,353.38 291.92,351.93C297.79,349.63 303.59,347.17 309.41,344.75ZM308.76,338.87C310.18,338.41 310.33,337.76 309.72,336.57C308.28,333.8 305.8,332.79 302.93,332.87C300.28,332.94 297.64,333.45 295,333.74C292.71,334 290.78,334.93 289.23,336.65C288.84,337.08 288.35,337.44 287.91,337.83C287.73,337.72 287.56,337.61 287.38,337.5C287.83,336.35 288.08,335.05 288.79,334.1C289.54,333.08 290.72,332.38 291.83,331.46C290.48,330.74 289.21,329.6 287.86,329.48C285.94,329.31 284.12,330.16 282.98,331.98C282.28,333.1 281.52,334.19 280.78,335.29C279.82,330.85 282.33,328.44 285.72,326.66C283.89,323.56 283.19,323.39 280.48,325.4C279.74,325.95 279.05,326.59 278.39,327.24C276.91,328.72 275.56,330.33 273.98,331.69C272.91,332.6 271.61,333.32 270.3,333.83C267.89,334.77 265.53,334.43 263.17,332.72C262.94,336.99 261.77,340.89 263.06,344.9C263.47,346.18 264.05,346.48 265.29,346.43C269.87,346.24 274.46,346.22 279.05,346.03C282.4,345.89 285.89,346.11 289.07,345.25C295.72,343.44 302.19,340.98 308.76,338.87ZM308.14,314.16C308.12,307.14 308.11,300.12 308.01,293.09C308.01,292.65 307.44,291.97 306.99,291.82C305.19,291.22 303.33,290.79 301.36,290.26L301.36,313.17C303.59,313.76 305.73,314.33 307.88,314.89C308.03,314.48 308.14,314.32 308.14,314.16ZM292.61,419.18C294.63,422.07 294.77,425.27 293.72,428.49C292.95,430.87 291.68,433.12 289.01,433.62C286.38,434.11 284.56,432.42 283.04,430.47C283,430.43 282.94,430.4 282.48,430.06C282.27,431.33 281.73,432.41 282,433.24C283.31,437.31 288.19,438.55 291.47,435.8C297.14,431.03 298.31,420.51 291.45,414.14C290.69,413.43 289.28,412.84 288.34,413.04C286.17,413.48 284.22,414.61 283,416.61C282.68,417.14 282.56,417.8 282.36,418.4C282.5,418.56 282.64,418.72 282.79,418.88C283.63,418.54 284.53,418.3 285.28,417.82C287.92,416.15 290.83,416.62 292.61,419.18ZM291.43,425.46C290.98,424.23 290.65,422.94 290.05,421.79C289.34,420.45 288.21,420.35 287,421.29C285.2,422.71 284.48,425.23 285.25,427.39C285.66,428.55 286.4,429.19 287.7,429.21C289.74,429.24 291.18,427.76 291.43,425.46ZM288.33,310.23C288.31,310.02 288.27,309.63 288.21,309.24C287.58,305.06 286.76,300.89 286.34,296.68C285.29,286.34 284.57,275.97 283.4,265.65C283.03,262.44 282.1,259.09 280.59,256.26C278.18,251.76 273.63,250.16 268.8,249.5C262.06,248.57 255.34,249.34 248.65,250.06C242.58,250.71 236.75,252.45 231.06,254.69C225.69,256.81 220.25,258.77 214.84,260.8C214.91,260.88 214.98,260.99 215.07,261.05C215.27,261.17 215.48,261.26 215.69,261.35C220.81,263.45 224.53,267 226.87,272.02C228.66,275.88 229.29,279.98 229.41,284.19C229.44,285.11 229.46,285.92 230.78,285.87C236.07,285.68 241.27,285.23 246.33,283.37C249.06,282.37 250.8,281.1 250.33,277.95C250.31,277.84 250.33,277.72 250.35,277.61C250.77,274.97 251.51,272.47 253.3,270.12C252.55,280.44 252.57,280.99 253.95,282.94C255.57,277.42 258.53,272.7 261.78,268.1C261.41,270.23 260.84,272.28 260.05,274.24C258.53,278 256.83,281.68 255.32,285.45C254.98,286.3 254.97,287.38 255.1,288.31C256.4,297.09 257.76,305.86 259.1,314.64C259.47,317 259.82,319.37 260.18,321.78C268.67,315.22 278,311.67 288.33,310.23ZM286.73,317.89C286.92,316.93 287.18,315.98 287.21,315.02C287.21,314.84 286.29,314.64 285.54,314.35C285.76,315.77 285.91,316.78 286.06,317.78C286.28,317.82 286.51,317.85 286.73,317.89ZM282.55,320.38C282.25,318.9 281.98,317.56 281.66,315.95C275.54,317.71 269.98,320.14 264.95,323.61C262.32,325.42 262.37,325.62 263.63,328.64C264.06,329.68 264.71,330.92 265.62,331.42C268.53,333.04 271.69,332.04 273.66,328.87C275.9,325.26 278.33,321.94 282.55,320.38ZM276.96,427.43C281.24,427.65 281.24,427.55 281.01,423.22C281.01,423.12 280.92,423.01 280.73,422.61C263.29,420.91 245.86,417.44 228.03,416.96C227.87,419.69 227.72,422.27 227.57,424.9C234.31,425.2 240.69,425.44 247.06,425.77C257.03,426.3 266.99,426.93 276.96,427.43ZM277.87,97.34C279.44,89.85 277.48,85.66 271.16,82.25C270.21,81.74 269.9,81.27 270.32,80.4C272.39,76.05 271.04,72.26 268.39,68.73C265.78,65.25 259.54,62.77 255.79,64.13C253.79,64.85 253.1,64.2 252.59,62.66C251.69,59.93 249.69,58.2 247.32,56.9C240.61,53.2 233.75,53.69 226.85,56.37C226.25,56.61 225.47,56.88 224.93,56.68C219.65,54.79 214.48,55.63 209.44,57.4C205.41,58.81 201.93,61.11 200.2,65.31C199.87,66.11 199.69,66.97 199.38,67.78C199.03,68.71 197.93,69.23 197.51,68.56C196.51,66.94 195.29,67.64 194.06,67.74C189.16,68.12 185.16,70.39 181.96,73.92C179.85,76.24 178.59,79.11 179.36,82.4C179.86,84.52 179.96,84.45 177.89,84.52C177.21,84.55 176.49,84.71 175.89,85.01C173.22,86.31 170.99,88.19 169.53,90.77C167.67,94.07 167.55,97.64 168.54,101.23C169.01,102.96 168.54,104.13 167.07,105.08C165.86,105.87 164.61,106.65 163.56,107.63C160.16,110.78 158.81,114.86 160.16,119.16C160.99,121.8 160.98,123.07 158.95,125.26C154.49,130.05 156.53,137.2 162.75,140.27C164.26,141.01 164.64,141.92 164.36,143.57C163.41,149.2 166.12,154.79 173.69,153.98C174.37,153.91 175.04,153.76 175.78,153.63C176,154.05 176.24,154.44 176.42,154.86C179.47,162.18 187.68,163.04 193.66,159.66C194.77,159.04 195.96,158.06 195.29,156.42C194.2,153.77 193.04,151.15 191.88,148.46C187.68,149.31 184.04,148.03 181.16,144.8C178.38,141.67 177.49,137.68 176.72,133.6C176.05,133.97 175.53,134.26 174.86,134.64C175.07,131.1 177.06,129.38 179.38,128.1L181.93,129.49C180.83,130.09 180.2,131.34 180.22,133.15C180.25,136.25 181.38,139.05 182.99,141.64C184.96,144.82 188.23,146.2 191.81,145.15C193.31,144.71 194.37,145.01 195.29,145.81C195.33,146.66 195.2,147.28 195.4,147.76C198.41,154.82 202.88,160.62 209.55,164.69C214.16,167.5 218.7,170.32 223.82,172.18C230.27,174.52 236.12,173.85 241.55,169.7C247.96,164.8 253.77,159.22 258.15,152.45C263.23,144.62 264.94,136.15 261.01,127.16C260.69,126.43 260.49,125.57 260.55,124.79C260.6,124.05 260.65,123.3 260.7,122.56L263.46,122.73C263.38,124.65 263.73,126.53 264.85,128.44C265.79,130.02 265.93,132.07 266.44,133.9C266.58,134.42 266.72,134.93 266.91,135.59C269.73,132.47 270.64,129.13 269.7,125.28C268.99,122.43 269.01,122.44 271.52,120.68C273.26,119.46 274.8,118.05 275.29,115.86C276.21,111.78 275.91,107.91 273.13,104.51C272.14,103.31 272.46,101.63 273.75,101.55C276.48,101.39 277.44,99.44 277.87,97.34ZM264.02,211.9C263.61,200.86 266.95,191.22 273.03,182.48C268.36,180.88 263.81,179.21 259.18,177.76C254.49,176.28 249.74,174.98 245,173.67C244.55,173.55 243.92,173.81 243.44,174.04C241.45,174.96 239.53,176.08 237.48,176.84C235.9,177.43 234.16,177.59 232.45,177.95C232.48,178.15 232.49,178.32 232.53,178.48C235.2,188.27 227.36,197 217.32,195.22C205.84,193.18 197.1,187.13 191.6,176.71C189.91,173.49 188.39,170.19 186.8,166.95C170.44,171.79 157.86,182.37 145.83,193.66C154.51,199.13 162.62,204.78 164.01,216.18C168.31,213.5 172.96,211.38 176.21,207.54C179.39,203.78 182.05,199.59 185.02,195.48C184.88,198.45 184.12,201.17 182.87,203.78C180.27,209.22 176.14,213.18 170.82,215.89C169.3,216.67 168.71,217.84 168.37,219.43C167.63,222.87 166.68,226.26 165.91,229.7C165.76,230.37 165.84,231.36 166.24,231.83C168.56,234.51 170.98,237.11 173.42,239.67C174.92,241.24 176.79,242.14 178.98,242.23C181.65,242.35 184.34,242.25 186.98,242.56C189.96,242.9 193.01,243.25 195.81,244.21C198.73,245.22 201.36,247.04 204.17,248.37C205.84,249.15 207.1,250.24 207.84,251.9C208.77,253.99 209.66,256.09 210.68,258.45C218.56,255.51 226.46,252.57 234.16,249.69C233.37,245.49 232.63,241.6 231.87,237.64C230.83,237.98 229.65,238.35 228.47,238.73C228.36,238.57 228.26,238.41 228.15,238.26C228.77,237.69 229.33,237.02 230.03,236.56C234.15,233.81 237.83,230.62 239.82,225.96C242.05,220.75 243.23,215.27 243.72,209.62C244.26,203.39 244.91,197.17 245.51,190.95C245.83,190.92 246.16,190.89 246.49,190.86C246.93,192.6 247.64,194.32 247.76,196.07C247.98,199.37 247.9,202.7 247.84,206.01C247.82,207.06 248.02,207.43 249.15,207.72C253.13,208.72 257.05,209.95 260.99,211.09C262.02,211.38 263.05,211.65 264.02,211.9ZM233.28,458.83L263.26,458.83C256.47,453.82 252.89,447 251.42,439.11C249.21,438.39 248.27,439.21 247.43,441.16C244.8,447.26 241.16,452.68 235.62,456.59C234.79,457.17 233.98,457.76 233.16,458.35C233.2,458.51 233.24,458.67 233.28,458.83ZM258.92,404.67C260.84,398.57 263.46,392.83 267.5,387.79C261.37,391.47 257.46,396.99 254.67,403.41C254.18,404.52 254.2,405.59 255.68,406.02C257.34,406.5 258.47,406.08 258.92,404.67ZM243.55,375.75C245.31,375.4 245.79,374.1 245.48,372.23C243.36,372.56 241.37,372.89 239.38,373.17C233.52,374 227.65,374.29 221.96,372.38C215.6,370.24 209.34,367.78 203.78,363.86C203.26,363.49 202.63,363.29 202.05,363C201.94,363.11 201.83,363.21 201.72,363.31C202.1,364.32 202.37,365.38 202.87,366.32C204.37,369.15 207.71,370.48 210.77,369.74C211.5,369.57 212.5,369.75 213.15,370.14C215.23,371.39 217.11,373.01 219.25,374.13C227.08,378.23 235.31,377.37 243.55,375.75ZM244.04,367.59C244.05,366.58 243.98,365.42 243.51,364.58C241.37,360.74 238.32,358.22 233.69,357.84C230.67,357.6 228.15,358.65 225.67,360.11C224.73,360.67 223.72,361.1 222.74,361.58C222.67,361.43 222.59,361.28 222.52,361.14C225.05,357.06 228.71,354.75 233.73,354.32C232.3,353.47 230.78,352.36 229.49,352.58C227.41,352.93 225.42,354.03 223.51,355.05C222.38,355.65 221.49,356.69 220.18,357.8C221.62,353.25 224.47,350.68 228.61,349.48C228.11,348.11 227.63,346.99 227.29,345.82C226.98,344.78 226.41,344.53 225.47,344.94C223.16,345.97 220.84,346.99 218.55,348.07C216.88,348.85 215.31,349.93 213.58,350.51C209.82,351.75 207.91,350.83 206.1,347.27C205.98,347.04 205.79,346.85 205.55,346.54C205.37,346.79 205.24,346.91 205.16,347.06C204.99,347.37 204.83,347.68 204.69,347.99C203.16,351.31 202.51,354.8 202.58,358.45C202.6,359.47 202.87,360.03 203.76,360.5C206.08,361.69 208.26,363.18 210.64,364.21C215.3,366.22 219.95,368.35 224.8,369.79C230.26,371.41 235.94,370.9 241.57,370.23C243.38,370.02 244.01,369.11 244.04,367.59ZM243.99,431.14C244.02,431.01 243.91,430.84 243.84,430.59L238.62,430.59C238.54,430.75 238.45,430.9 238.41,431.06C238.3,431.45 238.21,431.85 238.12,432.24C236.65,438.46 234.22,444.07 229.04,448.26C223.35,452.86 215.24,453.9 208.83,450.38C203.9,447.68 200.2,443.66 197.69,438.7C193.62,430.66 192.16,422.07 192.71,413.07C193.2,404.95 195.67,397.59 200.94,391.35C206.69,384.53 215.88,381.53 224.54,386.49C232.46,391.01 236.46,398.26 238.81,406.67C239.41,408.82 239.72,411.06 240.19,413.36C241.71,413.49 243.29,413.64 245.18,413.81C244.53,410.37 244.07,407.21 243.34,404.12C241.49,396.34 237.9,389.43 232.24,383.76C230.63,382.14 228.46,380.67 226.29,380.1C222.92,379.21 219.51,378.64 216.47,376.81C216.05,376.56 215.49,376.35 215.02,376.41C209.72,377.06 204.83,378.76 200.89,382.51C196.29,386.88 193.27,392.3 191.02,398.13C187.97,406.02 187.29,414.22 187.87,422.62C188.58,433.06 192.08,442.4 198.49,450.63C201.23,454.15 204.58,457.02 208.86,458.59C212.19,459.81 215.63,459.37 219.04,459.13C222.96,458.86 226.59,457.6 229.56,455.02C236.92,448.63 241.69,440.62 243.99,431.14ZM230.58,330.39C230.93,330.07 231,329.26 230.92,328.72C229.87,321.26 228.58,313.83 227.72,306.34C226.8,298.28 226.3,290.16 225.55,282.08C224.6,271.81 219.07,265.33 209.24,262.86C208,262.55 205.68,263.57 205.03,264.68C203.85,266.71 202.37,268.04 199.71,267.7C198.57,267.55 197.16,267.95 196.15,268.57C194.76,269.41 193.76,269.32 192.55,268.35C190.46,266.66 188.23,265.34 185.45,264.91C183.17,264.56 180.72,265.74 178.58,264.18C178.53,264.14 178.38,264.28 178.27,264.31C172.35,265.98 167.93,263.88 163.97,259.35C161.51,256.53 158.16,254.49 154.93,251.88C154.49,253.88 154.12,255.34 153.86,256.81C152.53,264.35 153.77,271.05 159.85,276.4C164.06,280.09 168.75,282.89 173.87,285.02C179.33,287.28 185.06,288.56 190.98,289.58C190.53,286.45 190.44,283.49 192.07,280.72C192.61,284.52 193.16,288.33 193.7,292.13C193.83,292.13 193.97,292.12 194.1,292.12C195.38,289.58 196.65,287.05 197.93,284.51C198.13,284.57 198.33,284.63 198.52,284.68C198.52,285.67 198.71,286.7 198.48,287.63C198.06,289.37 197.52,291.11 196.8,292.74C195.33,296.09 195.1,299.42 195.75,303.06C197.02,310.25 197.91,317.51 198.84,324.75C199.25,327.91 199.35,331.11 199.7,334.28C199.76,334.82 200.33,335.63 200.79,335.74C204.45,336.6 208.11,337.69 211.83,338.01C219.28,338.67 225.3,335.3 230.58,330.39ZM215.28,191.79C223.11,193.8 231.35,189.72 229.32,179C229.2,178.39 228.75,177.85 228.46,177.28C228.03,177.68 227.53,178.03 227.21,178.5C225.98,180.27 224.84,182.08 223.62,183.85C223.31,184.31 222.85,184.68 222.46,185.09C222.25,184.97 222.03,184.84 221.82,184.71C222.87,181.95 223.91,179.18 224.96,176.41C214.86,173.07 205.96,167.49 198.33,160.52C196,162.12 193.78,163.64 191.62,165.13C192.12,167.01 192.67,169.13 193.25,171.24C193.65,172.68 193.84,174.25 194.54,175.54C199.07,183.96 206.04,189.42 215.28,191.79ZM225.57,413.8C225.79,413.71 226,413.62 226.22,413.53C226.11,412.76 226.28,411.73 225.84,411.25C221.53,406.45 214.75,406.19 211.45,412.59C209.1,417.15 209.05,421.94 211,426.72C212.37,430.07 214.85,432.14 218.43,432.51C221.73,432.85 223.87,430.69 225.88,428.38C225.49,427.66 225.14,427.02 224.77,426.32C224.29,426.63 223.91,426.89 223.52,427.13C220.49,428.96 217.5,428.34 215.46,425.46C212.75,421.63 213.6,414.96 217.21,411.97C217.74,411.54 218.38,411.2 219.02,410.98C221.94,410 224.13,410.96 225.57,413.8ZM226.49,341.34C226.28,340.03 225.55,339.71 224.29,340.27C223.45,340.64 222.58,340.99 221.69,341.23C216.59,342.55 211.48,343.8 206.18,341.95C206.1,342.1 206.03,342.24 205.96,342.38C206.7,343.52 207.42,344.68 208.2,345.79C210.56,349.13 212.71,349.4 215.89,346.81C219.03,344.26 222.63,342.63 226.49,341.34ZM222.35,423.18C224.01,421.71 224.56,418.57 223.5,416.63C222.74,415.26 221.49,414.87 220.12,415.64C218.43,416.61 217.87,418.19 217.88,420.48C217.94,420.8 218,421.57 218.27,422.25C219.07,424.35 220.64,424.68 222.35,423.18ZM206.11,261.12C206.61,260.34 206.96,259.62 206.84,259C206.55,257.59 205.98,256.24 205.63,254.84C205.08,252.69 203.77,251.34 201.71,250.55C199.38,249.66 197.15,248.53 194.82,247.65C193.38,247.1 191.87,246.6 190.35,246.45C186.3,246.08 182.22,246.07 178.19,245.59C176.31,245.36 174.03,244.85 172.79,243.62C168.24,239.08 163.99,234.23 159.73,229.4C156.2,225.41 152.84,221.25 149.33,217.23C148.24,215.97 146.94,214.9 145.73,213.75C145.84,213.61 145.95,213.47 146.05,213.33C148.91,215.13 151.77,216.93 154.8,218.84C155.92,217.41 157.02,215.84 158.3,214.43C159.31,213.32 159.44,212.27 158.77,210.98C155.48,204.65 150.76,199.86 144.13,197.08C141.68,200.16 139.24,203.12 136.92,206.16C134.24,209.65 131.6,213.18 129.04,216.77C126.84,219.85 127.44,223.04 129.47,225.84C131.19,228.22 133.24,230.41 135.39,232.42C143.6,240.1 152.65,246.69 161.95,252.98C163.8,254.24 165.54,255.74 167.08,257.36C169.76,260.2 172.79,261.62 176.74,260.76C177.74,260.53 178.83,260.69 179.86,260.53C185,259.76 189.33,261.45 193.14,264.8C193.4,265.03 193.67,265.36 193.97,265.42C194.62,265.52 195.4,265.69 195.91,265.42C196.21,265.26 196.27,264.23 196.09,263.71C195.13,260.83 192.71,259.44 190.19,258.15C188.93,257.51 187.74,256.75 186.6,256.09C187.32,255.21 187.87,254.53 188.5,253.76C193.37,256.34 198.75,258.59 199.83,265.26C202.09,264.62 202.8,263.91 202.6,262.35C202.19,259.23 201.01,256.53 198.05,254.95C196.08,253.89 194.11,252.83 192.16,251.79C192.54,251.15 192.87,250.58 193.19,250.02C199.47,251.35 204,254.66 206.11,261.12ZM198,358.03C198.09,356.74 197.65,355.93 196.4,355.83C195.06,355.72 193.68,355.99 192.35,355.82C188.9,355.38 185.48,354.78 182.04,354.27C176.3,353.43 170.57,352.61 164.56,351.74C165.51,353.79 166.44,355.53 167.14,357.36C167.63,358.67 168.37,359.22 169.76,359.4C176.31,360.24 182.85,361.21 189.39,362.09C192.23,362.47 195.09,362.76 197.97,363.09C197.97,361.25 197.88,359.63 198,358.03ZM195.63,380.55C195.52,380.42 195.41,380.28 195.3,380.15C193.19,381.88 190.79,383.36 189.04,385.4C185.5,389.52 183.06,394.35 181.54,399.6C181.34,400.29 181.34,401.12 181.52,401.82C181.63,402.26 182.21,402.79 182.65,402.87C183.1,402.95 183.81,402.65 184.1,402.28C184.55,401.71 184.74,400.94 185.05,400.25C186.91,396.08 188.59,391.81 190.69,387.76C192.02,385.19 193.96,382.94 195.63,380.55ZM165.18,458.61L190.11,458.61C189.27,457.56 188.68,456.81 188.08,456.07C183.84,450.9 179.73,445.65 178.47,438.83C178.26,437.69 177.69,437.22 176.32,437.53C174.51,445.47 171.92,453.01 165.18,458.61ZM166.96,328.33C172.3,318.66 174.73,308.29 174.25,297.25C174.15,294.77 172.59,293.23 170.42,291.69C172.45,306.08 168.51,319.16 163.99,332.27C164.99,330.96 166.18,329.76 166.96,328.33ZM171.53,432.6C171.62,424.87 169.99,417.94 165.69,411.87C162.31,407.1 157.9,403.92 151.65,405.07C146.63,405.99 143.42,409.46 141.03,413.67C136.58,421.52 135.48,429.98 137.02,438.79C138.04,444.57 139.8,450.11 143.88,454.52C147.85,458.8 154.74,461.24 160.27,457.62C163.65,455.41 166.29,452.58 168.12,448.95C170.79,443.69 171.53,438.05 171.53,432.6ZM162.48,227.44C163.4,224.7 164.19,222.35 164.98,219.99C162.86,220.76 162.09,223.95 158.66,222.87C160.05,224.53 161.17,225.87 162.48,227.44ZM143.83,244.66C144.09,246.85 148.28,249.68 150.79,249.18C148.38,247.61 146.1,246.13 143.83,244.66ZM145.46,275.85C144.87,274.25 144.32,273.03 143.98,271.75C143.4,269.55 142.07,268.46 139.83,267.9C132.69,266.11 125.61,264.13 118.52,262.17C117.14,261.79 116.77,262.41 116.92,263.54C117.17,265.43 117.5,267.32 117.91,269.18C117.99,269.54 118.58,269.95 119,270.05C120.97,270.53 122.96,270.87 124.94,271.31C131.66,272.79 138.37,274.28 145.46,275.85ZM143.73,404.66C143.63,404.5 143.52,404.33 143.42,404.17C141.49,405.48 139.31,406.55 137.65,408.15C129.69,415.84 127.29,425.59 127.72,436.28C127.74,436.8 128.51,437.29 128.94,437.79C129.52,437.28 130.47,436.84 130.6,436.23C131,434.43 131.08,432.55 131.27,430.71C132.33,420.55 135.83,411.56 143.73,404.66ZM104.14,458.95L134.86,458.95C126.6,451.08 126.6,451.08 123.15,440.67C120.78,440.93 118.47,441.12 116.19,441.49C115.75,441.57 115.23,442.28 115.08,442.8C113.98,446.53 112.2,449.88 109.65,452.81C107.69,455.07 105.67,457.26 104.14,458.95ZM133.32,357.07L133.32,333.78C133.24,333.76 133.15,333.75 133.06,333.73C128.75,341.88 124.44,350.03 120.05,358.32C124.58,357.89 128.9,357.49 133.32,357.07ZM132.24,375.04L132.24,362.97C105.2,364.76 78.24,366.55 51.29,368.35L51.29,378.99C78.28,377.67 105.17,376.36 132.24,375.04ZM115.17,435.35C117.33,417.82 119.48,400.29 121.63,382.77C117.74,381.87 116.9,382.43 116.38,386.09C116.34,386.32 116.29,386.55 116.25,386.77C114.2,399.43 112.13,412.08 110.09,424.73C109.73,426.95 109.43,429.18 109.12,431.35C106.15,431.73 103.37,432.09 100.33,432.48C100.63,430.56 100.79,428.83 101.16,427.15C103.96,414.73 106.81,402.32 109.6,389.89C110.15,387.45 110.52,384.97 110.98,382.46C106.66,382.26 106.45,382.36 105.72,385.2C102.05,399.44 98.41,413.68 94.71,427.91C94.25,429.69 93.53,431.41 92.87,433.13C92.78,433.38 92.39,433.65 92.11,433.68C89.65,433.98 87.19,434.24 84.22,434.56C88.74,416.83 95.81,400.29 100.56,382.71C99.09,382.85 97.9,383.08 96.71,383.05C95.5,383.02 95.03,383.51 94.64,384.61C90.76,395.4 86.82,406.17 82.9,416.94C80.65,423.12 78.41,429.31 76.07,435.77C73.62,436.04 70.82,436.35 67.66,436.69C68.02,435.44 68.21,434.42 68.6,433.5C74.32,419.94 80.07,406.41 85.79,392.85C86.97,390.04 88.05,387.19 89.26,384.12C87.72,384.12 86.5,384 85.33,384.17C84.73,384.26 83.93,384.73 83.69,385.25C76.89,399.84 70.16,414.47 63.39,429.08C62.41,431.21 61.27,433.26 60.18,435.38C59.32,434.92 58.77,434.62 58.21,434.33C55.21,432.74 55.21,432.74 56.5,429.55C56.74,428.96 57,428.38 57.28,427.8C63.87,414.38 70.47,400.97 77.06,387.55C77.51,386.64 77.97,385.73 78.44,384.78C74.98,384.07 74.68,384.11 73.24,386.82C69.22,394.41 65.28,402.03 61.32,409.64C57.96,416.09 54.6,422.54 51.22,429.03C50.52,428.6 49.79,428.13 49.03,427.7C47.21,426.67 47.04,426.25 47.96,424.39C49.72,420.87 51.46,417.33 53.31,413.85C57.9,405.26 62.56,396.7 67.16,388.11C67.69,387.12 68.04,386.04 68.62,384.65C66.8,385.23 65.2,384.08 63.97,386.11C56.06,399.21 49.88,413.3 41.26,426C40.42,427.24 40.47,428.17 41.91,429.16C47.12,432.75 52.2,436.53 57.38,440.16C59.01,441.31 60.62,442.69 62.88,442.44C66.69,442.01 70.51,441.69 74.3,441.14C81.65,440.09 88.98,438.85 96.33,437.79C102.53,436.91 108.75,436.18 115.17,435.35ZM112.91,282.12C112.91,278.87 113.16,275.6 112.87,272.37C111.96,262.36 108.46,253.3 102.14,245.42C98.88,241.36 94.88,238.23 89.69,237.08C83.89,235.79 78.51,237.2 73.61,240.37C67.18,244.53 62.59,250.35 59.52,257.27C52.69,272.64 51.12,288.62 54.71,305.07C56.43,312.97 59.51,320.21 65.15,326.18C73.7,335.25 86.91,335.7 96.02,327.27C99.99,323.59 103.2,319.36 105.59,314.53C110.65,304.32 113.09,293.5 112.91,282.12ZM92.68,166.35C92.8,164.11 92.74,161.87 92.74,159.34C89.67,159.87 86.78,160.35 83.92,160.9C83.6,160.97 83.14,161.47 83.13,161.79C83.07,163.95 83.1,166.12 83.1,168.36C86,168.05 88.75,167.8 91.49,167.41C91.95,167.35 92.66,166.74 92.68,166.35ZM92.72,231.3L92.72,177.32C90.63,177.56 88.67,177.78 86.44,178.03L86.44,180.43C86.45,188.16 86.46,195.89 86.47,203.62C86.48,212.16 86.48,220.71 86.53,229.25C86.54,229.82 86.9,230.84 87.2,230.89C89,231.15 90.84,231.18 92.72,231.3Z" style="fill-rule:nonzero;"/>
            <path d="M354.87,136.49C354.94,137.04 354.62,137.75 354.26,138.25C348.85,145.78 343.55,153.41 337.88,160.76C335.16,164.28 331.39,166.73 326.86,167.6C325.96,167.78 325.02,167.65 324.1,167.73C323.21,167.81 322.32,167.97 320.94,168.16C322.66,169.79 322.04,171.04 321.42,172.31C317.85,179.59 314.42,186.94 310.71,194.14C307.93,199.51 303.42,203.47 298.75,207.12C294.91,210.11 290.24,211.2 285.44,210.86C280.02,210.47 274.62,209.64 269.21,209.01C268.09,208.88 267.64,208.32 267.7,207.16C268,201.39 269.72,196.01 272.21,190.86C273.34,188.52 274.59,186.25 275.84,183.86C278.99,185.4 282.04,186.89 285.07,188.37C284.84,190.51 284.61,192.62 284.38,194.74C284.48,194.78 284.58,194.82 284.69,194.85C284.85,194.62 285.1,194.42 285.18,194.16C287.13,187.62 291.55,182.82 296.33,178.25C301.47,173.34 306.27,168.15 309.69,161.83C309.97,161.32 310.56,160.98 311.14,160.43C310.44,158.13 309.46,155.7 309,153.17C308.08,148.09 308.4,143.01 309.83,138.02C310.69,135.05 310.64,132.08 309.76,129.1C309.37,127.77 309.08,126.4 308.84,125.03C308.55,123.37 309.14,122.78 310.83,122.91C313.26,123.1 315,125.22 315.58,128.39C316.11,131.21 315.74,133.94 315.05,136.65C314.77,137.78 315.04,138.52 315.85,139.41C319.98,143.96 322.27,149.26 321.97,155.52C321.93,156.39 321.96,157.26 321.96,158.38C323.69,156.47 324.44,154.38 324.66,151.99C325.1,147.21 322.82,143.35 320.47,139.54C319.89,138.59 319.8,138 320.55,137.14C321.87,135.62 323.19,134.09 324.5,132.57L326.2,134.04C326.89,134.85 327.51,135.73 328.27,136.45C331.69,139.65 335.16,142.81 338.6,145.99C338.89,146.25 339.2,146.5 339.5,146.75L339.49,146.76C339.58,147.19 339.66,147.62 339.75,148.05C344.68,145.09 348.33,141.2 351.3,136.62C351.58,136.18 351.81,135.64 352.22,135.37C352.68,135.08 353.44,134.78 353.82,134.97C354.32,135.22 354.8,135.93 354.87,136.49Z" style="fill:rgb(234,194,136);fill-rule:nonzero;"/>
            <path d="M353.27,126.75C353.13,127.19 353.06,127.72 352.81,128.14C349.67,133.59 347.19,139.48 342.51,143.94C341.53,144.88 340.51,145.81 339.51,146.75C338.49,145.02 337.49,143.28 336.46,141.52C341.35,137.55 345.2,132.74 348.7,127.6C350.37,125.15 350.47,125.18 353.27,126.75Z" style="fill:rgb(234,194,136);fill-rule:nonzero;"/>
            <path d="M349.76,120.36C349.82,120.86 349.45,121.45 349.17,121.95C345.56,128.48 341.54,134.7 335.88,139.69C335.71,139.84 335.52,139.96 335.22,140.2C334.19,139.08 333.19,137.99 332.51,137.24C336.88,131.33 341.07,125.66 345.27,120C345.65,119.48 346,118.79 346.52,118.58C347.25,118.28 348.27,118.04 348.9,118.34C349.4,118.58 349.67,119.63 349.76,120.36Z" style="fill:rgb(234,194,136);fill-rule:nonzero;"/>
            <path d="M342.11,117.01C342.34,117.46 342.45,118.26 342.21,118.61C338.23,124.09 335.44,130.42 330.43,135.17C330.35,135.25 330.24,135.29 330.06,135.4C328.94,134.83 327.77,134.24 326.6,133.64C326.47,133.77 326.34,133.91 326.2,134.04L324.5,132.57C328.91,127.45 333.3,122.32 337.74,117.23C339.2,115.54 341.34,115.48 342.11,117.01Z" style="fill:rgb(234,194,136);fill-rule:nonzero;"/>
            <path d="M339.51,146.75C339.51,146.76 339.52,146.76 339.52,146.77C339.51,146.76 339.51,146.76 339.5,146.75L339.51,146.75Z" style="fill-rule:nonzero;"/>
            <path d="M309.72,336.57C310.33,337.76 310.18,338.41 308.76,338.87C302.19,340.98 295.72,343.44 289.07,345.25C285.89,346.11 282.4,345.89 279.05,346.03C274.46,346.22 269.87,346.24 265.29,346.43C264.05,346.48 263.47,346.18 263.06,344.9C261.77,340.89 262.94,336.99 263.17,332.72C265.53,334.43 267.89,334.77 270.3,333.83C271.61,333.32 272.91,332.6 273.98,331.69C275.56,330.33 276.91,328.72 278.39,327.24C279.05,326.59 279.74,325.95 280.48,325.4C283.19,323.39 283.89,323.56 285.72,326.66C282.33,328.44 279.82,330.85 280.78,335.29C281.52,334.19 282.28,333.1 282.98,331.98C284.12,330.16 285.94,329.31 287.86,329.48C289.21,329.6 290.48,330.74 291.83,331.46C290.72,332.38 289.54,333.08 288.79,334.1C288.08,335.05 287.83,336.35 287.38,337.5C287.56,337.61 287.73,337.72 287.91,337.83C288.35,337.44 288.84,337.08 289.23,336.65C290.78,334.93 292.71,334 295,333.74C297.64,333.45 300.28,332.94 302.93,332.87C305.8,332.79 308.28,333.8 309.72,336.57Z" style="fill:rgb(10,186,239);fill-rule:nonzero;"/>
            <path d="M288.21,309.24C288.27,309.63 288.31,310.02 288.33,310.23C278,311.67 268.67,315.22 260.18,321.78C259.82,319.37 259.47,317 259.1,314.64C257.76,305.86 256.4,297.09 255.1,288.31C254.97,287.38 254.98,286.3 255.32,285.45C256.83,281.68 258.53,278 260.05,274.24C260.84,272.28 261.41,270.23 261.78,268.1C258.53,272.7 255.57,277.42 253.95,282.94C252.57,280.99 252.55,280.44 253.3,270.12C251.51,272.47 250.77,274.97 250.35,277.61C250.33,277.72 250.31,277.84 250.33,277.95C250.8,281.1 249.06,282.37 246.33,283.37C241.27,285.23 236.07,285.68 230.78,285.87C229.46,285.92 229.44,285.11 229.41,284.19C229.29,279.98 228.66,275.88 226.87,272.02C224.53,267 220.81,263.45 215.69,261.35C215.48,261.26 215.27,261.17 215.07,261.05C214.98,260.99 214.91,260.88 214.84,260.8C220.25,258.77 225.69,256.81 231.06,254.69C236.75,252.45 242.58,250.71 248.65,250.06C255.34,249.34 262.06,248.57 268.8,249.5C273.63,250.16 278.18,251.76 280.59,256.26C282.1,259.09 283.03,262.44 283.4,265.65C284.57,275.97 285.29,286.34 286.34,296.68C286.76,300.89 287.58,305.06 288.21,309.24Z" style="fill:rgb(80,127,140);fill-rule:nonzero;"/>
            <path d="M278.39,349.47C278.4,349.48 278.42,349.49 278.43,349.51L278.35,349.51C278.37,349.5 278.38,349.48 278.39,349.47Z" style="fill-rule:nonzero;"/>
            <path d="M271.16,82.25C277.48,85.66 279.44,89.85 277.87,97.34C277.44,99.44 276.48,101.39 273.75,101.55C272.46,101.63 272.14,103.31 273.13,104.51C275.91,107.91 276.21,111.78 275.29,115.86C274.8,118.05 273.26,119.46 271.52,120.68C269.01,122.44 268.99,122.43 269.7,125.28C270.64,129.13 269.73,132.47 266.91,135.59C266.72,134.93 266.58,134.42 266.44,133.9C265.93,132.07 265.79,130.02 264.85,128.44C263.73,126.53 263.38,124.65 263.46,122.73C263.53,121.41 263.8,120.08 264.16,118.72C265.86,112.32 265.9,105.85 264.24,99.45C263.62,97.02 262.37,94.75 261.35,92.25C263.75,91.66 265.29,90.11 265.37,86.91C260.78,90.52 256.86,88.24 252.91,85.88C252.61,79.88 251.06,77.11 247.61,76.29C248.32,78.69 249.24,81.07 249.7,83.54C250.86,89.72 243.72,92.88 239.57,91.33C238.44,90.91 237.3,90.41 236.31,89.72C235.78,89.36 235.31,88.98 234.97,88.53C234.46,87.85 234.24,87.02 234.57,85.83C235.07,84.06 234.78,82.16 233.18,80.34C232.91,81.12 232.69,81.66 232.52,82.21C231.5,85.64 230.15,88.63 226.28,89.93C222.61,91.17 219.48,90.11 217.98,86.56C217.66,85.77 217.32,84.99 216.55,84.2C216.29,85.33 216.04,86.46 215.77,87.58C214.92,91.25 212.17,93.7 209.13,93.15C207.48,92.86 205.94,91.95 204.17,91.25C204.31,92.35 204.34,93.6 204.63,94.79C204.82,95.6 204.93,96.43 204.94,97.27C204.99,101.32 202.92,105.43 198.97,107.2C197.8,107.72 196.78,108.55 195.65,109.26C199.87,114.33 196.19,121.29 190.89,123.31C187.79,124.48 184.83,124.72 181.83,123.2C181.11,122.84 180.37,122.54 179.32,122.53C180.38,123.81 181.45,125.09 182.6,126.48C181.55,127.02 180.43,127.51 179.38,128.1C177.06,129.38 175.07,131.1 174.86,134.64C175.53,134.26 176.05,133.97 176.72,133.6C177.49,137.68 178.38,141.67 181.16,144.8C184.04,148.03 187.68,149.31 191.88,148.46C193.04,151.15 194.2,153.77 195.29,156.42C195.96,158.06 194.77,159.04 193.66,159.66C187.68,163.04 179.47,162.18 176.42,154.86C176.24,154.44 176,154.05 175.78,153.63C175.04,153.76 174.37,153.91 173.69,153.98C166.12,154.79 163.41,149.2 164.36,143.57C164.64,141.92 164.26,141.01 162.75,140.27C156.53,137.2 154.49,130.05 158.95,125.26C160.98,123.07 160.99,121.8 160.16,119.16C158.81,114.86 160.16,110.78 163.56,107.63C164.61,106.65 165.86,105.87 167.07,105.08C168.54,104.13 169.01,102.96 168.54,101.23C167.55,97.64 167.67,94.07 169.53,90.77C170.99,88.19 173.22,86.31 175.89,85.01C176.49,84.71 177.21,84.55 177.89,84.52C179.96,84.45 179.86,84.52 179.36,82.4C178.59,79.11 179.85,76.24 181.96,73.92C185.16,70.39 189.16,68.12 194.06,67.74C195.29,67.64 196.51,66.94 197.51,68.56C197.93,69.23 199.03,68.71 199.38,67.78C199.69,66.97 199.87,66.11 200.2,65.31C201.93,61.11 205.41,58.81 209.44,57.4C214.48,55.63 219.65,54.79 224.93,56.68C225.47,56.88 226.25,56.61 226.85,56.37C233.75,53.69 240.61,53.2 247.32,56.9C249.69,58.2 251.69,59.93 252.59,62.66C253.1,64.2 253.79,64.85 255.79,64.13C259.54,62.77 265.78,65.25 268.39,68.73C271.04,72.26 272.39,76.05 270.32,80.4C269.9,81.27 270.21,81.74 271.16,82.25Z" style="fill:rgb(204,202,154);fill-rule:nonzero;"/>
            <path d="M264.24,99.45C265.9,105.85 265.86,112.32 264.16,118.72C263.8,120.08 263.53,121.41 263.46,122.73L260.7,122.56C260.86,120.25 261.05,117.93 261.39,115.64C262.41,108.88 261.95,102.31 258.96,96.1C257.84,93.78 256.55,91.42 253.68,90.65C253.04,90.48 252.5,89.94 251.85,89.54C249.95,93.3 246.75,95.08 242.63,95.31C238.38,95.54 235.22,93.54 232.81,90.23L234.97,88.53C235.31,88.98 235.78,89.36 236.31,89.72C237.3,90.41 238.44,90.91 239.57,91.33C243.72,92.88 250.86,89.72 249.7,83.54C249.24,81.07 248.32,78.69 247.61,76.29C251.06,77.11 252.61,79.88 252.91,85.88C256.86,88.24 260.78,90.52 265.37,86.91C265.29,90.11 263.75,91.66 261.35,92.25C262.37,94.75 263.62,97.02 264.24,99.45Z" style="fill-rule:nonzero;"/>
            <path d="M273.03,182.48C266.95,191.22 263.61,200.86 264.02,211.9C263.05,211.65 262.02,211.38 260.99,211.09C257.05,209.95 253.13,208.72 249.15,207.72C248.02,207.43 247.82,207.06 247.84,206.01C247.9,202.7 247.98,199.37 247.76,196.07C247.64,194.32 246.93,192.6 246.49,190.86C246.16,190.89 245.83,190.92 245.51,190.95C244.91,197.17 244.26,203.39 243.72,209.62C243.23,215.27 242.05,220.75 239.82,225.96C237.83,230.62 234.15,233.81 230.03,236.56C229.33,237.02 228.77,237.69 228.15,238.26C228.26,238.41 228.36,238.57 228.47,238.73C229.65,238.35 230.83,237.98 231.87,237.64C232.63,241.6 233.37,245.49 234.16,249.69C226.46,252.57 218.56,255.51 210.68,258.45C209.66,256.09 208.77,253.99 207.84,251.9C207.1,250.24 205.84,249.15 204.17,248.37C201.36,247.04 198.73,245.22 195.81,244.21C193.01,243.25 189.96,242.9 186.98,242.56C184.34,242.25 181.65,242.35 178.98,242.23C176.79,242.14 174.92,241.24 173.42,239.67C170.98,237.11 168.56,234.51 166.24,231.83C165.84,231.36 165.76,230.37 165.91,229.7C166.68,226.26 167.63,222.87 168.37,219.43C168.71,217.84 169.3,216.67 170.82,215.89C176.14,213.18 180.27,209.22 182.87,203.78C184.12,201.17 184.88,198.45 185.02,195.48C182.05,199.59 179.39,203.78 176.21,207.54C172.96,211.38 168.31,213.5 164.01,216.18C162.62,204.78 154.51,199.13 145.83,193.66C157.86,182.37 170.44,171.79 186.8,166.95C188.39,170.19 189.91,173.49 191.6,176.71C197.1,187.13 205.84,193.18 217.32,195.22C227.36,197 235.2,188.27 232.53,178.48C232.49,178.32 232.48,178.15 232.45,177.95C234.16,177.59 235.9,177.43 237.48,176.84C239.53,176.08 241.45,174.96 243.44,174.04C243.92,173.81 244.55,173.55 245,173.67C249.74,174.98 254.49,176.28 259.18,177.76C263.81,179.21 268.36,180.88 273.03,182.48Z" style="fill:rgb(10,186,239);fill-rule:nonzero;"/>
            <path d="M258.96,96.1C261.95,102.31 262.41,108.88 261.39,115.64C261.05,117.93 260.86,120.25 260.7,122.56C260.65,123.3 260.6,124.05 260.55,124.79C260.49,125.57 260.69,126.43 261.01,127.16C264.94,136.15 263.23,144.62 258.15,152.45C253.77,159.22 247.96,164.8 241.55,169.7C236.12,173.85 230.27,174.52 223.82,172.18C218.7,170.32 214.16,167.5 209.55,164.69C202.88,160.62 198.41,154.82 195.4,147.76C195.2,147.28 195.33,146.66 195.29,145.81C194.37,145.01 193.31,144.71 191.81,145.15C188.23,146.2 184.96,144.82 182.99,141.64C181.38,139.05 180.25,136.25 180.22,133.15C180.2,131.34 180.83,130.09 181.93,129.49C182.82,129 184.03,128.94 185.45,129.36C187.51,129.96 188.97,131.32 190.18,133C191.07,134.24 191.91,135.52 192.77,136.78C192.95,136.74 193.13,136.69 193.31,136.65C193.06,135.11 192.88,133.56 192.54,132.05C192.38,131.33 191.92,130.68 191.62,129.99C191.04,128.64 191.17,127.73 192.73,126.97C196.52,125.13 199.62,122.46 200.29,118.05C200.65,115.68 200.36,113.22 200.36,110.68C206.34,108.39 208.44,103.65 207.85,97.18C211.59,97.07 215.07,96.24 217.27,93.05C223.01,94.83 227.98,93.3 232.81,90.23C235.22,93.54 238.38,95.54 242.63,95.31C246.75,95.08 249.95,93.3 251.85,89.54C252.5,89.94 253.04,90.48 253.68,90.65C256.55,91.42 257.84,93.78 258.96,96.1Z" style="fill:rgb(234,194,136);fill-rule:nonzero;"/>
            <path d="M243.51,364.58C243.98,365.42 244.05,366.58 244.04,367.59C244.01,369.11 243.38,370.02 241.57,370.23C235.94,370.9 230.26,371.41 224.8,369.79C219.95,368.35 215.3,366.22 210.64,364.21C208.26,363.18 206.08,361.69 203.76,360.5C202.87,360.03 202.6,359.47 202.58,358.45C202.51,354.8 203.16,351.31 204.69,347.99C204.83,347.68 204.99,347.37 205.16,347.06C205.24,346.91 205.37,346.79 205.55,346.54C205.79,346.85 205.98,347.04 206.1,347.27C207.91,350.83 209.82,351.75 213.58,350.51C215.31,349.93 216.88,348.85 218.55,348.07C220.84,346.99 223.16,345.97 225.47,344.94C226.41,344.53 226.98,344.78 227.29,345.82C227.63,346.99 228.11,348.11 228.61,349.48C224.47,350.68 221.62,353.25 220.18,357.8C221.49,356.69 222.38,355.65 223.51,355.05C225.42,354.03 227.41,352.93 229.49,352.58C230.78,352.36 232.3,353.47 233.73,354.32C228.71,354.75 225.05,357.06 222.52,361.14C222.59,361.28 222.67,361.43 222.74,361.58C223.72,361.1 224.73,360.67 225.67,360.11C228.15,358.65 230.67,357.6 233.69,357.84C238.32,358.22 241.37,360.74 243.51,364.58Z" style="fill:rgb(10,186,239);fill-rule:nonzero;"/>
            <path d="M234.97,88.53L232.81,90.23C227.98,93.3 223.01,94.83 217.27,93.05C215.07,96.24 211.59,97.07 207.85,97.18L204.94,97.27C204.93,96.43 204.82,95.6 204.63,94.79C204.34,93.6 204.31,92.35 204.17,91.25C205.94,91.95 207.48,92.86 209.13,93.15C212.17,93.7 214.92,91.25 215.77,87.58C216.04,86.46 216.29,85.33 216.55,84.2C217.32,84.99 217.66,85.77 217.98,86.56C219.48,90.11 222.61,91.17 226.28,89.93C230.15,88.63 231.5,85.64 232.52,82.21C232.69,81.66 232.91,81.12 233.18,80.34C234.78,82.16 235.07,84.06 234.57,85.83C234.24,87.02 234.46,87.85 234.97,88.53Z" style="fill-rule:nonzero;"/>
            <path d="M230.92,328.72C231,329.26 230.93,330.07 230.58,330.39C225.3,335.3 219.28,338.67 211.83,338.01C208.11,337.69 204.45,336.6 200.79,335.74C200.33,335.63 199.76,334.82 199.7,334.28C199.35,331.11 199.25,327.91 198.84,324.75C197.91,317.51 197.02,310.25 195.75,303.06C195.1,299.42 195.33,296.09 196.8,292.74C197.52,291.11 198.06,289.37 198.48,287.63C198.71,286.7 198.52,285.67 198.52,284.68C198.33,284.63 198.13,284.57 197.93,284.51C196.65,287.05 195.38,289.58 194.1,292.12C193.97,292.12 193.83,292.13 193.7,292.13C193.16,288.33 192.61,284.52 192.07,280.72C190.44,283.49 190.53,286.45 190.98,289.58C185.06,288.56 179.33,287.28 173.87,285.02C168.75,282.89 164.06,280.09 159.85,276.4C153.77,271.05 152.53,264.35 153.86,256.81C154.12,255.34 154.49,253.88 154.93,251.88C158.16,254.49 161.51,256.53 163.97,259.35C167.93,263.88 172.35,265.98 178.27,264.31C178.38,264.28 178.53,264.14 178.58,264.18C180.72,265.74 183.17,264.56 185.45,264.91C188.23,265.34 190.46,266.66 192.55,268.35C193.76,269.32 194.76,269.41 196.15,268.57C197.16,267.95 198.57,267.55 199.71,267.7C202.37,268.04 203.85,266.71 205.03,264.68C205.68,263.57 208,262.55 209.24,262.86C219.07,265.33 224.6,271.81 225.55,282.08C226.3,290.16 226.8,298.28 227.72,306.34C228.58,313.83 229.87,321.26 230.92,328.72Z" style="fill:rgb(80,127,140);fill-rule:nonzero;"/>
            <path d="M229.32,179C231.35,189.72 223.11,193.8 215.28,191.79C206.04,189.42 199.07,183.96 194.54,175.54C193.84,174.25 193.65,172.68 193.25,171.24C192.67,169.13 192.12,167.01 191.62,165.13C193.78,163.64 196,162.12 198.33,160.52C205.96,167.49 214.86,173.07 224.96,176.41C223.91,179.18 222.87,181.95 221.82,184.71C222.03,184.84 222.25,184.97 222.46,185.09C222.85,184.68 223.31,184.31 223.62,183.85C224.84,182.08 225.98,180.27 227.21,178.5C227.53,178.03 228.03,177.68 228.46,177.28C228.75,177.85 229.2,178.39 229.32,179Z" style="fill:rgb(234,194,136);fill-rule:nonzero;"/>
            <path d="M207.85,97.18C208.44,103.65 206.34,108.39 200.36,110.68C200.36,113.22 200.65,115.68 200.29,118.05C199.62,122.46 196.52,125.13 192.73,126.97C191.17,127.73 191.04,128.64 191.62,129.99C191.92,130.68 192.38,131.33 192.54,132.05C192.88,133.56 193.06,135.11 193.31,136.65C193.13,136.69 192.95,136.74 192.77,136.78C191.91,135.52 191.07,134.24 190.18,133C188.97,131.32 187.51,129.96 185.45,129.36C184.03,128.94 182.82,129 181.93,129.49L179.38,128.1C180.43,127.51 181.55,127.02 182.6,126.48C181.45,125.09 180.38,123.81 179.32,122.53C180.37,122.54 181.11,122.84 181.83,123.2C184.83,124.72 187.79,124.48 190.89,123.31C196.19,121.29 199.87,114.33 195.65,109.26C196.78,108.55 197.8,107.72 198.97,107.2C202.92,105.43 204.99,101.32 204.94,97.27L207.85,97.18Z" style="fill-rule:nonzero;"/>
            <path d="M206.84,259C206.96,259.62 206.61,260.34 206.11,261.12C204,254.66 199.47,251.35 193.19,250.02C192.87,250.58 192.54,251.15 192.16,251.79C194.11,252.83 196.08,253.89 198.05,254.95C201.01,256.53 202.19,259.23 202.6,262.35C202.8,263.91 202.09,264.62 199.83,265.26C198.75,258.59 193.37,256.34 188.5,253.76C187.87,254.53 187.32,255.21 186.6,256.09C187.74,256.75 188.93,257.51 190.19,258.15C192.71,259.44 195.13,260.83 196.09,263.71C196.27,264.23 196.21,265.26 195.91,265.42C195.4,265.69 194.62,265.52 193.97,265.42C193.67,265.36 193.4,265.03 193.14,264.8C189.33,261.45 185,259.76 179.86,260.53C178.83,260.69 177.74,260.53 176.74,260.76C172.79,261.62 169.76,260.2 167.08,257.36C165.54,255.74 163.8,254.24 161.95,252.98C152.65,246.69 143.6,240.1 135.39,232.42C133.24,230.41 131.19,228.22 129.47,225.84C127.44,223.04 126.84,219.85 129.04,216.77C131.6,213.18 134.24,209.65 136.92,206.16C139.24,203.12 141.68,200.16 144.13,197.08C150.76,199.86 155.48,204.65 158.77,210.98C159.44,212.27 159.31,213.32 158.3,214.43C157.02,215.84 155.92,217.41 154.8,218.84C151.77,216.93 148.91,215.13 146.05,213.33C145.95,213.47 145.84,213.61 145.73,213.75C146.94,214.9 148.24,215.97 149.33,217.23C152.84,221.25 156.2,225.41 159.73,229.4C163.99,234.23 168.24,239.08 172.79,243.62C174.03,244.85 176.31,245.36 178.19,245.59C182.22,246.07 186.3,246.08 190.35,246.45C191.87,246.6 193.38,247.1 194.82,247.65C197.15,248.53 199.38,249.66 201.71,250.55C203.77,251.34 205.08,252.69 205.63,254.84C205.98,256.24 206.55,257.59 206.84,259Z" style="fill:rgb(234,194,136);fill-rule:nonzero;"/>
        </g>
    </g>
    <path d="M189.39,238.76C203.85,237.05 206.08,236.56 214.77,232.81C214.86,232.95 214.95,233.09 215.05,233.23C213.5,234.25 212.05,235.47 210.39,236.25C206.21,238.21 201.61,238.22 197.12,238.67C195.11,238.87 193.07,238.88 191.04,238.93C190.49,238.94 189.94,238.82 189.39,238.76Z" style="fill-rule:nonzero;"/>
    <path d="M237.91,135.03C241.06,138.6 244.36,138.79 247.73,135.75C249.46,134.2 249.53,131.85 247.82,130.28C245.75,128.38 243.92,126.32 242.86,123.67C242.06,121.66 242.24,119.66 242.77,117.62C243.66,122.91 246.39,126.93 250.64,130.05C252.26,131.24 251.79,135.26 249.94,137.17C247.48,139.7 244.39,140.18 241.11,139.57C239.03,139.17 237.92,137.46 237.91,135.03Z" style="fill-rule:nonzero;"/>
    <path d="M214.86,110.89C215.96,104.35 219.17,100.19 226.68,100.47C227.16,101.53 227.83,103.01 228.59,104.69C223.14,104.83 218.81,107.39 214.86,110.89Z" style="fill-rule:nonzero;"/>
    <path d="M259.98,108.41C257.33,107.27 254.68,106.13 251.71,104.85C251.89,104.04 252.1,102.82 252.45,101.64C252.54,101.34 253.08,101.02 253.43,100.99C255.75,100.79 257.58,101.97 258.5,104.09C259.08,105.44 259.76,106.75 260.4,108.08C260.26,108.19 260.12,108.3 259.98,108.41Z" style="fill-rule:nonzero;"/>
    <path d="M183.34,133.28C185.13,132.17 186.64,132.42 187.91,133.77C189.25,135.2 189.29,136.83 187.63,139.13C188.35,135.32 186.53,133.78 183.34,133.28Z" style="fill-rule:nonzero;"/>
    <path d="M64.29,288.82C65.02,285.21 65.52,281.53 66.55,278C67.68,274.14 70.34,271.13 73.74,269.14C78.68,266.25 84.59,267.94 88.14,272.89C91.31,277.32 92.08,282.36 91.61,287.63C91.03,294.13 88.67,299.77 83.34,303.86C78.16,307.83 72.93,307.28 68.83,302.25C65.68,298.38 64.52,293.86 64.77,288.92C64.6,288.88 64.44,288.85 64.29,288.82ZM83.95,284.61C84.16,281.07 83.3,277.51 80.75,274.42C79.62,273.05 78.39,272.67 76.77,273.34C74.31,274.36 72.6,276.2 71.83,278.65C71,281.28 70.39,284.03 70.09,286.77C69.72,290.13 69.95,293.55 71.73,296.56C74.29,300.9 77.92,300.9 80.59,296.98C83.06,293.33 84.01,289.3 83.95,284.61Z" style="fill-rule:nonzero;"/>
    <path d="M97.56,298.53C98.03,296.53 98.59,294.54 98.95,292.52C99.95,286.84 99.75,281.1 98.37,275.57C97.01,270.12 95.21,264.7 91.34,260.33C88.09,256.66 84.24,254.18 79.12,254.33C75.69,254.44 72.94,256.19 70.33,258.15C65.63,261.69 62.91,266.6 61.36,272.11C60.11,276.54 59.32,281.1 58.15,285.64C58.49,282.07 58.56,278.44 59.24,274.93C60.63,267.81 63.55,261.37 68.7,256.08C71.7,253 75.52,251.16 79.62,250.83C85.6,250.34 90.46,253.1 93.86,258.01C99.55,266.22 102.09,275.38 101.11,285.35C100.74,289.12 99.71,292.83 98.9,296.55C98.74,297.29 98.19,297.95 97.82,298.65C97.74,298.61 97.65,298.57 97.56,298.53Z" style="fill-rule:nonzero;"/>
    <path d="M140.98,431.84C140.89,426.77 142.15,422.11 144.92,417.83C149.46,410.82 157.79,410.5 162.67,417.24C163.58,418.5 164.45,419.85 165.01,421.29C168.24,429.61 168.56,437.9 164.16,445.94C162.68,448.65 160.87,451.22 157.83,452.41C153.39,454.14 148.91,452.49 145.75,448.05C142.31,443.21 141.01,437.7 140.98,431.84ZM159.36,433.04C158.57,431.08 158,429.07 157,427.31C155.59,424.84 153.59,424.83 151.75,427.06C149.68,429.57 149.67,436.1 151.74,438.58C153.4,440.57 155.92,440.59 157.26,438.36C158.18,436.82 158.61,434.98 159.36,433.04Z" style="fill-rule:nonzero;"/>
    <circle cx="223" cy="117.5" r="3"/>
    <circle cx="253" cy="117.5" r="3"/>
    <ellipse cx="235.5" cy="153" rx="8.5" ry="5.5" style="fill:white;"/>
    <path d="M222.95,145.35C224.31,144.2 225.35,143.32 226.62,142.25C222.03,142.43 218.48,143.59 216.87,148.12C217.82,147.95 218.65,147.7 219.48,147.71C219.9,147.72 220.55,148.12 220.69,148.5C222.31,152.94 225.57,156.1 228.91,159.18C230.83,160.94 233.21,161.98 235.82,161.78C241.03,161.38 246.09,156.68 246.8,151.44C247.02,149.78 247.74,149.26 249.04,148.74C250.86,148.01 252.22,146.71 253.09,144.79C243.27,149.07 233.45,148.97 222.95,145.35ZM237.95,157.86C235.06,158.73 232.35,158.45 230.35,155.88C228.97,154.11 227.73,152.23 226.42,150.4C231.98,151.17 237.2,152.58 242.6,151.33C242.44,154.01 240.28,157.16 237.95,157.86Z" style="fill-rule:nonzero;"/>
</svg>
