<?xml version="1.0" encoding="utf-8"?>
<!-- Generator: Adobe Illustrator 28.0.0, SVG Export Plug-In . SVG Version: 6.00 Build 0)  -->
<svg version="1.1" id="Layer_1" xmlns="http://www.w3.org/2000/svg" xmlns:xlink="http://www.w3.org/1999/xlink" x="0px" y="0px"
	 viewBox="0 0 387 646.5" style="enable-background:new 0 0 387 646.5;" xml:space="preserve">
<style type="text/css">
	.st0{fill:#A0A0A0;}
	.st1{fill:#A3A3A3;}
	.st2{fill:#EAC288;}
	.st3{fill:#0ABAEF;}
	.st4{fill:#507F8C;}
	.st5{fill:#CCCA9A;}
	.st6{fill:#975AED;}
	.st7{fill:#FFFFFF;}
</style>
<g>
	<path class="st0" d="M72.13,505.61c-1.62-0.09-3.3-0.15-5.03-0.2c-1.73-0.04-4-0.06-6.8-0.06c-0.39,17.43-0.69,33.69-0.89,48.78
		c-0.2,15.09-0.3,28.96-0.3,41.62c-1.27,0.48-2.36,0.82-3.28,1.02c-0.92,0.2-1.75,0.3-2.5,0.3c-0.83,0-1.7-0.13-2.6-0.39
		c-0.9-0.26-1.92-0.7-3.05-1.31c0.39-11.87,0.69-23.76,0.89-35.67c0.2-11.91,0.3-23.94,0.3-36.07c0-0.31,0-1.12,0-2.43
		c-0.09-5.52-0.13-10.79-0.13-15.83c-1.18,0.04-3.04,0.09-5.58,0.13c-2.54,0.04-4.49,0.09-5.85,0.13c-0.39-0.79-0.69-1.62-0.89-2.5
		c-0.2-0.87-0.3-1.75-0.3-2.63c0-0.13,0.02-0.36,0.07-0.69c0.04-0.33,0.07-0.56,0.07-0.69c0.74-1.79,2.21-3.06,4.4-3.81
		c2.19-0.74,5.65-1.12,10.38-1.12c3.37,0,6.97,0.27,10.81,0.82c3.83,0.55,7.94,1.39,12.32,2.53v1.58c0,1.45-0.16,2.68-0.49,3.71
		C73.35,503.85,72.83,504.78,72.13,505.61z"/>
	<path class="st0" d="M72.59,595.09c0.22-6,0.38-11.22,0.49-15.67c0.11-4.45,0.16-8.46,0.16-12.06c0-7.93-0.14-15.46-0.43-22.6
		c-0.29-7.14-0.73-14.01-1.35-20.63c1.05-1.14,2.22-2.05,3.51-2.73c1.29-0.68,2.81-1.15,4.57-1.41c1.4,0.96,2.41,2.36,3.02,4.2
		c0.61,1.84,1.01,5.19,1.18,10.05c2.98-2.93,5.51-5.33,7.59-7.19c2.08-1.86,3.8-3.27,5.16-4.24c1.49,0.57,2.66,1.46,3.51,2.66
		c0.85,1.2,1.57,3.05,2.14,5.55c-3.15,1.88-6.2,4.08-9.13,6.6c-2.93,2.52-5.8,5.42-8.61,8.7c-0.13,4.16-0.23,8.37-0.3,12.61
		c-0.07,4.25-0.1,8.56-0.1,12.94c0,2.76,0.04,6.09,0.13,9.99c0.09,3.9,0.22,8.15,0.39,12.74l-2.04,2.56c-0.39,0-0.99-0.02-1.77-0.06
		c-0.79-0.04-1.36-0.07-1.71-0.07c-1.58,0-2.87-0.15-3.88-0.46C74.15,596.3,73.29,595.79,72.59,595.09z"/>
	<path class="st0" d="M109.71,534.91h-0.39c-1.4,0-2.63-0.57-3.68-1.71c-1.05-1.14-1.58-2.37-1.58-3.68c0-0.17,0.07-0.39,0.2-0.66
		s0.37-0.61,0.72-1.05c2.5-1.49,5.08-2.93,7.75-4.34c2.67-1.4,5.39-2.74,8.15-4.01c5.47,1.05,9.26,4.02,11.37,8.9
		c2.1,4.88,3.15,16.48,3.15,34.79c0,6.04-0.15,16.1-0.46,30.15c-0.04,1.45-0.07,2.52-0.07,3.22c-0.92,0.39-1.73,0.68-2.43,0.85
		c-0.7,0.17-1.38,0.26-2.04,0.26c-0.7,0-1.43-0.11-2.2-0.33c-0.77-0.22-1.5-0.53-2.2-0.92l-0.53-3.09
		c-1.84,0.88-3.69,1.57-5.55,2.07c-1.86,0.5-3.47,0.76-4.83,0.76c-3.59,0-6.26-1.78-8.01-5.35c-1.75-3.57-2.63-9.1-2.63-16.59
		c0-8.71,1.39-14.98,4.17-18.79c2.78-3.81,7.33-5.72,13.63-5.72h2.1c-0.04-5.43-0.68-9.9-1.91-13.4c-1.23-3.5-2.69-5.26-4.4-5.26
		c-0.39,0-0.91,0.11-1.54,0.33c-0.63,0.22-1.28,0.5-1.94,0.85L109.71,534.91z M124.89,584.32c0-4.03-0.03-8.1-0.1-12.22
		c-0.07-4.12-0.16-8.3-0.3-12.55c-0.22-0.04-0.46-0.08-0.72-0.1c-0.26-0.02-0.64-0.03-1.12-0.03c-2.59,0-4.53,1.03-5.85,3.09
		c-1.31,2.06-1.97,5.1-1.97,9.13c0,5.43,0.48,8.99,1.45,10.68c0.96,1.69,2.72,2.53,5.26,2.53c0.44,0,1.2-0.11,2.3-0.33
		C124.27,584.43,124.63,584.36,124.89,584.32z"/>
	<path class="st0" d="M146.04,500.49c1.05-0.26,2.09-0.46,3.12-0.59c1.03-0.13,2-0.2,2.92-0.2c0.48,0,1.16,0.09,2.04,0.26
		c0.88,0.18,1.86,0.44,2.96,0.79c0.39,1.23,0.69,2.27,0.89,3.12c0.2,0.85,0.3,1.57,0.3,2.14s-0.1,1.23-0.3,1.97
		c-0.2,0.75-0.54,1.73-1.02,2.96c-1.18,0.35-2.26,0.6-3.22,0.75c-0.96,0.15-1.77,0.23-2.43,0.23c-0.57,0-1.25-0.08-2.04-0.23
		c-0.79-0.15-1.82-0.38-3.09-0.69c-0.35-1.27-0.61-2.37-0.79-3.28c-0.18-0.92-0.26-1.71-0.26-2.36c0-0.44,0.05-0.96,0.16-1.58
		C145.4,503.16,145.65,502.07,146.04,500.49z M146.96,596.28c-0.31-7.8-0.54-14.87-0.69-21.22c-0.15-6.35-0.23-12.37-0.23-18.07
		c0-3.72,0.07-8.19,0.2-13.4c0.13-5.21,0.37-12.64,0.72-22.27c0.83-0.26,1.65-0.46,2.46-0.59c0.81-0.13,1.61-0.2,2.4-0.2
		c0.83,0,1.62,0.04,2.37,0.13c0.74,0.09,1.51,0.22,2.3,0.39c0.26,9.42,0.45,18.35,0.56,26.8c0.11,8.45,0.16,16.67,0.16,24.64
		c0,2.54-0.02,6.34-0.07,11.4c-0.04,5.06-0.09,8.84-0.13,11.33c-0.96,0.66-1.95,1.15-2.96,1.48c-1.01,0.33-2.02,0.49-3.02,0.49
		c-0.53,0-1.08-0.06-1.68-0.2C148.77,596.87,147.97,596.63,146.96,596.28z"/>
	<path class="st0" d="M166.34,526.05c1.18-1.36,2.53-2.41,4.04-3.15c1.51-0.74,3.27-1.2,5.29-1.38l1.18,3.74
		c1.8-0.74,3.64-1.54,5.52-2.4c1.88-0.85,3.81-1.76,5.78-2.73c0.39-0.09,0.8-0.15,1.22-0.2c0.42-0.04,0.91-0.07,1.48-0.07
		c3.28,0,5.67,1.39,7.16,4.17c1.49,2.78,2.23,7.3,2.23,13.57v15.37c0,9.37,0.09,17.42,0.26,24.14c0.17,6.72,0.46,12.56,0.85,17.51
		c-1.1,0.75-2.16,1.29-3.19,1.64c-1.03,0.35-2.14,0.53-3.32,0.53c-1.01,0-2.03-0.14-3.06-0.43c-1.03-0.28-2.11-0.71-3.25-1.28
		c0.26-6.35,0.47-12.55,0.62-18.59c0.15-6.04,0.23-11.96,0.23-17.74v-2.83c0-11.12-0.36-17.95-1.08-20.46
		c-0.72-2.52-2.11-3.78-4.17-3.78c-1.27,0-2.46,0.34-3.58,1.02c-1.12,0.68-2,1.59-2.66,2.73c0.31,5.3,0.53,10.61,0.66,15.93
		c0.13,5.32,0.2,10.74,0.2,16.26c0,3.42-0.02,8.11-0.07,14.09c-0.04,5.98-0.07,10.24-0.07,12.78c-0.66,0.83-1.42,1.42-2.3,1.77
		c-0.88,0.35-2.04,0.53-3.48,0.53c-1.14,0-2.21-0.13-3.22-0.39c-1.01-0.26-2.06-0.7-3.15-1.31c0.48-7.8,0.83-15.44,1.05-22.93
		c0.22-7.49,0.33-14.87,0.33-22.14c0-5.34-0.12-9.84-0.36-13.5C167.25,532.87,166.87,529.38,166.34,526.05z"/>
	<path class="st0" d="M222.78,493.92l1.45,1.18c-0.66,9.99-1.14,19.64-1.45,28.97c-0.31,9.33-0.46,18.33-0.46,27
		c0,7.18,0.14,13.82,0.43,19.91c0.28,6.09,0.73,32.62,1.35,38.19c0.44-0.04,1.09-0.11,1.97-0.2c7.31-0.66,11.21-1.51,11.69-2.56
		l0.46-0.07c0.61,0,1.26,0.13,1.94,0.39c0.68,0.26,1.5,0.72,2.46,1.38c0.66,0.7,1.14,1.46,1.45,2.27c0.31,0.81,0.46,1.72,0.46,2.73
		c0,0.18-0.02,0.42-0.07,0.72c-0.04,0.31-0.07,0.55-0.07,0.72c-2.1,1.27-4.65,2.28-7.65,3.02c-3,0.74-6.82,1.31-11.46,1.71
		c-3.28-0.7-5.87-1.52-7.75-2.46c-1.88-0.94-3.46-2.18-4.73-3.71c-0.53-8.63-0.91-37.67-1.15-45.71
		c-0.24-8.04-0.36-15.95-0.36-23.75c0-8.32,0.17-16.48,0.53-24.47c0.35-7.99,0.9-15.89,1.64-23.68c0.7-0.7,1.46-1.22,2.27-1.54
		c0.81-0.33,1.81-0.49,2.99-0.49c0.66,0,1.31,0.03,1.97,0.1C221.33,493.63,222.03,493.75,222.78,493.92z"/>
	<path class="st0" d="M238.43,534.91h-0.39c-1.4,0-2.63-0.57-3.68-1.71s-1.58-2.37-1.58-3.68c0-0.17,0.07-0.39,0.2-0.66
		c0.13-0.26,0.37-0.61,0.72-1.05c2.5-1.49,5.08-2.93,7.75-4.34c2.67-1.4,5.39-2.74,8.15-4.01c5.47,1.05,9.26,4.02,11.37,8.9
		c2.1,4.88,3.15,16.48,3.15,34.79c0,6.04-0.15,16.1-0.46,30.15c-0.04,1.45-0.06,2.52-0.06,3.22c-0.92,0.39-1.73,0.68-2.43,0.85
		c-0.7,0.17-1.38,0.26-2.04,0.26c-0.7,0-1.43-0.11-2.2-0.33c-0.77-0.22-1.5-0.53-2.2-0.92l-0.53-3.09
		c-1.84,0.88-3.69,1.57-5.55,2.07c-1.86,0.5-3.47,0.76-4.83,0.76c-3.59,0-6.26-1.78-8.01-5.35c-1.75-3.57-2.63-9.1-2.63-16.59
		c0-8.71,1.39-14.98,4.17-18.79c2.78-3.81,7.33-5.72,13.63-5.72h2.1c-0.04-5.43-0.68-9.9-1.91-13.4c-1.23-3.5-2.69-5.26-4.4-5.26
		c-0.39,0-0.91,0.11-1.54,0.33c-0.64,0.22-1.28,0.5-1.94,0.85L238.43,534.91z M253.61,584.32c0-4.03-0.03-8.1-0.1-12.22
		c-0.07-4.12-0.16-8.3-0.3-12.55c-0.22-0.04-0.46-0.08-0.72-0.1c-0.26-0.02-0.64-0.03-1.12-0.03c-2.58,0-4.53,1.03-5.85,3.09
		c-1.31,2.06-1.97,5.1-1.97,9.13c0,5.43,0.48,8.99,1.45,10.68c0.96,1.69,2.71,2.53,5.26,2.53c0.44,0,1.2-0.11,2.3-0.33
		C252.99,584.43,253.34,584.36,253.61,584.32z"/>
	<path class="st0" d="M285.01,596.41c-1.8,0-3.33-0.27-4.6-0.82c-1.27-0.55-2.39-1.39-3.35-2.53c-1.49-3.06-2.58-6.7-3.28-10.91
		c-0.7-4.2-1.05-9.5-1.05-15.9c0-8.5,0.62-16.26,1.87-23.29c1.25-7.03,3.01-12.76,5.29-17.18c0.7-1.53,2-2.79,3.91-3.78
		c1.91-0.99,3.91-1.48,6.01-1.48c0.88,0,1.83,0.09,2.86,0.26c1.03,0.18,2.09,0.44,3.19,0.79l-0.26-23.39
		c1.18-1.23,2.4-2.11,3.65-2.66c1.25-0.55,2.68-0.82,4.3-0.82c0.26,0,0.63,0.03,1.12,0.1c0.48,0.07,1.45,0.25,2.89,0.56
		c-0.39,12.26-0.69,25.52-0.89,39.78c-0.2,14.26-0.3,29.53-0.3,45.82v14.13l-4.01,2.23h-0.99c-1.1,0-2.12-0.11-3.09-0.33
		c-0.96-0.22-1.91-0.57-2.83-1.05c-0.13-0.53-0.25-1.13-0.36-1.81s-0.21-1.65-0.29-2.92c-1.27,1.18-2.7,2.2-4.3,3.06
		C288.9,595.13,287.07,595.84,285.01,596.41z M284.62,583.53c1.4,0.39,2.64,0.69,3.71,0.89c1.07,0.2,1.98,0.3,2.73,0.3
		c0.79,0,1.99-0.31,3.61-0.92l0.13-0.07c0.31-5.56,0.55-12.6,0.72-21.12c0.17-8.52,0.28-19.59,0.33-33.21
		c-0.96-0.22-1.8-0.38-2.5-0.49c-0.7-0.11-1.29-0.16-1.77-0.16c-2.76,0-4.77,2.91-6.04,8.74c-1.27,5.83-1.9,15.11-1.9,27.86
		c0,3.28,0.08,6.42,0.23,9.39C284.01,577.71,284.27,580.64,284.62,583.53z"/>
	<path class="st0" d="M323.71,592.93c-1.4-11.96-3.08-23.61-5.03-34.95c-1.95-11.34-4.17-22.38-6.67-33.11
		c1.09-0.88,2.18-1.5,3.25-1.87c1.07-0.37,2.55-0.56,4.43-0.56c0.83,0,1.57,0.01,2.2,0.03c0.63,0.02,1.28,0.06,1.94,0.1
		c1.23,6.92,2.39,14.39,3.48,22.4c1.09,8.02,2.15,16.64,3.15,25.88c1.58-7.75,2.98-15.82,4.2-24.21c1.23-8.39,2.28-17.14,3.15-26.25
		c1.23-0.26,2.09-0.44,2.6-0.53c0.5-0.09,0.91-0.13,1.22-0.13c0.96,0,2.02,0.16,3.19,0.49c1.16,0.33,2.51,0.82,4.04,1.48
		c-2.63,19.01-5.94,37.1-9.92,54.27c-3.99,17.17-8.61,33.31-13.86,48.42h-1.38c-1.88,0-3.62-0.38-5.22-1.15
		c-1.6-0.77-3.21-2-4.83-3.71c1.84-3.2,3.55-6.88,5.12-11.04C320.35,604.33,322,599.14,323.71,592.93z"/>
</g>
<g id="XMLID_00000040555926849115613210000013548999285001829278_">
	<g>
		<path class="st0" d="M223.5,416.63c1.06,1.94,0.51,5.08-1.15,6.55c-1.71,1.5-3.28,1.17-4.08-0.93c-0.27-0.68-0.33-1.45-0.39-1.77
			c-0.01-2.29,0.55-3.87,2.24-4.84C221.49,414.87,222.74,415.26,223.5,416.63z"/>
		<path class="st0" d="M226.22,413.53c-0.22,0.09-0.43,0.18-0.65,0.27c-1.44-2.84-3.63-3.8-6.55-2.82
			c-0.64,0.22-1.28,0.56-1.81,0.99c-3.61,2.99-4.46,9.66-1.75,13.49c2.04,2.88,5.03,3.5,8.06,1.67c0.39-0.24,0.77-0.5,1.25-0.81
			c0.37,0.7,0.72,1.34,1.11,2.06c-2.01,2.31-4.15,4.47-7.45,4.13c-3.58-0.37-6.06-2.44-7.43-5.79c-1.95-4.78-1.9-9.57,0.45-14.13
			c3.3-6.4,10.08-6.14,14.39-1.34C226.28,411.73,226.11,412.76,226.22,413.53z"/>
		<path class="st0" d="M174.25,297.25c0.48,11.04-1.95,21.41-7.29,31.08c-0.78,1.43-1.97,2.63-2.97,3.94
			c4.52-13.11,8.46-26.19,6.43-40.58C172.59,293.23,174.15,294.77,174.25,297.25z"/>
		<path class="st0" d="M143.98,271.75c0.34,1.28,0.89,2.5,1.48,4.1c-7.09-1.57-13.8-3.06-20.52-4.54c-1.98-0.44-3.97-0.78-5.94-1.26
			c-0.42-0.1-1.01-0.51-1.09-0.87c-0.41-1.86-0.74-3.75-0.99-5.64c-0.15-1.13,0.22-1.75,1.6-1.37c7.09,1.96,14.17,3.94,21.31,5.73
			C142.07,268.46,143.4,269.55,143.98,271.75z"/>
		<path class="st0" d="M324.25,296.32c0.04,7.25,0.03,14.5,0.03,22.02c-2.28-0.51-4.39-0.99-6.54-1.47c0-7.66,0-15.18,0-22.87
			c2.03,0.44,3.95,0.82,5.85,1.32C323.89,295.39,324.25,295.97,324.25,296.32z"/>
		<path class="st0" d="M339.31,285.36c0.3,0.4,0.53,0.85,0.87,1.41c-17.5-4.67-34.82-9.28-52.1-13.89c-0.2-2.36-0.37-4.48-0.56-6.73
			c4.22,1.19,8.37,2.41,12.54,3.54c9.5,2.59,18.99,5.27,28.55,7.64C333.44,278.52,336.56,281.6,339.31,285.36z"/>
		<path class="st0" d="M308.01,293.09c0.1,7.03,0.11,14.05,0.13,21.07c0,0.16-0.11,0.32-0.26,0.73c-2.15-0.56-4.29-1.13-6.52-1.72
			c0-7.6,0-15.13,0-22.91c1.97,0.53,3.83,0.96,5.63,1.56C307.44,291.97,308.01,292.65,308.01,293.09z"/>
		<path class="st1" d="M290.05,421.79c0.6,1.15,0.93,2.44,1.38,3.67c-0.25,2.3-1.69,3.78-3.73,3.75c-1.3-0.02-2.04-0.66-2.45-1.82
			c-0.77-2.16-0.05-4.68,1.75-6.1C288.21,420.35,289.34,420.45,290.05,421.79z"/>
		<path class="st1" d="M293.72,428.49c1.05-3.22,0.91-6.42-1.11-9.31c-1.78-2.56-4.69-3.03-7.33-1.36
			c-0.75,0.48-1.65,0.72-2.49,1.06c-0.15-0.16-0.29-0.32-0.43-0.48c0.2-0.6,0.32-1.26,0.64-1.79c1.22-2,3.17-3.13,5.34-3.57
			c0.94-0.2,2.35,0.39,3.11,1.1c6.86,6.37,5.69,16.89,0.02,21.66c-3.28,2.75-8.16,1.51-9.47-2.56c-0.27-0.83,0.27-1.91,0.48-3.18
			c0.46,0.34,0.52,0.37,0.56,0.41c1.52,1.95,3.34,3.64,5.97,3.15C291.68,433.12,292.95,430.87,293.72,428.49z"/>
		<path class="st0" d="M267.5,387.79c-4.04,5.04-6.66,10.78-8.58,16.88c-0.45,1.41-1.58,1.83-3.24,1.35
			c-1.48-0.43-1.5-1.5-1.01-2.61C257.46,396.99,261.37,391.47,267.5,387.79z"/>
		<path class="st0" d="M310.41,411.57c2.15,10.37,1.91,20.66-1.83,30.67c-2.54,6.81-6.58,12.48-12.99,16.25
			c-6.97,4.1-15.78,3.05-21.45-2.71c-6.67-6.78-10.77-14.87-12.12-24.49c1.39,0,2.78-0.17,4.08,0.09c0.54,0.1,1.13,1.07,1.29,1.74
			c1.12,4.67,2.91,9.04,5.8,12.9c2.93,3.91,6.69,6.69,11.66,7.16c6.63,0.64,11.45-2.44,15.46-7.57c4.26-5.44,6.01-11.54,6.16-18.27
			c0.16-6.82-0.01-13.64-2.47-20.09c-1.44-3.77-3.21-7.45-6.14-10.41c-6.77-6.83-15.17-7.18-22.31-0.7
			c-5.47,4.96-8.41,11.27-9.17,18.6c-0.05,0.45-0.15,0.88-0.26,1.5c-1.65-0.39-3.05-0.72-4.72-1.11c0.51-2.37,0.88-4.77,1.56-7.06
			c2.12-7.1,5.47-13.45,10.72-18.85c6.56-6.75,17.79-5.88,23.37-1.22C304.54,394.25,308.49,402.3,310.41,411.57z"/>
		<path class="st0" d="M281.01,423.22c0.23,4.33,0.23,4.43-4.05,4.21c-9.97-0.5-19.93-1.13-29.9-1.66
			c-6.37-0.33-12.75-0.57-19.49-0.87c0.15-2.63,0.3-5.21,0.46-7.94c17.83,0.48,35.26,3.95,52.7,5.65
			C280.92,423.01,281.01,423.12,281.01,423.22z"/>
		<path class="st0" d="M143.42,404.17c0.1,0.16,0.21,0.33,0.31,0.49c-7.9,6.9-11.4,15.89-12.46,26.05
			c-0.19,1.84-0.27,3.72-0.67,5.52c-0.13,0.61-1.08,1.05-1.66,1.56c-0.43-0.5-1.2-0.99-1.22-1.51c-0.43-10.69,1.97-20.44,9.93-28.13
			C139.31,406.55,141.49,405.48,143.42,404.17z"/>
		<path class="st0" d="M165.69,411.87c4.3,6.07,5.93,13,5.84,20.73c0,5.45-0.74,11.09-3.41,16.35c-1.83,3.63-4.47,6.46-7.85,8.67
			c-5.53,3.62-12.42,1.18-16.39-3.1c-4.08-4.41-5.84-9.95-6.86-15.73c-1.54-8.81-0.44-17.27,4.01-25.12
			c2.39-4.21,5.6-7.68,10.62-8.6C157.9,403.92,162.31,407.1,165.69,411.87z"/>
		<path class="st0" d="M195.3,380.15c0.11,0.13,0.22,0.27,0.33,0.4c-1.67,2.39-3.61,4.64-4.94,7.21c-2.1,4.05-3.78,8.32-5.64,12.49
			c-0.31,0.69-0.5,1.46-0.95,2.03c-0.29,0.37-1,0.67-1.45,0.59c-0.44-0.08-1.02-0.61-1.13-1.05c-0.18-0.7-0.18-1.53,0.02-2.22
			c1.52-5.25,3.96-10.08,7.5-14.2C190.79,383.36,193.19,381.88,195.3,380.15z"/>
		<path class="st0" d="M243.84,430.59c0.07,0.25,0.18,0.42,0.15,0.55c-2.3,9.48-7.07,17.49-14.43,23.88
			c-2.97,2.58-6.6,3.84-10.52,4.11c-3.41,0.24-6.85,0.68-10.18-0.54c-4.28-1.57-7.63-4.44-10.37-7.96
			c-6.41-8.23-9.91-17.57-10.62-28.01c-0.58-8.4,0.1-16.6,3.15-24.49c2.25-5.83,5.27-11.25,9.87-15.62
			c3.94-3.75,8.83-5.45,14.13-6.1c0.47-0.06,1.03,0.15,1.45,0.4c3.04,1.83,6.45,2.4,9.82,3.29c2.17,0.57,4.34,2.04,5.95,3.66
			c5.66,5.67,9.25,12.58,11.1,20.36c0.73,3.09,1.19,6.25,1.84,9.69c-1.89-0.17-3.47-0.32-4.99-0.45c-0.47-2.3-0.78-4.54-1.38-6.69
			c-2.35-8.41-6.35-15.66-14.27-20.18c-8.66-4.96-17.85-1.96-23.6,4.86c-5.27,6.24-7.74,13.6-8.23,21.72
			c-0.55,9,0.91,17.59,4.98,25.63c2.51,4.96,6.21,8.98,11.14,11.68c6.41,3.52,14.52,2.48,20.21-2.12c5.18-4.19,7.61-9.8,9.08-16.02
			c0.09-0.39,0.18-0.79,0.29-1.18c0.04-0.16,0.13-0.31,0.21-0.47C240.47,430.59,242.15,430.59,243.84,430.59z"/>
		<path class="st0" d="M340.59,379.74c0,1.5,0,2.92,0,4.34c-6.36-0.84-12.62-1.66-18.87-2.5c-7.42-0.99-14.83-1.97-22.23-3
			c-7.52-1.05-15.03-2.17-22.54-3.24c-7.92-1.14-15.83-2.28-23.76-3.37c-1.55-0.21-2.82-0.37-2.79-2.46
			c0.01-0.96-0.58-1.92-1.03-3.33C280.22,370.77,310.37,375.25,340.59,379.74z"/>
		<path class="st0" d="M196.4,355.83c1.25,0.1,1.69,0.91,1.6,2.2c-0.12,1.6-0.03,3.22-0.03,5.06c-2.88-0.33-5.74-0.62-8.58-1
			c-6.54-0.88-13.08-1.85-19.63-2.69c-1.39-0.18-2.13-0.73-2.62-2.04c-0.7-1.83-1.63-3.57-2.58-5.62
			c6.01,0.87,11.74,1.69,17.48,2.53c3.44,0.51,6.86,1.11,10.31,1.55C193.68,355.99,195.06,355.72,196.4,355.83z"/>
		<path class="st0" d="M133.32,333.78c0,7.7,0,15.4,0,23.29c-4.42,0.42-8.74,0.82-13.27,1.25c4.39-8.29,8.7-16.44,13.01-24.59
			C133.15,333.75,133.24,333.76,133.32,333.78z"/>
		<path class="st0" d="M132.24,362.97c0,4.24,0,8.1,0,12.07c-27.07,1.32-53.96,2.63-80.95,3.95c0-3.62,0-6.97,0-10.64
			C78.24,366.55,105.2,364.76,132.24,362.97z"/>
		<path class="st0" d="M121.63,382.77c-2.15,17.52-4.3,35.05-6.46,52.58c-6.42,0.83-12.64,1.56-18.84,2.44
			c-7.35,1.06-14.68,2.3-22.03,3.35c-3.79,0.55-7.61,0.87-11.42,1.3c-2.26,0.25-3.87-1.13-5.5-2.28c-5.18-3.63-10.26-7.41-15.47-11
			c-1.44-0.99-1.49-1.92-0.65-3.16c8.62-12.7,14.8-26.79,22.71-39.89c1.23-2.03,2.83-0.88,4.65-1.46c-0.58,1.39-0.93,2.47-1.46,3.46
			c-4.6,8.59-9.26,17.15-13.85,25.74c-1.85,3.48-3.59,7.02-5.35,10.54c-0.92,1.86-0.75,2.28,1.07,3.31c0.76,0.43,1.49,0.9,2.19,1.33
			c3.38-6.49,6.74-12.94,10.1-19.39c3.96-7.61,7.9-15.23,11.92-22.82c1.44-2.71,1.74-2.75,5.2-2.04c-0.47,0.95-0.93,1.86-1.38,2.77
			c-6.59,13.42-13.19,26.83-19.78,40.25c-0.28,0.58-0.54,1.16-0.78,1.75c-1.29,3.19-1.29,3.19,1.71,4.78
			c0.56,0.29,1.11,0.59,1.97,1.05c1.09-2.12,2.23-4.17,3.21-6.3c6.77-14.61,13.5-29.24,20.3-43.83c0.24-0.52,1.04-0.99,1.64-1.08
			c1.17-0.17,2.39-0.05,3.93-0.05c-1.21,3.07-2.29,5.92-3.47,8.73c-5.72,13.56-11.47,27.09-17.19,40.65
			c-0.39,0.92-0.58,1.94-0.94,3.19c3.16-0.34,5.96-0.65,8.41-0.92c2.34-6.46,4.58-12.65,6.83-18.83
			c3.92-10.77,7.86-21.54,11.74-32.33c0.39-1.1,0.86-1.59,2.07-1.56c1.19,0.03,2.38-0.2,3.85-0.34
			c-4.75,17.58-11.82,34.12-16.34,51.85c2.97-0.32,5.43-0.58,7.89-0.88c0.28-0.03,0.67-0.3,0.76-0.55c0.66-1.72,1.38-3.44,1.84-5.22
			c3.7-14.23,7.34-28.47,11.01-42.71c0.73-2.84,0.94-2.94,5.26-2.74c-0.46,2.51-0.83,4.99-1.38,7.43
			c-2.79,12.43-5.64,24.84-8.44,37.26c-0.37,1.68-0.53,3.41-0.83,5.33c3.04-0.39,5.82-0.75,8.79-1.13c0.31-2.17,0.61-4.4,0.97-6.62
			c2.04-12.65,4.11-25.3,6.16-37.96c0.04-0.22,0.09-0.45,0.13-0.68C116.9,382.43,117.74,381.87,121.63,382.77z"/>
		<path class="st0" d="M92.74,159.34c0,2.53,0.06,4.77-0.06,7.01c-0.02,0.39-0.73,1-1.19,1.06c-2.74,0.39-5.49,0.64-8.39,0.95
			c0-2.24-0.03-4.41,0.03-6.57c0.01-0.32,0.47-0.82,0.79-0.89C86.78,160.35,89.67,159.87,92.74,159.34z"/>
		<path class="st0" d="M92.72,177.32c0,17.98,0,35.9,0,53.98c-1.88-0.12-3.72-0.15-5.52-0.41c-0.3-0.05-0.66-1.07-0.67-1.64
			c-0.05-8.54-0.05-17.09-0.06-25.63c-0.01-7.73-0.02-15.46-0.03-23.19c0-0.74,0-1.49,0-2.4C88.67,177.78,90.63,177.56,92.72,177.32
			z"/>
		<path class="st0" d="M112.87,272.37c0.29,3.23,0.04,6.5,0.04,9.75c0.18,11.38-2.26,22.2-7.32,32.41
			c-2.39,4.83-5.6,9.06-9.57,12.74c-9.11,8.43-22.32,7.98-30.87-1.09c-5.64-5.97-8.72-13.21-10.44-21.11
			c-3.59-16.45-2.02-32.43,4.81-47.8c3.07-6.92,7.66-12.74,14.09-16.9c4.9-3.17,10.28-4.58,16.08-3.29
			c5.19,1.15,9.19,4.28,12.45,8.34C108.46,253.3,111.96,262.36,112.87,272.37z"/>
		<path d="M354.4,131.85c3.76,1.68,4.94,4.83,2.18,8.81c-4.57,6.58-9.03,13.24-13.62,19.82c-1.15,1.66-2.52,3.2-3.91,4.67
			c-3.35,3.54-7.39,5.79-12.34,6.11c-0.89,0.06-1.17,0.42-1.53,1.24c-3.43,7.79-6.65,15.7-10.54,23.26
			c-3.11,6.06-7.99,10.89-13.66,14.66c-5.98,3.97-12.8,5.02-19.86,4.31c-4.18-0.43-8.34-1.19-12.48-1.8
			c0.56,2.74-0.34,3.68-3.23,2.96c-4.27-1.08-8.49-2.34-12.74-3.48c-1.67-0.45-3.36-0.79-5.13-1.2c-0.46,2.72-0.85,5.4-1.39,8.04
			c-1.33,6.56-4.03,12.32-9.61,16.41c-0.43,0.31-0.88,1.08-0.8,1.53c0.63,3.17,1.4,6.3,2.1,9.45c0.25,1.12,0.87,1.21,1.92,1.04
			c9.36-1.52,18.78-2.61,28.26-2.01c8.58,0.53,14.99,4.55,18.04,12.98c0.43,1.19,1.17,1.8,2.44,2.15
			c14.42,3.93,28.84,7.85,43.2,11.98c4.86,1.39,8.41,4.85,11.16,8.99c1.68,2.54,3.51,5.07,4.01,8.22c0.05,0.29,0.17,0.56,0.22,0.84
			c0.69,3.43,0.37,3.83-3.06,3.82c-2.31-0.01-4.63-0.01-7.06-0.01c0,5.08,0,10.05,0,15.09c1.1,0.23,2.17,0.49,3.24,0.67
			c3.04,0.52,5.14,2.33,6.14,5.1c0.85,2.35,1.58,4.91,1.59,7.38c0.12,23.43,0.07,46.86,0.07,70.29c0,0.75,0,1.49,0,2.3
			c-3.77,0.64-7.41,1.25-11.09,1.87c0,7.22,0,14.3,0,21.51c1.94,0,3.82,0,5.79,0c0,3.9,0,7.65,0,11.55
			c-6.29,0.3-12.59,0.59-18.79,0.88c-0.33-1.54-0.32-3.29-1.12-4.52c-0.54-0.83-2.22-0.92-3.65-1.43
			c-1.4,13.1-4.07,25.35-15.3,33.77c12.9,0.88,25.66,0.52,38.21,2.74c0.01,0.31,0.01,0.62,0.02,0.93c-2.42,0.3-4.84,0.69-7.27,0.89
			c-25.86,2.15-51.8,2.04-77.71,2.25c-30.29,0.24-60.58,0.14-90.87,0.11c-15.46-0.02-30.92-0.04-46.38-0.35
			c-17.49-0.35-34.97-0.98-52.45-1.59c-5.16-0.18-10.31-0.7-15.46-1.1c-0.57-0.04-1.12-0.33-1.67-0.88
			c10.39-2.22,20.94-2.14,31.88-2.76c-0.67-0.46-1.03-0.76-1.43-0.97c-3.88-1.98-6.5-5.2-8.52-8.94c-0.75-1.4-1.48-2.24-3.29-2.13
			c-3.42,0.2-6.85,0.07-10.28,0.11c-1.14,0.01-1.91-0.34-2.82-1.2c-2.88-2.69-5.95-5.19-9.06-7.6c-3.67-2.85-7.47-5.52-11.21-8.28
			c-1.33-0.98-1.61-2.3-0.76-3.77c8.02-13.92,16.06-27.83,24.09-41.75c0.08-0.14,0.13-0.3,0.3-0.71c-4.1,0-7.99,0-12.01,0
			c0-6.8,0-13.51,0-20.38c2.41-0.16,4.88-0.34,7.35-0.5c2.55-0.17,5.1-0.34,7.65-0.45c1.34-0.06,2.19-0.59,2.86-1.83
			c3.68-6.77,7.45-13.5,11.19-20.25c0.91-1.64,0.83-1.96-0.94-2.42c-7.89-2.02-13.12-7.36-17.4-13.87
			c-6.64-10.07-9.04-21.37-9.46-33.21c-0.5-14.23,2.52-27.69,9.49-40.13c4.01-7.16,9.53-13.01,16.79-17.03
			c1.55-0.85,3.29-1.45,5.02-1.85c1.14-0.27,1.48-0.63,1.48-1.78c0.01-11.98,0.08-23.96,0.12-35.93c0.01-5.52,0-11.03,0-16.66
			c-0.25-0.06-0.52-0.13-0.78-0.2c-3.28-0.86-3.57-1.23-3.56-4.65c0-4.13,0.08-8.26-0.03-12.38c-0.04-1.77,0.72-2.83,2.14-3.64
			c7.54-4.32,15.5-5.76,23.92-3.15c2.68,0.84,5.23,2.15,7.81,3.3c1.31,0.58,1.7,1.58,1.66,3.08c-0.12,4.24-0.08,8.48,0.08,12.72
			c0.11,3-0.7,3.95-4.68,4.57c-0.02,0.52-0.06,1.08-0.07,1.64c-0.13,18.6-0.26,37.2-0.43,55.81c-0.01,1.18,0.29,1.72,1.48,2.05
			c4.45,1.24,8.87,2.61,13.56,4.01c0.18-1.56,0.49-2.98,0.47-4.39c-0.03-2.93,0.88-5.57,2.1-8.17c0.31-0.67,0.34-1.66,0.09-2.36
			c-1.49-4.05-2.05-8.05,0.73-11.75c4.36-5.8,8.85-11.49,13.22-17.28c0.79-1.04,1.02-2.59,1.93-3.46
			c4.89-4.71,9.75-9.47,14.93-13.84c7.48-6.31,15.61-11.65,24.8-15.23c0.03-0.01,0.03-0.11,0.06-0.26
			c-3.01-1.05-5.51-2.76-7.17-5.61c-0.23-0.39-1.17-0.5-1.79-0.52c-6.63-0.18-11.68-4.92-11.8-11.27c-0.03-1.29,0.37-2.59,0.59-4
			c-0.3-0.16-0.7-0.38-1.1-0.6c-6.82-3.63-8.93-11.09-5.01-17.75c0.58-0.99,1.24-1.95,1.76-2.98c0.14-0.29-0.03-0.78-0.13-1.16
			c-1.85-6.76,1.42-12.91,6.67-16.87c0.68-0.51,1.45-0.93,2.15-1.37c-2.67-10.63,1.75-16.93,11.35-21.07
			c-1.47-11.35,12.92-18.4,20.19-16.1c2.54-7.03,7.9-10.78,14.95-12.3c4.12-0.88,8.28-0.96,12.43,0.15c0.94,0.26,2.15,0,3.11-0.37
			c7.72-2.97,15.26-3.01,22.64,1.07c2.22,1.23,3.88,2.99,4.82,5.3c0.58,1.42,1.48,1.64,2.82,1.67c4.48,0.1,8.72,1.07,12.37,3.88
			c4.49,3.43,6.55,9.34,5.01,14.74c-0.28,0.97-0.09,1.4,0.68,1.98c5.05,3.75,7.48,8.76,6.77,15.08c-0.35,3.16-1.89,5.79-4.14,8.12
			c2.2,7.42,2.8,14.55-4.43,19.6c0,2.56,0.16,5.04-0.04,7.49c-0.24,3.19-2.1,5.48-4.79,7.07c-1.05,0.62-1.47,1.26-1.7,2.6
			c-0.97,5.64-2.77,11.08-6.45,15.58c-3.86,4.7-8.01,9.15-12.04,13.7c2.83,0.87,6.01,1.79,9.15,2.84c5.66,1.88,11.35,3.69,16.9,5.84
			c3.01,1.16,5.79,2.94,8.64,4.5c1.37,0.75,2.46,0.56,3.58-0.53c7.17-6.98,14.17-14.12,19.8-22.44c0.32-0.47,0.42-1.36,0.2-1.87
			c-2.79-6.21-2.66-12.59-0.75-18.89c1.29-4.25,1.36-8.27,0.06-12.45c-0.39-1.25-0.64-2.64-0.5-3.93c0.31-3.06,3.46-4.81,6.57-3.73
			c4.27,1.49,6.35,4.83,7.28,9.03c0.25,1.18,0.26,2.42,0.42,3.97c0.58-0.63,1.07-1.11,1.52-1.64c4.75-5.49,9.45-11.03,14.25-16.47
			c1.7-1.93,3.9-2.66,6.45-1.75c0.38,0.13,0.88,0.26,1.06,0.56c1.09,1.76,2.69,1.74,4.55,1.8c4.28,0.13,5.86,2.71,4.94,7.62
			c0.87,0.5,1.83,0.93,2.63,1.56c1.46,1.15,1.63,2.29,0.83,3.94C355.46,129.43,354.94,130.65,354.4,131.85z M354.26,138.25
			c0.36-0.5,0.68-1.21,0.61-1.76c-0.07-0.56-0.55-1.27-1.05-1.52c-0.38-0.19-1.14,0.11-1.6,0.4c-0.41,0.27-0.64,0.81-0.92,1.25
			c-2.97,4.58-6.62,8.47-11.55,11.43c-0.09-0.43-0.17-0.86-0.26-1.29l0.01-0.01c0.01,0.01,0.01,0.01,0.02,0.02
			c0-0.01-0.01-0.01-0.01-0.02c1-0.94,2.02-1.87,3-2.81c4.68-4.46,7.16-10.35,10.3-15.8c0.25-0.42,0.32-0.95,0.46-1.39
			c-2.8-1.57-2.9-1.6-4.57,0.85c-3.5,5.14-7.35,9.95-12.24,13.92c1.03,1.76,2.03,3.5,3.05,5.23h-0.01c-0.3-0.25-0.61-0.5-0.9-0.76
			c-3.44-3.18-6.91-6.34-10.33-9.54c-0.76-0.72-1.38-1.6-2.07-2.41c0.14-0.13,0.27-0.27,0.4-0.4c1.17,0.6,2.34,1.19,3.46,1.76
			c0.18-0.11,0.29-0.15,0.37-0.23c5.01-4.75,7.8-11.08,11.78-16.56c0.24-0.35,0.13-1.15-0.1-1.6c-0.77-1.53-2.91-1.47-4.37,0.22
			c-4.44,5.09-8.83,10.22-13.24,15.34c-1.31,1.52-2.63,3.05-3.95,4.57c-0.75,0.86-0.66,1.45-0.08,2.4
			c2.35,3.81,4.63,7.67,4.19,12.45c-0.22,2.39-0.97,4.48-2.7,6.39c0-1.12-0.03-1.99,0.01-2.86c0.3-6.26-1.99-11.56-6.12-16.11
			c-0.81-0.89-1.08-1.63-0.8-2.76c0.69-2.71,1.06-5.44,0.53-8.26c-0.58-3.17-2.32-5.29-4.75-5.48c-1.69-0.13-2.28,0.46-1.99,2.12
			c0.24,1.37,0.53,2.74,0.92,4.07c0.88,2.98,0.93,5.95,0.07,8.92c-1.43,4.99-1.75,10.07-0.83,15.15c0.46,2.53,1.44,4.96,2.14,7.26
			c-0.58,0.55-1.17,0.89-1.45,1.4c-3.42,6.32-8.22,11.51-13.36,16.42c-4.78,4.57-9.2,9.37-11.15,15.91
			c-0.08,0.26-0.33,0.46-0.49,0.69c-0.11-0.03-0.21-0.07-0.31-0.11c0.23-2.12,0.46-4.23,0.69-6.37c-3.03-1.48-6.08-2.97-9.23-4.51
			c-1.25,2.39-2.5,4.66-3.63,7c-2.49,5.15-4.21,10.53-4.51,16.3c-0.06,1.16,0.39,1.72,1.51,1.85c5.41,0.63,10.81,1.46,16.23,1.85
			c4.8,0.34,9.47-0.75,13.31-3.74c4.67-3.65,9.18-7.61,11.96-12.98c3.71-7.2,7.14-14.55,10.71-21.83c0.62-1.27,1.24-2.52-0.48-4.15
			c1.38-0.19,2.27-0.35,3.16-0.43c0.92-0.08,1.86,0.05,2.76-0.13c4.53-0.87,8.3-3.32,11.02-6.84
			C343.55,153.41,348.85,145.78,354.26,138.25z M349.17,121.95c0.28-0.5,0.65-1.09,0.59-1.59c-0.09-0.73-0.36-1.78-0.86-2.02
			c-0.63-0.3-1.65-0.06-2.38,0.24c-0.52,0.21-0.87,0.9-1.25,1.42c-4.2,5.66-8.39,11.33-12.76,17.24c0.68,0.75,1.68,1.84,2.71,2.96
			c0.3-0.24,0.49-0.36,0.66-0.51C341.54,134.7,345.56,128.48,349.17,121.95z M340.59,384.08c0-1.42,0-2.84,0-4.34
			c-30.22-4.49-60.37-8.97-91.22-13.56c0.45,1.41,1.04,2.37,1.03,3.33c-0.03,2.09,1.24,2.25,2.79,2.46
			c7.93,1.09,15.84,2.23,23.76,3.37c7.51,1.07,15.02,2.19,22.54,3.24c7.4,1.03,14.81,2.01,22.23,3
			C327.97,382.42,334.23,383.24,340.59,384.08z M340.18,286.77c-0.34-0.56-0.57-1.01-0.87-1.41c-2.75-3.76-5.87-6.84-10.7-8.03
			c-9.56-2.37-19.05-5.05-28.55-7.64c-4.17-1.13-8.32-2.35-12.54-3.54c0.19,2.25,0.36,4.37,0.56,6.73
			C305.36,277.49,322.68,282.1,340.18,286.77z M324.28,318.34c0-7.52,0.01-14.77-0.03-22.02c0-0.35-0.36-0.93-0.66-1
			c-1.9-0.5-3.82-0.88-5.85-1.32c0,7.69,0,15.21,0,22.87C319.89,317.35,322,317.83,324.28,318.34z M308.58,442.24
			c3.74-10.01,3.98-20.3,1.83-30.67c-1.92-9.27-5.87-17.32-13.36-23.57c-5.58-4.66-16.81-5.53-23.37,1.22
			c-5.25,5.4-8.6,11.75-10.72,18.85c-0.68,2.29-1.05,4.69-1.56,7.06c1.67,0.39,3.07,0.72,4.72,1.11c0.11-0.62,0.21-1.05,0.26-1.5
			c0.76-7.33,3.7-13.64,9.17-18.6c7.14-6.48,15.54-6.13,22.31,0.7c2.93,2.96,4.7,6.64,6.14,10.41c2.46,6.45,2.63,13.27,2.47,20.09
			c-0.15,6.73-1.9,12.83-6.16,18.27c-4.01,5.13-8.83,8.21-15.46,7.57c-4.97-0.47-8.73-3.25-11.66-7.16
			c-2.89-3.86-4.68-8.23-5.8-12.9c-0.16-0.67-0.75-1.64-1.29-1.74c-1.3-0.26-2.69-0.09-4.08-0.09c1.35,9.62,5.45,17.71,12.12,24.49
			c5.67,5.76,14.48,6.81,21.45,2.71C302,454.72,306.04,449.05,308.58,442.24z M309.41,344.75c1.98-0.83,2-0.98,0.93-3.37
			c-10.46,3.29-20.56,8.21-31.91,8.13c-0.01-0.02-0.03-0.03-0.04-0.04c-0.01,0.01-0.02,0.03-0.04,0.04
			c-4.68,0.04-9.36,0.07-14.04,0.17c-0.49,0.01-1.23,0.34-1.42,0.73c-0.85,1.77,0.42,3.99,2.46,4.1c2.24,0.11,4.5-0.07,6.75-0.19
			c2.06-0.12,3.58-1.11,4.63-2.92c0.4-0.71,1.07-1.27,1.62-1.89c0.03,0,0.05,0,0.08,0c0.76,0.68,1.45,1.49,2.3,2.01
			c3.63,2.22,7.46,1.86,11.19,0.41C297.79,349.63,303.59,347.17,309.41,344.75z M308.76,338.87c1.42-0.46,1.57-1.11,0.96-2.3
			c-1.44-2.77-3.92-3.78-6.79-3.7c-2.65,0.07-5.29,0.58-7.93,0.87c-2.29,0.26-4.22,1.19-5.77,2.91c-0.39,0.43-0.88,0.79-1.32,1.18
			c-0.18-0.11-0.35-0.22-0.53-0.33c0.45-1.15,0.7-2.45,1.41-3.4c0.75-1.02,1.93-1.72,3.04-2.64c-1.35-0.72-2.62-1.86-3.97-1.98
			c-1.92-0.17-3.74,0.68-4.88,2.5c-0.7,1.12-1.46,2.21-2.2,3.31c-0.96-4.44,1.55-6.85,4.94-8.63c-1.83-3.1-2.53-3.27-5.24-1.26
			c-0.74,0.55-1.43,1.19-2.09,1.84c-1.48,1.48-2.83,3.09-4.41,4.45c-1.07,0.91-2.37,1.63-3.68,2.14c-2.41,0.94-4.77,0.6-7.13-1.11
			c-0.23,4.27-1.4,8.17-0.11,12.18c0.41,1.28,0.99,1.58,2.23,1.53c4.58-0.19,9.17-0.21,13.76-0.4c3.35-0.14,6.84,0.08,10.02-0.78
			C295.72,343.44,302.19,340.98,308.76,338.87z M308.14,314.16c-0.02-7.02-0.03-14.04-0.13-21.07c0-0.44-0.57-1.12-1.02-1.27
			c-1.8-0.6-3.66-1.03-5.63-1.56c0,7.78,0,15.31,0,22.91c2.23,0.59,4.37,1.16,6.52,1.72C308.03,314.48,308.14,314.32,308.14,314.16z
			 M292.61,419.18c2.02,2.89,2.16,6.09,1.11,9.31c-0.77,2.38-2.04,4.63-4.71,5.13c-2.63,0.49-4.45-1.2-5.97-3.15
			c-0.04-0.04-0.1-0.07-0.56-0.41c-0.21,1.27-0.75,2.35-0.48,3.18c1.31,4.07,6.19,5.31,9.47,2.56c5.67-4.77,6.84-15.29-0.02-21.66
			c-0.76-0.71-2.17-1.3-3.11-1.1c-2.17,0.44-4.12,1.57-5.34,3.57c-0.32,0.53-0.44,1.19-0.64,1.79c0.14,0.16,0.28,0.32,0.43,0.48
			c0.84-0.34,1.74-0.58,2.49-1.06C287.92,416.15,290.83,416.62,292.61,419.18z M291.43,425.46c-0.45-1.23-0.78-2.52-1.38-3.67
			c-0.71-1.34-1.84-1.44-3.05-0.5c-1.8,1.42-2.52,3.94-1.75,6.1c0.41,1.16,1.15,1.8,2.45,1.82
			C289.74,429.24,291.18,427.76,291.43,425.46z M288.33,310.23c-0.02-0.21-0.06-0.6-0.12-0.99c-0.63-4.18-1.45-8.35-1.87-12.56
			c-1.05-10.34-1.77-20.71-2.94-31.03c-0.37-3.21-1.3-6.56-2.81-9.39c-2.41-4.5-6.96-6.1-11.79-6.76
			c-6.74-0.93-13.46-0.16-20.15,0.56c-6.07,0.65-11.9,2.39-17.59,4.63c-5.37,2.12-10.81,4.08-16.22,6.11
			c0.07,0.08,0.14,0.19,0.23,0.25c0.2,0.12,0.41,0.21,0.62,0.3c5.12,2.1,8.84,5.65,11.18,10.67c1.79,3.86,2.42,7.96,2.54,12.17
			c0.03,0.92,0.05,1.73,1.37,1.68c5.29-0.19,10.49-0.64,15.55-2.5c2.73-1,4.47-2.27,4-5.42c-0.02-0.11,0-0.23,0.02-0.34
			c0.42-2.64,1.16-5.14,2.95-7.49c-0.75,10.32-0.73,10.87,0.65,12.82c1.62-5.52,4.58-10.24,7.83-14.84
			c-0.37,2.13-0.94,4.18-1.73,6.14c-1.52,3.76-3.22,7.44-4.73,11.21c-0.34,0.85-0.35,1.93-0.22,2.86c1.3,8.78,2.66,17.55,4,26.33
			c0.37,2.36,0.72,4.73,1.08,7.14C268.67,315.22,278,311.67,288.33,310.23z M286.73,317.89c0.19-0.96,0.45-1.91,0.48-2.87
			c0-0.18-0.92-0.38-1.67-0.67c0.22,1.42,0.37,2.43,0.52,3.43C286.28,317.82,286.51,317.85,286.73,317.89z M282.55,320.38
			c-0.3-1.48-0.57-2.82-0.89-4.43c-6.12,1.76-11.68,4.19-16.71,7.66c-2.63,1.81-2.58,2.01-1.32,5.03c0.43,1.04,1.08,2.28,1.99,2.78
			c2.91,1.62,6.07,0.62,8.04-2.55C275.9,325.26,278.33,321.94,282.55,320.38z M276.96,427.43c4.28,0.22,4.28,0.12,4.05-4.21
			c0-0.1-0.09-0.21-0.28-0.61c-17.44-1.7-34.87-5.17-52.7-5.65c-0.16,2.73-0.31,5.31-0.46,7.94c6.74,0.3,13.12,0.54,19.49,0.87
			C257.03,426.3,266.99,426.93,276.96,427.43z M277.87,97.34c1.57-7.49-0.39-11.68-6.71-15.09c-0.95-0.51-1.26-0.98-0.84-1.85
			c2.07-4.35,0.72-8.14-1.93-11.67c-2.61-3.48-8.85-5.96-12.6-4.6c-2,0.72-2.69,0.07-3.2-1.47c-0.9-2.73-2.9-4.46-5.27-5.76
			c-6.71-3.7-13.57-3.21-20.47-0.53c-0.6,0.24-1.38,0.51-1.92,0.31c-5.28-1.89-10.45-1.05-15.49,0.72
			c-4.03,1.41-7.51,3.71-9.24,7.91c-0.33,0.8-0.51,1.66-0.82,2.47c-0.35,0.93-1.45,1.45-1.87,0.78c-1-1.62-2.22-0.92-3.45-0.82
			c-4.9,0.38-8.9,2.65-12.1,6.18c-2.11,2.32-3.37,5.19-2.6,8.48c0.5,2.12,0.6,2.05-1.47,2.12c-0.68,0.03-1.4,0.19-2,0.49
			c-2.67,1.3-4.9,3.18-6.36,5.76c-1.86,3.3-1.98,6.87-0.99,10.46c0.47,1.73,0,2.9-1.47,3.85c-1.21,0.79-2.46,1.57-3.51,2.55
			c-3.4,3.15-4.75,7.23-3.4,11.53c0.83,2.64,0.82,3.91-1.21,6.1c-4.46,4.79-2.42,11.94,3.8,15.01c1.51,0.74,1.89,1.65,1.61,3.3
			c-0.95,5.63,1.76,11.22,9.33,10.41c0.68-0.07,1.35-0.22,2.09-0.35c0.22,0.42,0.46,0.81,0.64,1.23c3.05,7.32,11.26,8.18,17.24,4.8
			c1.11-0.62,2.3-1.6,1.63-3.24c-1.09-2.65-2.25-5.27-3.41-7.96c-4.2,0.85-7.84-0.43-10.72-3.66c-2.78-3.13-3.67-7.12-4.44-11.2
			c-0.67,0.37-1.19,0.66-1.86,1.04c0.21-3.54,2.2-5.26,4.52-6.54l2.55,1.39c-1.1,0.6-1.73,1.85-1.71,3.66
			c0.03,3.1,1.16,5.9,2.77,8.49c1.97,3.18,5.24,4.56,8.82,3.51c1.5-0.44,2.56-0.14,3.48,0.66c0.04,0.85-0.09,1.47,0.11,1.95
			c3.01,7.06,7.48,12.86,14.15,16.93c4.61,2.81,9.15,5.63,14.27,7.49c6.45,2.34,12.3,1.67,17.73-2.48
			c6.41-4.9,12.22-10.48,16.6-17.25c5.08-7.83,6.79-16.3,2.86-25.29c-0.32-0.73-0.52-1.59-0.46-2.37c0.05-0.74,0.1-1.49,0.15-2.23
			l2.76,0.17c-0.08,1.92,0.27,3.8,1.39,5.71c0.94,1.58,1.08,3.63,1.59,5.46c0.14,0.52,0.28,1.03,0.47,1.69
			c2.82-3.12,3.73-6.46,2.79-10.31c-0.71-2.85-0.69-2.84,1.82-4.6c1.74-1.22,3.28-2.63,3.77-4.82c0.92-4.08,0.62-7.95-2.16-11.35
			c-0.99-1.2-0.67-2.88,0.62-2.96C276.48,101.39,277.44,99.44,277.87,97.34z M264.02,211.9c-0.41-11.04,2.93-20.68,9.01-29.42
			c-4.67-1.6-9.22-3.27-13.85-4.72c-4.69-1.48-9.44-2.78-14.18-4.09c-0.45-0.12-1.08,0.14-1.56,0.37c-1.99,0.92-3.91,2.04-5.96,2.8
			c-1.58,0.59-3.32,0.75-5.03,1.11c0.03,0.2,0.04,0.37,0.08,0.53c2.67,9.79-5.17,18.52-15.21,16.74
			c-11.48-2.04-20.22-8.09-25.72-18.51c-1.69-3.22-3.21-6.52-4.8-9.76c-16.36,4.84-28.94,15.42-40.97,26.71
			c8.68,5.47,16.79,11.12,18.18,22.52c4.3-2.68,8.95-4.8,12.2-8.64c3.18-3.76,5.84-7.95,8.81-12.06c-0.14,2.97-0.9,5.69-2.15,8.3
			c-2.6,5.44-6.73,9.4-12.05,12.11c-1.52,0.78-2.11,1.95-2.45,3.54c-0.74,3.44-1.69,6.83-2.46,10.27c-0.15,0.67-0.07,1.66,0.33,2.13
			c2.32,2.68,4.74,5.28,7.18,7.84c1.5,1.57,3.37,2.47,5.56,2.56c2.67,0.12,5.36,0.02,8,0.33c2.98,0.34,6.03,0.69,8.83,1.65
			c2.92,1.01,5.55,2.83,8.36,4.16c1.67,0.78,2.93,1.87,3.67,3.53c0.93,2.09,1.82,4.19,2.84,6.55c7.88-2.94,15.78-5.88,23.48-8.76
			c-0.79-4.2-1.53-8.09-2.29-12.05c-1.04,0.34-2.22,0.71-3.4,1.09c-0.11-0.16-0.21-0.32-0.32-0.47c0.62-0.57,1.18-1.24,1.88-1.7
			c4.12-2.75,7.8-5.94,9.79-10.6c2.23-5.21,3.41-10.69,3.9-16.34c0.54-6.23,1.19-12.45,1.79-18.67c0.32-0.03,0.65-0.06,0.98-0.09
			c0.44,1.74,1.15,3.46,1.27,5.21c0.22,3.3,0.14,6.63,0.08,9.94c-0.02,1.05,0.18,1.42,1.31,1.71c3.98,1,7.9,2.23,11.84,3.37
			C262.02,211.38,263.05,211.65,264.02,211.9z M233.28,458.83c9.92,0,19.85,0,29.98,0c-6.79-5.01-10.37-11.83-11.84-19.72
			c-2.21-0.72-3.15,0.1-3.99,2.05c-2.63,6.1-6.27,11.52-11.81,15.43c-0.83,0.58-1.64,1.17-2.46,1.76
			C233.2,458.51,233.24,458.67,233.28,458.83z M258.92,404.67c1.92-6.1,4.54-11.84,8.58-16.88c-6.13,3.68-10.04,9.2-12.83,15.62
			c-0.49,1.11-0.47,2.18,1.01,2.61C257.34,406.5,258.47,406.08,258.92,404.67z M243.55,375.75c1.76-0.35,2.24-1.65,1.93-3.52
			c-2.12,0.33-4.11,0.66-6.1,0.94c-5.86,0.83-11.73,1.12-17.42-0.79c-6.36-2.14-12.62-4.6-18.18-8.52
			c-0.52-0.37-1.15-0.57-1.73-0.86c-0.11,0.11-0.22,0.21-0.33,0.31c0.38,1.01,0.65,2.07,1.15,3.01c1.5,2.83,4.84,4.16,7.9,3.42
			c0.73-0.17,1.73,0.01,2.38,0.4c2.08,1.25,3.96,2.87,6.1,3.99C227.08,378.23,235.31,377.37,243.55,375.75z M244.04,367.59
			c0.01-1.01-0.06-2.17-0.53-3.01c-2.14-3.84-5.19-6.36-9.82-6.74c-3.02-0.24-5.54,0.81-8.02,2.27c-0.94,0.56-1.95,0.99-2.93,1.47
			c-0.07-0.15-0.15-0.3-0.22-0.44c2.53-4.08,6.19-6.39,11.21-6.82c-1.43-0.85-2.95-1.96-4.24-1.74c-2.08,0.35-4.07,1.45-5.98,2.47
			c-1.13,0.6-2.02,1.64-3.33,2.75c1.44-4.55,4.29-7.12,8.43-8.32c-0.5-1.37-0.98-2.49-1.32-3.66c-0.31-1.04-0.88-1.29-1.82-0.88
			c-2.31,1.03-4.63,2.05-6.92,3.13c-1.67,0.78-3.24,1.86-4.97,2.44c-3.76,1.24-5.67,0.32-7.48-3.24c-0.12-0.23-0.31-0.42-0.55-0.73
			c-0.18,0.25-0.31,0.37-0.39,0.52c-0.17,0.31-0.33,0.62-0.47,0.93c-1.53,3.32-2.18,6.81-2.11,10.46c0.02,1.02,0.29,1.58,1.18,2.05
			c2.32,1.19,4.5,2.68,6.88,3.71c4.66,2.01,9.31,4.14,14.16,5.58c5.46,1.62,11.14,1.11,16.77,0.44
			C243.38,370.02,244.01,369.11,244.04,367.59z M243.99,431.14c0.03-0.13-0.08-0.3-0.15-0.55c-1.69,0-3.37,0-5.22,0
			c-0.08,0.16-0.17,0.31-0.21,0.47c-0.11,0.39-0.2,0.79-0.29,1.18c-1.47,6.22-3.9,11.83-9.08,16.02c-5.69,4.6-13.8,5.64-20.21,2.12
			c-4.93-2.7-8.63-6.72-11.14-11.68c-4.07-8.04-5.53-16.63-4.98-25.63c0.49-8.12,2.96-15.48,8.23-21.72
			c5.75-6.82,14.94-9.82,23.6-4.86c7.92,4.52,11.92,11.77,14.27,20.18c0.6,2.15,0.91,4.39,1.38,6.69c1.52,0.13,3.1,0.28,4.99,0.45
			c-0.65-3.44-1.11-6.6-1.84-9.69c-1.85-7.78-5.44-14.69-11.1-20.36c-1.61-1.62-3.78-3.09-5.95-3.66c-3.37-0.89-6.78-1.46-9.82-3.29
			c-0.42-0.25-0.98-0.46-1.45-0.4c-5.3,0.65-10.19,2.35-14.13,6.1c-4.6,4.37-7.62,9.79-9.87,15.62c-3.05,7.89-3.73,16.09-3.15,24.49
			c0.71,10.44,4.21,19.78,10.62,28.01c2.74,3.52,6.09,6.39,10.37,7.96c3.33,1.22,6.77,0.78,10.18,0.54
			c3.92-0.27,7.55-1.53,10.52-4.11C236.92,448.63,241.69,440.62,243.99,431.14z M230.58,330.39c0.35-0.32,0.42-1.13,0.34-1.67
			c-1.05-7.46-2.34-14.89-3.2-22.38c-0.92-8.06-1.42-16.18-2.17-24.26c-0.95-10.27-6.48-16.75-16.31-19.22
			c-1.24-0.31-3.56,0.71-4.21,1.82c-1.18,2.03-2.66,3.36-5.32,3.02c-1.14-0.15-2.55,0.25-3.56,0.87c-1.39,0.84-2.39,0.75-3.6-0.22
			c-2.09-1.69-4.32-3.01-7.1-3.44c-2.28-0.35-4.73,0.83-6.87-0.73c-0.05-0.04-0.2,0.1-0.31,0.13c-5.92,1.67-10.34-0.43-14.3-4.96
			c-2.46-2.82-5.81-4.86-9.04-7.47c-0.44,2-0.81,3.46-1.07,4.93c-1.33,7.54-0.09,14.24,5.99,19.59c4.21,3.69,8.9,6.49,14.02,8.62
			c5.46,2.26,11.19,3.54,17.11,4.56c-0.45-3.13-0.54-6.09,1.09-8.86c0.54,3.8,1.09,7.61,1.63,11.41c0.13,0,0.27-0.01,0.4-0.01
			c1.28-2.54,2.55-5.07,3.83-7.61c0.2,0.06,0.4,0.12,0.59,0.17c0,0.99,0.19,2.02-0.04,2.95c-0.42,1.74-0.96,3.48-1.68,5.11
			c-1.47,3.35-1.7,6.68-1.05,10.32c1.27,7.19,2.16,14.45,3.09,21.69c0.41,3.16,0.51,6.36,0.86,9.53c0.06,0.54,0.63,1.35,1.09,1.46
			c3.66,0.86,7.32,1.95,11.04,2.27C219.28,338.67,225.3,335.3,230.58,330.39z M215.28,191.79c7.83,2.01,16.07-2.07,14.04-12.79
			c-0.12-0.61-0.57-1.15-0.86-1.72c-0.43,0.4-0.93,0.75-1.25,1.22c-1.23,1.77-2.37,3.58-3.59,5.35c-0.31,0.46-0.77,0.83-1.16,1.24
			c-0.21-0.12-0.43-0.25-0.64-0.38c1.05-2.76,2.09-5.53,3.14-8.3c-10.1-3.34-19-8.92-26.63-15.89c-2.33,1.6-4.55,3.12-6.71,4.61
			c0.5,1.88,1.05,4,1.63,6.11c0.4,1.44,0.59,3.01,1.29,4.3C199.07,183.96,206.04,189.42,215.28,191.79z M225.57,413.8
			c0.22-0.09,0.43-0.18,0.65-0.27c-0.11-0.77,0.06-1.8-0.38-2.28c-4.31-4.8-11.09-5.06-14.39,1.34c-2.35,4.56-2.4,9.35-0.45,14.13
			c1.37,3.35,3.85,5.42,7.43,5.79c3.3,0.34,5.44-1.82,7.45-4.13c-0.39-0.72-0.74-1.36-1.11-2.06c-0.48,0.31-0.86,0.57-1.25,0.81
			c-3.03,1.83-6.02,1.21-8.06-1.67c-2.71-3.83-1.86-10.5,1.75-13.49c0.53-0.43,1.17-0.77,1.81-0.99
			C221.94,410,224.13,410.96,225.57,413.8z M226.49,341.34c-0.21-1.31-0.94-1.63-2.2-1.07c-0.84,0.37-1.71,0.72-2.6,0.96
			c-5.1,1.32-10.21,2.57-15.51,0.72c-0.08,0.15-0.15,0.29-0.22,0.43c0.74,1.14,1.46,2.3,2.24,3.41c2.36,3.34,4.51,3.61,7.69,1.02
			C219.03,344.26,222.63,342.63,226.49,341.34z M222.35,423.18c1.66-1.47,2.21-4.61,1.15-6.55c-0.76-1.37-2.01-1.76-3.38-0.99
			c-1.69,0.97-2.25,2.55-2.24,4.84c0.06,0.32,0.12,1.09,0.39,1.77C219.07,424.35,220.64,424.68,222.35,423.18z M206.11,261.12
			c0.5-0.78,0.85-1.5,0.73-2.12c-0.29-1.41-0.86-2.76-1.21-4.16c-0.55-2.15-1.86-3.5-3.92-4.29c-2.33-0.89-4.56-2.02-6.89-2.9
			c-1.44-0.55-2.95-1.05-4.47-1.2c-4.05-0.37-8.13-0.38-12.16-0.86c-1.88-0.23-4.16-0.74-5.4-1.97c-4.55-4.54-8.8-9.39-13.06-14.22
			c-3.53-3.99-6.89-8.15-10.4-12.17c-1.09-1.26-2.39-2.33-3.6-3.48c0.11-0.14,0.22-0.28,0.32-0.42c2.86,1.8,5.72,3.6,8.75,5.51
			c1.12-1.43,2.22-3,3.5-4.41c1.01-1.11,1.14-2.16,0.47-3.45c-3.29-6.33-8.01-11.12-14.64-13.9c-2.45,3.08-4.89,6.04-7.21,9.08
			c-2.68,3.49-5.32,7.02-7.88,10.61c-2.2,3.08-1.6,6.27,0.43,9.07c1.72,2.38,3.77,4.57,5.92,6.58c8.21,7.68,17.26,14.27,26.56,20.56
			c1.85,1.26,3.59,2.76,5.13,4.38c2.68,2.84,5.71,4.26,9.66,3.4c1-0.23,2.09-0.07,3.12-0.23c5.14-0.77,9.47,0.92,13.28,4.27
			c0.26,0.23,0.53,0.56,0.83,0.62c0.65,0.1,1.43,0.27,1.94,0c0.3-0.16,0.36-1.19,0.18-1.71c-0.96-2.88-3.38-4.27-5.9-5.56
			c-1.26-0.64-2.45-1.4-3.59-2.06c0.72-0.88,1.27-1.56,1.9-2.33c4.87,2.58,10.25,4.83,11.33,11.5c2.26-0.64,2.97-1.35,2.77-2.91
			c-0.41-3.12-1.59-5.82-4.55-7.4c-1.97-1.06-3.94-2.12-5.89-3.16c0.38-0.64,0.71-1.21,1.03-1.77
			C199.47,251.35,204,254.66,206.11,261.12z M198,358.03c0.09-1.29-0.35-2.1-1.6-2.2c-1.34-0.11-2.72,0.16-4.05-0.01
			c-3.45-0.44-6.87-1.04-10.31-1.55c-5.74-0.84-11.47-1.66-17.48-2.53c0.95,2.05,1.88,3.79,2.58,5.62c0.49,1.31,1.23,1.86,2.62,2.04
			c6.55,0.84,13.09,1.81,19.63,2.69c2.84,0.38,5.7,0.67,8.58,1C197.97,361.25,197.88,359.63,198,358.03z M195.63,380.55
			c-0.11-0.13-0.22-0.27-0.33-0.4c-2.11,1.73-4.51,3.21-6.26,5.25c-3.54,4.12-5.98,8.95-7.5,14.2c-0.2,0.69-0.2,1.52-0.02,2.22
			c0.11,0.44,0.69,0.97,1.13,1.05c0.45,0.08,1.16-0.22,1.45-0.59c0.45-0.57,0.64-1.34,0.95-2.03c1.86-4.17,3.54-8.44,5.64-12.49
			C192.02,385.19,193.96,382.94,195.63,380.55z M165.18,458.61c8.46,0,16.49,0,24.93,0c-0.84-1.05-1.43-1.8-2.03-2.54
			c-4.24-5.17-8.35-10.42-9.61-17.24c-0.21-1.14-0.78-1.61-2.15-1.3C174.51,445.47,171.92,453.01,165.18,458.61z M166.96,328.33
			c5.34-9.67,7.77-20.04,7.29-31.08c-0.1-2.48-1.66-4.02-3.83-5.56c2.03,14.39-1.91,27.47-6.43,40.58
			C164.99,330.96,166.18,329.76,166.96,328.33z M171.53,432.6c0.09-7.73-1.54-14.66-5.84-20.73c-3.38-4.77-7.79-7.95-14.04-6.8
			c-5.02,0.92-8.23,4.39-10.62,8.6c-4.45,7.85-5.55,16.31-4.01,25.12c1.02,5.78,2.78,11.32,6.86,15.73
			c3.97,4.28,10.86,6.72,16.39,3.1c3.38-2.21,6.02-5.04,7.85-8.67C170.79,443.69,171.53,438.05,171.53,432.6z M162.48,227.44
			c0.92-2.74,1.71-5.09,2.5-7.45c-2.12,0.77-2.89,3.96-6.32,2.88C160.05,224.53,161.17,225.87,162.48,227.44z M143.83,244.66
			c0.26,2.19,4.45,5.02,6.96,4.52C148.38,247.61,146.1,246.13,143.83,244.66z M145.46,275.85c-0.59-1.6-1.14-2.82-1.48-4.1
			c-0.58-2.2-1.91-3.29-4.15-3.85c-7.14-1.79-14.22-3.77-21.31-5.73c-1.38-0.38-1.75,0.24-1.6,1.37c0.25,1.89,0.58,3.78,0.99,5.64
			c0.08,0.36,0.67,0.77,1.09,0.87c1.97,0.48,3.96,0.82,5.94,1.26C131.66,272.79,138.37,274.28,145.46,275.85z M143.73,404.66
			c-0.1-0.16-0.21-0.33-0.31-0.49c-1.93,1.31-4.11,2.38-5.77,3.98c-7.96,7.69-10.36,17.44-9.93,28.13c0.02,0.52,0.79,1.01,1.22,1.51
			c0.58-0.51,1.53-0.95,1.66-1.56c0.4-1.8,0.48-3.68,0.67-5.52C132.33,420.55,135.83,411.56,143.73,404.66z M104.14,458.95
			c9.56,0,19.93,0,30.72,0c-8.26-7.87-8.26-7.87-11.71-18.28c-2.37,0.26-4.68,0.45-6.96,0.82c-0.44,0.08-0.96,0.79-1.11,1.31
			c-1.1,3.73-2.88,7.08-5.43,10.01C107.69,455.07,105.67,457.26,104.14,458.95z M133.32,357.07c0-7.89,0-15.59,0-23.29
			c-0.08-0.02-0.17-0.03-0.26-0.05c-4.31,8.15-8.62,16.3-13.01,24.59C124.58,357.89,128.9,357.49,133.32,357.07z M132.24,375.04
			c0-3.97,0-7.83,0-12.07c-27.04,1.79-54,3.58-80.95,5.38c0,3.67,0,7.02,0,10.64C78.28,377.67,105.17,376.36,132.24,375.04z
			 M115.17,435.35c2.16-17.53,4.31-35.06,6.46-52.58c-3.89-0.9-4.73-0.34-5.25,3.32c-0.04,0.23-0.09,0.46-0.13,0.68
			c-2.05,12.66-4.12,25.31-6.16,37.96c-0.36,2.22-0.66,4.45-0.97,6.62c-2.97,0.38-5.75,0.74-8.79,1.13c0.3-1.92,0.46-3.65,0.83-5.33
			c2.8-12.42,5.65-24.83,8.44-37.26c0.55-2.44,0.92-4.92,1.38-7.43c-4.32-0.2-4.53-0.1-5.26,2.74
			c-3.67,14.24-7.31,28.48-11.01,42.71c-0.46,1.78-1.18,3.5-1.84,5.22c-0.09,0.25-0.48,0.52-0.76,0.55
			c-2.46,0.3-4.92,0.56-7.89,0.88c4.52-17.73,11.59-34.27,16.34-51.85c-1.47,0.14-2.66,0.37-3.85,0.34
			c-1.21-0.03-1.68,0.46-2.07,1.56c-3.88,10.79-7.82,21.56-11.74,32.33c-2.25,6.18-4.49,12.37-6.83,18.83
			c-2.45,0.27-5.25,0.58-8.41,0.92c0.36-1.25,0.55-2.27,0.94-3.19c5.72-13.56,11.47-27.09,17.19-40.65
			c1.18-2.81,2.26-5.66,3.47-8.73c-1.54,0-2.76-0.12-3.93,0.05c-0.6,0.09-1.4,0.56-1.64,1.08c-6.8,14.59-13.53,29.22-20.3,43.83
			c-0.98,2.13-2.12,4.18-3.21,6.3c-0.86-0.46-1.41-0.76-1.97-1.05c-3-1.59-3-1.59-1.71-4.78c0.24-0.59,0.5-1.17,0.78-1.75
			c6.59-13.42,13.19-26.83,19.78-40.25c0.45-0.91,0.91-1.82,1.38-2.77c-3.46-0.71-3.76-0.67-5.2,2.04
			c-4.02,7.59-7.96,15.21-11.92,22.82c-3.36,6.45-6.72,12.9-10.1,19.39c-0.7-0.43-1.43-0.9-2.19-1.33
			c-1.82-1.03-1.99-1.45-1.07-3.31c1.76-3.52,3.5-7.06,5.35-10.54c4.59-8.59,9.25-17.15,13.85-25.74c0.53-0.99,0.88-2.07,1.46-3.46
			c-1.82,0.58-3.42-0.57-4.65,1.46c-7.91,13.1-14.09,27.19-22.71,39.89c-0.84,1.24-0.79,2.17,0.65,3.16
			c5.21,3.59,10.29,7.37,15.47,11c1.63,1.15,3.24,2.53,5.5,2.28c3.81-0.43,7.63-0.75,11.42-1.3c7.35-1.05,14.68-2.29,22.03-3.35
			C102.53,436.91,108.75,436.18,115.17,435.35z M112.91,282.12c0-3.25,0.25-6.52-0.04-9.75c-0.91-10.01-4.41-19.07-10.73-26.95
			c-3.26-4.06-7.26-7.19-12.45-8.34c-5.8-1.29-11.18,0.12-16.08,3.29c-6.43,4.16-11.02,9.98-14.09,16.9
			c-6.83,15.37-8.4,31.35-4.81,47.8c1.72,7.9,4.8,15.14,10.44,21.11c8.55,9.07,21.76,9.52,30.87,1.09
			c3.97-3.68,7.18-7.91,9.57-12.74C110.65,304.32,113.09,293.5,112.91,282.12z M92.68,166.35c0.12-2.24,0.06-4.48,0.06-7.01
			c-3.07,0.53-5.96,1.01-8.82,1.56c-0.32,0.07-0.78,0.57-0.79,0.89c-0.06,2.16-0.03,4.33-0.03,6.57c2.9-0.31,5.65-0.56,8.39-0.95
			C91.95,167.35,92.66,166.74,92.68,166.35z M92.72,231.3c0-18.08,0-36,0-53.98c-2.09,0.24-4.05,0.46-6.28,0.71c0,0.91,0,1.66,0,2.4
			c0.01,7.73,0.02,15.46,0.03,23.19c0.01,8.54,0.01,17.09,0.06,25.63c0.01,0.57,0.37,1.59,0.67,1.64
			C89,231.15,90.84,231.18,92.72,231.3z"/>
		<path class="st2" d="M354.87,136.49c0.07,0.55-0.25,1.26-0.61,1.76c-5.41,7.53-10.71,15.16-16.38,22.51
			c-2.72,3.52-6.49,5.97-11.02,6.84c-0.9,0.18-1.84,0.05-2.76,0.13c-0.89,0.08-1.78,0.24-3.16,0.43c1.72,1.63,1.1,2.88,0.48,4.15
			c-3.57,7.28-7,14.63-10.71,21.83c-2.78,5.37-7.29,9.33-11.96,12.98c-3.84,2.99-8.51,4.08-13.31,3.74
			c-5.42-0.39-10.82-1.22-16.23-1.85c-1.12-0.13-1.57-0.69-1.51-1.85c0.3-5.77,2.02-11.15,4.51-16.3c1.13-2.34,2.38-4.61,3.63-7
			c3.15,1.54,6.2,3.03,9.23,4.51c-0.23,2.14-0.46,4.25-0.69,6.37c0.1,0.04,0.2,0.08,0.31,0.11c0.16-0.23,0.41-0.43,0.49-0.69
			c1.95-6.54,6.37-11.34,11.15-15.91c5.14-4.91,9.94-10.1,13.36-16.42c0.28-0.51,0.87-0.85,1.45-1.4c-0.7-2.3-1.68-4.73-2.14-7.26
			c-0.92-5.08-0.6-10.16,0.83-15.15c0.86-2.97,0.81-5.94-0.07-8.92c-0.39-1.33-0.68-2.7-0.92-4.07c-0.29-1.66,0.3-2.25,1.99-2.12
			c2.43,0.19,4.17,2.31,4.75,5.48c0.53,2.82,0.16,5.55-0.53,8.26c-0.28,1.13-0.01,1.87,0.8,2.76c4.13,4.55,6.42,9.85,6.12,16.11
			c-0.04,0.87-0.01,1.74-0.01,2.86c1.73-1.91,2.48-4,2.7-6.39c0.44-4.78-1.84-8.64-4.19-12.45c-0.58-0.95-0.67-1.54,0.08-2.4
			c1.32-1.52,2.64-3.05,3.95-4.57l1.7,1.47c0.69,0.81,1.31,1.69,2.07,2.41c3.42,3.2,6.89,6.36,10.33,9.54
			c0.29,0.26,0.6,0.51,0.9,0.76l-0.01,0.01c0.09,0.43,0.17,0.86,0.26,1.29c4.93-2.96,8.58-6.85,11.55-11.43
			c0.28-0.44,0.51-0.98,0.92-1.25c0.46-0.29,1.22-0.59,1.6-0.4C354.32,135.22,354.8,135.93,354.87,136.49z"/>
		<path class="st2" d="M353.27,126.75c-0.14,0.44-0.21,0.97-0.46,1.39c-3.14,5.45-5.62,11.34-10.3,15.8c-0.98,0.94-2,1.87-3,2.81
			c-1.02-1.73-2.02-3.47-3.05-5.23c4.89-3.97,8.74-8.78,12.24-13.92C350.37,125.15,350.47,125.18,353.27,126.75z"/>
		<path class="st2" d="M349.76,120.36c0.06,0.5-0.31,1.09-0.59,1.59c-3.61,6.53-7.63,12.75-13.29,17.74
			c-0.17,0.15-0.36,0.27-0.66,0.51c-1.03-1.12-2.03-2.21-2.71-2.96c4.37-5.91,8.56-11.58,12.76-17.24c0.38-0.52,0.73-1.21,1.25-1.42
			c0.73-0.3,1.75-0.54,2.38-0.24C349.4,118.58,349.67,119.63,349.76,120.36z"/>
		<path class="st2" d="M342.11,117.01c0.23,0.45,0.34,1.25,0.1,1.6c-3.98,5.48-6.77,11.81-11.78,16.56
			c-0.08,0.08-0.19,0.12-0.37,0.23c-1.12-0.57-2.29-1.16-3.46-1.76c-0.13,0.13-0.26,0.27-0.4,0.4l-1.7-1.47
			c4.41-5.12,8.8-10.25,13.24-15.34C339.2,115.54,341.34,115.48,342.11,117.01z"/>
		<path d="M339.51,146.75c0,0.01,0.01,0.01,0.01,0.02c-0.01-0.01-0.01-0.01-0.02-0.02H339.51z"/>
		<path class="st3" d="M309.72,336.57c0.61,1.19,0.46,1.84-0.96,2.3c-6.57,2.11-13.04,4.57-19.69,6.38
			c-3.18,0.86-6.67,0.64-10.02,0.78c-4.59,0.19-9.18,0.21-13.76,0.4c-1.24,0.05-1.82-0.25-2.23-1.53
			c-1.29-4.01-0.12-7.91,0.11-12.18c2.36,1.71,4.72,2.05,7.13,1.11c1.31-0.51,2.61-1.23,3.68-2.14c1.58-1.36,2.93-2.97,4.41-4.45
			c0.66-0.65,1.35-1.29,2.09-1.84c2.71-2.01,3.41-1.84,5.24,1.26c-3.39,1.78-5.9,4.19-4.94,8.63c0.74-1.1,1.5-2.19,2.2-3.31
			c1.14-1.82,2.96-2.67,4.88-2.5c1.35,0.12,2.62,1.26,3.97,1.98c-1.11,0.92-2.29,1.62-3.04,2.64c-0.71,0.95-0.96,2.25-1.41,3.4
			c0.18,0.11,0.35,0.22,0.53,0.33c0.44-0.39,0.93-0.75,1.32-1.18c1.55-1.72,3.48-2.65,5.77-2.91c2.64-0.29,5.28-0.8,7.93-0.87
			C305.8,332.79,308.28,333.8,309.72,336.57z"/>
		<path class="st4" d="M288.21,309.24c0.06,0.39,0.1,0.78,0.12,0.99c-10.33,1.44-19.66,4.99-28.15,11.55
			c-0.36-2.41-0.71-4.78-1.08-7.14c-1.34-8.78-2.7-17.55-4-26.33c-0.13-0.93-0.12-2.01,0.22-2.86c1.51-3.77,3.21-7.45,4.73-11.21
			c0.79-1.96,1.36-4.01,1.73-6.14c-3.25,4.6-6.21,9.32-7.83,14.84c-1.38-1.95-1.4-2.5-0.65-12.82c-1.79,2.35-2.53,4.85-2.95,7.49
			c-0.02,0.11-0.04,0.23-0.02,0.34c0.47,3.15-1.27,4.42-4,5.42c-5.06,1.86-10.26,2.31-15.55,2.5c-1.32,0.05-1.34-0.76-1.37-1.68
			c-0.12-4.21-0.75-8.31-2.54-12.17c-2.34-5.02-6.06-8.57-11.18-10.67c-0.21-0.09-0.42-0.18-0.62-0.3
			c-0.09-0.06-0.16-0.17-0.23-0.25c5.41-2.03,10.85-3.99,16.22-6.11c5.69-2.24,11.52-3.98,17.59-4.63
			c6.69-0.72,13.41-1.49,20.15-0.56c4.83,0.66,9.38,2.26,11.79,6.76c1.51,2.83,2.44,6.18,2.81,9.39
			c1.17,10.32,1.89,20.69,2.94,31.03C286.76,300.89,287.58,305.06,288.21,309.24z"/>
		<path d="M278.39,349.47c0.01,0.01,0.03,0.02,0.04,0.04c-0.03,0-0.05,0-0.08,0C278.37,349.5,278.38,349.48,278.39,349.47z"/>
		<path class="st5" d="M271.16,82.25c6.32,3.41,8.28,7.6,6.71,15.09c-0.43,2.1-1.39,4.05-4.12,4.21c-1.29,0.08-1.61,1.76-0.62,2.96
			c2.78,3.4,3.08,7.27,2.16,11.35c-0.49,2.19-2.03,3.6-3.77,4.82c-2.51,1.76-2.53,1.75-1.82,4.6c0.94,3.85,0.03,7.19-2.79,10.31
			c-0.19-0.66-0.33-1.17-0.47-1.69c-0.51-1.83-0.65-3.88-1.59-5.46c-1.12-1.91-1.47-3.79-1.39-5.71c0.07-1.32,0.34-2.65,0.7-4.01
			c1.7-6.4,1.74-12.87,0.08-19.27c-0.62-2.43-1.87-4.7-2.89-7.2c2.4-0.59,3.94-2.14,4.02-5.34c-4.59,3.61-8.51,1.33-12.46-1.03
			c-0.3-6-1.85-8.77-5.3-9.59c0.71,2.4,1.63,4.78,2.09,7.25c1.16,6.18-5.98,9.34-10.13,7.79c-1.13-0.42-2.27-0.92-3.26-1.61
			c-0.53-0.36-1-0.74-1.34-1.19c-0.51-0.68-0.73-1.51-0.4-2.7c0.5-1.77,0.21-3.67-1.39-5.49c-0.27,0.78-0.49,1.32-0.66,1.87
			c-1.02,3.43-2.37,6.42-6.24,7.72c-3.67,1.24-6.8,0.18-8.3-3.37c-0.32-0.79-0.66-1.57-1.43-2.36c-0.26,1.13-0.51,2.26-0.78,3.38
			c-0.85,3.67-3.6,6.12-6.64,5.57c-1.65-0.29-3.19-1.2-4.96-1.9c0.14,1.1,0.17,2.35,0.46,3.54c0.19,0.81,0.3,1.64,0.31,2.48
			c0.05,4.05-2.02,8.16-5.97,9.93c-1.17,0.52-2.19,1.35-3.32,2.06c4.22,5.07,0.54,12.03-4.76,14.05c-3.1,1.17-6.06,1.41-9.06-0.11
			c-0.72-0.36-1.46-0.66-2.51-0.67c1.06,1.28,2.13,2.56,3.28,3.95c-1.05,0.54-2.17,1.03-3.22,1.62c-2.32,1.28-4.31,3-4.52,6.54
			c0.67-0.38,1.19-0.67,1.86-1.04c0.77,4.08,1.66,8.07,4.44,11.2c2.88,3.23,6.52,4.51,10.72,3.66c1.16,2.69,2.32,5.31,3.41,7.96
			c0.67,1.64-0.52,2.62-1.63,3.24c-5.98,3.38-14.19,2.52-17.24-4.8c-0.18-0.42-0.42-0.81-0.64-1.23c-0.74,0.13-1.41,0.28-2.09,0.35
			c-7.57,0.81-10.28-4.78-9.33-10.41c0.28-1.65-0.1-2.56-1.61-3.3c-6.22-3.07-8.26-10.22-3.8-15.01c2.03-2.19,2.04-3.46,1.21-6.1
			c-1.35-4.3,0-8.38,3.4-11.53c1.05-0.98,2.3-1.76,3.51-2.55c1.47-0.95,1.94-2.12,1.47-3.85c-0.99-3.59-0.87-7.16,0.99-10.46
			c1.46-2.58,3.69-4.46,6.36-5.76c0.6-0.3,1.32-0.46,2-0.49c2.07-0.07,1.97,0,1.47-2.12c-0.77-3.29,0.49-6.16,2.6-8.48
			c3.2-3.53,7.2-5.8,12.1-6.18c1.23-0.1,2.45-0.8,3.45,0.82c0.42,0.67,1.52,0.15,1.87-0.78c0.31-0.81,0.49-1.67,0.82-2.47
			c1.73-4.2,5.21-6.5,9.24-7.91c5.04-1.77,10.21-2.61,15.49-0.72c0.54,0.2,1.32-0.07,1.92-0.31c6.9-2.68,13.76-3.17,20.47,0.53
			c2.37,1.3,4.37,3.03,5.27,5.76c0.51,1.54,1.2,2.19,3.2,1.47c3.75-1.36,9.99,1.12,12.6,4.6c2.65,3.53,4,7.32,1.93,11.67
			C269.9,81.27,270.21,81.74,271.16,82.25z"/>
		<path d="M264.24,99.45c1.66,6.4,1.62,12.87-0.08,19.27c-0.36,1.36-0.63,2.69-0.7,4.01l-2.76-0.17c0.16-2.31,0.35-4.63,0.69-6.92
			c1.02-6.76,0.56-13.33-2.43-19.54c-1.12-2.32-2.41-4.68-5.28-5.45c-0.64-0.17-1.18-0.71-1.83-1.11c-1.9,3.76-5.1,5.54-9.22,5.77
			c-4.25,0.23-7.41-1.77-9.82-5.08l2.16-1.7c0.34,0.45,0.81,0.83,1.34,1.19c0.99,0.69,2.13,1.19,3.26,1.61
			c4.15,1.55,11.29-1.61,10.13-7.79c-0.46-2.47-1.38-4.85-2.09-7.25c3.45,0.82,5,3.59,5.3,9.59c3.95,2.36,7.87,4.64,12.46,1.03
			c-0.08,3.2-1.62,4.75-4.02,5.34C262.37,94.75,263.62,97.02,264.24,99.45z"/>
		<path class="st6" d="M273.03,182.48c-6.08,8.74-9.42,18.38-9.01,29.42c-0.97-0.25-2-0.52-3.03-0.81
			c-3.94-1.14-7.86-2.37-11.84-3.37c-1.13-0.29-1.33-0.66-1.31-1.71c0.06-3.31,0.14-6.64-0.08-9.94c-0.12-1.75-0.83-3.47-1.27-5.21
			c-0.33,0.03-0.66,0.06-0.98,0.09c-0.6,6.22-1.25,12.44-1.79,18.67c-0.49,5.65-1.67,11.13-3.9,16.34
			c-1.99,4.66-5.67,7.85-9.79,10.6c-0.7,0.46-1.26,1.13-1.88,1.7c0.11,0.15,0.21,0.31,0.32,0.47c1.18-0.38,2.36-0.75,3.4-1.09
			c0.76,3.96,1.5,7.85,2.29,12.05c-7.7,2.88-15.6,5.82-23.48,8.76c-1.02-2.36-1.91-4.46-2.84-6.55c-0.74-1.66-2-2.75-3.67-3.53
			c-2.81-1.33-5.44-3.15-8.36-4.16c-2.8-0.96-5.85-1.31-8.83-1.65c-2.64-0.31-5.33-0.21-8-0.33c-2.19-0.09-4.06-0.99-5.56-2.56
			c-2.44-2.56-4.86-5.16-7.18-7.84c-0.4-0.47-0.48-1.46-0.33-2.13c0.77-3.44,1.72-6.83,2.46-10.27c0.34-1.59,0.93-2.76,2.45-3.54
			c5.32-2.71,9.45-6.67,12.05-12.11c1.25-2.61,2.01-5.33,2.15-8.3c-2.97,4.11-5.63,8.3-8.81,12.06c-3.25,3.84-7.9,5.96-12.2,8.64
			c-1.39-11.4-9.5-17.05-18.18-22.52c12.03-11.29,24.61-21.87,40.97-26.71c1.59,3.24,3.11,6.54,4.8,9.76
			c5.5,10.42,14.24,16.47,25.72,18.51c10.04,1.78,17.88-6.95,15.21-16.74c-0.04-0.16-0.05-0.33-0.08-0.53
			c1.71-0.36,3.45-0.52,5.03-1.11c2.05-0.76,3.97-1.88,5.96-2.8c0.48-0.23,1.11-0.49,1.56-0.37c4.74,1.31,9.49,2.61,14.18,4.09
			C263.81,179.21,268.36,180.88,273.03,182.48z"/>
		<path class="st2" d="M258.96,96.1c2.99,6.21,3.45,12.78,2.43,19.54c-0.34,2.29-0.53,4.61-0.69,6.92c-0.05,0.74-0.1,1.49-0.15,2.23
			c-0.06,0.78,0.14,1.64,0.46,2.37c3.93,8.99,2.22,17.46-2.86,25.29c-4.38,6.77-10.19,12.35-16.6,17.25
			c-5.43,4.15-11.28,4.82-17.73,2.48c-5.12-1.86-9.66-4.68-14.27-7.49c-6.67-4.07-11.14-9.87-14.15-16.93
			c-0.2-0.48-0.07-1.1-0.11-1.95c-0.92-0.8-1.98-1.1-3.48-0.66c-3.58,1.05-6.85-0.33-8.82-3.51c-1.61-2.59-2.74-5.39-2.77-8.49
			c-0.02-1.81,0.61-3.06,1.71-3.66c0.89-0.49,2.1-0.55,3.52-0.13c2.06,0.6,3.52,1.96,4.73,3.64c0.89,1.24,1.73,2.52,2.59,3.78
			c0.18-0.04,0.36-0.09,0.54-0.13c-0.25-1.54-0.43-3.09-0.77-4.6c-0.16-0.72-0.62-1.37-0.92-2.06c-0.58-1.35-0.45-2.26,1.11-3.02
			c3.79-1.84,6.89-4.51,7.56-8.92c0.36-2.37,0.07-4.83,0.07-7.37c5.98-2.29,8.08-7.03,7.49-13.5c3.74-0.11,7.22-0.94,9.42-4.13
			c5.74,1.78,10.71,0.25,15.54-2.82c2.41,3.31,5.57,5.31,9.82,5.08c4.12-0.23,7.32-2.01,9.22-5.77c0.65,0.4,1.19,0.94,1.83,1.11
			C256.55,91.42,257.84,93.78,258.96,96.1z"/>
		<path class="st3" d="M243.51,364.58c0.47,0.84,0.54,2,0.53,3.01c-0.03,1.52-0.66,2.43-2.47,2.64c-5.63,0.67-11.31,1.18-16.77-0.44
			c-4.85-1.44-9.5-3.57-14.16-5.58c-2.38-1.03-4.56-2.52-6.88-3.71c-0.89-0.47-1.16-1.03-1.18-2.05c-0.07-3.65,0.58-7.14,2.11-10.46
			c0.14-0.31,0.3-0.62,0.47-0.93c0.08-0.15,0.21-0.27,0.39-0.52c0.24,0.31,0.43,0.5,0.55,0.73c1.81,3.56,3.72,4.48,7.48,3.24
			c1.73-0.58,3.3-1.66,4.97-2.44c2.29-1.08,4.61-2.1,6.92-3.13c0.94-0.41,1.51-0.16,1.82,0.88c0.34,1.17,0.82,2.29,1.32,3.66
			c-4.14,1.2-6.99,3.77-8.43,8.32c1.31-1.11,2.2-2.15,3.33-2.75c1.91-1.02,3.9-2.12,5.98-2.47c1.29-0.22,2.81,0.89,4.24,1.74
			c-5.02,0.43-8.68,2.74-11.21,6.82c0.07,0.14,0.15,0.29,0.22,0.44c0.98-0.48,1.99-0.91,2.93-1.47c2.48-1.46,5-2.51,8.02-2.27
			C238.32,358.22,241.37,360.74,243.51,364.58z"/>
		<path d="M234.97,88.53l-2.16,1.7c-4.83,3.07-9.8,4.6-15.54,2.82c-2.2,3.19-5.68,4.02-9.42,4.13l-2.91,0.09
			c-0.01-0.84-0.12-1.67-0.31-2.48c-0.29-1.19-0.32-2.44-0.46-3.54c1.77,0.7,3.31,1.61,4.96,1.9c3.04,0.55,5.79-1.9,6.64-5.57
			c0.27-1.12,0.52-2.25,0.78-3.38c0.77,0.79,1.11,1.57,1.43,2.36c1.5,3.55,4.63,4.61,8.3,3.37c3.87-1.3,5.22-4.29,6.24-7.72
			c0.17-0.55,0.39-1.09,0.66-1.87c1.6,1.82,1.89,3.72,1.39,5.49C234.24,87.02,234.46,87.85,234.97,88.53z"/>
		<path class="st4" d="M230.92,328.72c0.08,0.54,0.01,1.35-0.34,1.67c-5.28,4.91-11.3,8.28-18.75,7.62
			c-3.72-0.32-7.38-1.41-11.04-2.27c-0.46-0.11-1.03-0.92-1.09-1.46c-0.35-3.17-0.45-6.37-0.86-9.53
			c-0.93-7.24-1.82-14.5-3.09-21.69c-0.65-3.64-0.42-6.97,1.05-10.32c0.72-1.63,1.26-3.37,1.68-5.11c0.23-0.93,0.04-1.96,0.04-2.95
			c-0.19-0.05-0.39-0.11-0.59-0.17c-1.28,2.54-2.55,5.07-3.83,7.61c-0.13,0-0.27,0.01-0.4,0.01c-0.54-3.8-1.09-7.61-1.63-11.41
			c-1.63,2.77-1.54,5.73-1.09,8.86c-5.92-1.02-11.65-2.3-17.11-4.56c-5.12-2.13-9.81-4.93-14.02-8.62
			c-6.08-5.35-7.32-12.05-5.99-19.59c0.26-1.47,0.63-2.93,1.07-4.93c3.23,2.61,6.58,4.65,9.04,7.47c3.96,4.53,8.38,6.63,14.3,4.96
			c0.11-0.03,0.26-0.17,0.31-0.13c2.14,1.56,4.59,0.38,6.87,0.73c2.78,0.43,5.01,1.75,7.1,3.44c1.21,0.97,2.21,1.06,3.6,0.22
			c1.01-0.62,2.42-1.02,3.56-0.87c2.66,0.34,4.14-0.99,5.32-3.02c0.65-1.11,2.97-2.13,4.21-1.82c9.83,2.47,15.36,8.95,16.31,19.22
			c0.75,8.08,1.25,16.2,2.17,24.26C228.58,313.83,229.87,321.26,230.92,328.72z"/>
		<path class="st2" d="M229.32,179c2.03,10.72-6.21,14.8-14.04,12.79c-9.24-2.37-16.21-7.83-20.74-16.25
			c-0.7-1.29-0.89-2.86-1.29-4.3c-0.58-2.11-1.13-4.23-1.63-6.11c2.16-1.49,4.38-3.01,6.71-4.61c7.63,6.97,16.53,12.55,26.63,15.89
			c-1.05,2.77-2.09,5.54-3.14,8.3c0.21,0.13,0.43,0.26,0.64,0.38c0.39-0.41,0.85-0.78,1.16-1.24c1.22-1.77,2.36-3.58,3.59-5.35
			c0.32-0.47,0.82-0.82,1.25-1.22C228.75,177.85,229.2,178.39,229.32,179z"/>
		<path d="M207.85,97.18c0.59,6.47-1.51,11.21-7.49,13.5c0,2.54,0.29,5-0.07,7.37c-0.67,4.41-3.77,7.08-7.56,8.92
			c-1.56,0.76-1.69,1.67-1.11,3.02c0.3,0.69,0.76,1.34,0.92,2.06c0.34,1.51,0.52,3.06,0.77,4.6c-0.18,0.04-0.36,0.09-0.54,0.13
			c-0.86-1.26-1.7-2.54-2.59-3.78c-1.21-1.68-2.67-3.04-4.73-3.64c-1.42-0.42-2.63-0.36-3.52,0.13l-2.55-1.39
			c1.05-0.59,2.17-1.08,3.22-1.62c-1.15-1.39-2.22-2.67-3.28-3.95c1.05,0.01,1.79,0.31,2.51,0.67c3,1.52,5.96,1.28,9.06,0.11
			c5.3-2.02,8.98-8.98,4.76-14.05c1.13-0.71,2.15-1.54,3.32-2.06c3.95-1.77,6.02-5.88,5.97-9.93L207.85,97.18z"/>
		<path class="st2" d="M206.84,259c0.12,0.62-0.23,1.34-0.73,2.12c-2.11-6.46-6.64-9.77-12.92-11.1c-0.32,0.56-0.65,1.13-1.03,1.77
			c1.95,1.04,3.92,2.1,5.89,3.16c2.96,1.58,4.14,4.28,4.55,7.4c0.2,1.56-0.51,2.27-2.77,2.91c-1.08-6.67-6.46-8.92-11.33-11.5
			c-0.63,0.77-1.18,1.45-1.9,2.33c1.14,0.66,2.33,1.42,3.59,2.06c2.52,1.29,4.94,2.68,5.9,5.56c0.18,0.52,0.12,1.55-0.18,1.71
			c-0.51,0.27-1.29,0.1-1.94,0c-0.3-0.06-0.57-0.39-0.83-0.62c-3.81-3.35-8.14-5.04-13.28-4.27c-1.03,0.16-2.12,0-3.12,0.23
			c-3.95,0.86-6.98-0.56-9.66-3.4c-1.54-1.62-3.28-3.12-5.13-4.38c-9.3-6.29-18.35-12.88-26.56-20.56c-2.15-2.01-4.2-4.2-5.92-6.58
			c-2.03-2.8-2.63-5.99-0.43-9.07c2.56-3.59,5.2-7.12,7.88-10.61c2.32-3.04,4.76-6,7.21-9.08c6.63,2.78,11.35,7.57,14.64,13.9
			c0.67,1.29,0.54,2.34-0.47,3.45c-1.28,1.41-2.38,2.98-3.5,4.41c-3.03-1.91-5.89-3.71-8.75-5.51c-0.1,0.14-0.21,0.28-0.32,0.42
			c1.21,1.15,2.51,2.22,3.6,3.48c3.51,4.02,6.87,8.18,10.4,12.17c4.26,4.83,8.51,9.68,13.06,14.22c1.24,1.23,3.52,1.74,5.4,1.97
			c4.03,0.48,8.11,0.49,12.16,0.86c1.52,0.15,3.03,0.65,4.47,1.2c2.33,0.88,4.56,2.01,6.89,2.9c2.06,0.79,3.37,2.14,3.92,4.29
			C205.98,256.24,206.55,257.59,206.84,259z"/>
	</g>
</g>
<path d="M189.39,238.76c14.46-1.71,16.69-2.2,25.38-5.95c0.09,0.14,0.18,0.28,0.28,0.42c-1.55,1.02-3,2.24-4.66,3.02
	c-4.18,1.96-8.78,1.97-13.27,2.42c-2.01,0.2-4.05,0.21-6.08,0.26C190.49,238.94,189.94,238.82,189.39,238.76z"/>
<path d="M237.91,135.03c3.15,3.57,6.45,3.76,9.82,0.72c1.73-1.55,1.8-3.9,0.09-5.47c-2.07-1.9-3.9-3.96-4.96-6.61
	c-0.8-2.01-0.62-4.01-0.09-6.05c0.89,5.29,3.62,9.31,7.87,12.43c1.62,1.19,1.15,5.21-0.7,7.12c-2.46,2.53-5.55,3.01-8.83,2.4
	C239.03,139.17,237.92,137.46,237.91,135.03z"/>
<path d="M214.86,110.89c1.1-6.54,4.31-10.7,11.82-10.42c0.48,1.06,1.15,2.54,1.91,4.22C223.14,104.83,218.81,107.39,214.86,110.89z"
	/>
<path d="M259.98,108.41c-2.65-1.14-5.3-2.28-8.27-3.56c0.18-0.81,0.39-2.03,0.74-3.21c0.09-0.3,0.63-0.62,0.98-0.65
	c2.32-0.2,4.15,0.98,5.07,3.1c0.58,1.35,1.26,2.66,1.9,3.99C260.26,108.19,260.12,108.3,259.98,108.41z"/>
<path d="M183.34,133.28c1.79-1.11,3.3-0.86,4.57,0.49c1.34,1.43,1.38,3.06-0.28,5.36C188.35,135.32,186.53,133.78,183.34,133.28z"/>
<path d="M64.29,288.82c0.73-3.61,1.23-7.29,2.26-10.82c1.13-3.86,3.79-6.87,7.19-8.86c4.94-2.89,10.85-1.2,14.4,3.75
	c3.17,4.43,3.94,9.47,3.47,14.74c-0.58,6.5-2.94,12.14-8.27,16.23c-5.18,3.97-10.41,3.42-14.51-1.61
	c-3.15-3.87-4.31-8.39-4.06-13.33C64.6,288.88,64.44,288.85,64.29,288.82z M83.95,284.61c0.21-3.54-0.65-7.1-3.2-10.19
	c-1.13-1.37-2.36-1.75-3.98-1.08c-2.46,1.02-4.17,2.86-4.94,5.31c-0.83,2.63-1.44,5.38-1.74,8.12c-0.37,3.36-0.14,6.78,1.64,9.79
	c2.56,4.34,6.19,4.34,8.86,0.42C83.06,293.33,84.01,289.3,83.95,284.61z"/>
<path d="M97.56,298.53c0.47-2,1.03-3.99,1.39-6.01c1-5.68,0.8-11.42-0.58-16.95c-1.36-5.45-3.16-10.87-7.03-15.24
	c-3.25-3.67-7.1-6.15-12.22-6c-3.43,0.11-6.18,1.86-8.79,3.82c-4.7,3.54-7.42,8.45-8.97,13.96c-1.25,4.43-2.04,8.99-3.21,13.53
	c0.34-3.57,0.41-7.2,1.09-10.71c1.39-7.12,4.31-13.56,9.46-18.85c3-3.08,6.82-4.92,10.92-5.25c5.98-0.49,10.84,2.27,14.24,7.18
	c5.69,8.21,8.23,17.37,7.25,27.34c-0.37,3.77-1.4,7.48-2.21,11.2c-0.16,0.74-0.71,1.4-1.08,2.1
	C97.74,298.61,97.65,298.57,97.56,298.53z"/>
<path d="M140.98,431.84c-0.09-5.07,1.17-9.73,3.94-14.01c4.54-7.01,12.87-7.33,17.75-0.59c0.91,1.26,1.78,2.61,2.34,4.05
	c3.23,8.32,3.55,16.61-0.85,24.65c-1.48,2.71-3.29,5.28-6.33,6.47c-4.44,1.73-8.92,0.08-12.08-4.36
	C142.31,443.21,141.01,437.7,140.98,431.84z M159.36,433.04c-0.79-1.96-1.36-3.97-2.36-5.73c-1.41-2.47-3.41-2.48-5.25-0.25
	c-2.07,2.51-2.08,9.04-0.01,11.52c1.66,1.99,4.18,2.01,5.52-0.22C158.18,436.82,158.61,434.98,159.36,433.04z"/>
<circle cx="223" cy="117.5" r="3"/>
<circle cx="253" cy="117.5" r="3"/>
<ellipse class="st7" cx="235.5" cy="153" rx="8.5" ry="5.5"/>
<path d="M222.95,145.35c1.36-1.15,2.4-2.03,3.67-3.1c-4.59,0.18-8.14,1.34-9.75,5.87c0.95-0.17,1.78-0.42,2.61-0.41
	c0.42,0.01,1.07,0.41,1.21,0.79c1.62,4.44,4.88,7.6,8.22,10.68c1.92,1.76,4.3,2.8,6.91,2.6c5.21-0.4,10.27-5.1,10.98-10.34
	c0.22-1.66,0.94-2.18,2.24-2.7c1.82-0.73,3.18-2.03,4.05-3.95C243.27,149.07,233.45,148.97,222.95,145.35z M237.95,157.86
	c-2.89,0.87-5.6,0.59-7.6-1.98c-1.38-1.77-2.62-3.65-3.93-5.48c5.56,0.77,10.78,2.18,16.18,0.93
	C242.44,154.01,240.28,157.16,237.95,157.86z"/>
</svg>
