<?xml version="1.0" encoding="UTF-8"?>
<svg id="Layer_1" data-name="Layer 1" xmlns="http://www.w3.org/2000/svg" viewBox="0 0 312.73 130.93">
  <defs>
    <style>
      .cls-1 {
        fill: #010101;
        stroke-width: 0px;
      }
    </style>
  </defs>
  <path class="cls-1" d="m36,12.15c-1.62-.09-3.3-.15-5.03-.2-1.73-.04-4-.06-6.8-.06-.39,17.43-.69,33.69-.89,48.78-.2,15.09-.3,28.96-.3,41.62-1.27.48-2.36.82-3.28,1.02-.92.2-1.75.3-2.5.3-.83,0-1.7-.13-2.6-.39-.9-.26-1.92-.7-3.05-1.31.39-11.87.69-23.76.89-35.67.2-11.91.3-23.94.3-36.07v-2.43c-.09-5.52-.13-10.79-.13-15.83-1.18.04-3.04.09-5.58.13-2.54.04-4.49.09-5.85.13-.39-.79-.69-1.62-.89-2.5-.2-.87-.3-1.75-.3-2.63,0-.13.02-.36.07-.69.04-.33.07-.56.07-.69.74-1.79,2.21-3.06,4.4-3.81,2.19-.74,5.65-1.12,10.38-1.12,3.37,0,6.97.27,10.81.82,3.83.55,7.94,1.39,12.32,2.53v1.58c0,1.45-.16,2.68-.49,3.71-.33,1.03-.84,1.96-1.54,2.79Z"/>
  <path class="cls-1" d="m36.46,101.63c.22-6,.38-11.22.49-15.67.11-4.45.16-8.46.16-12.06,0-7.93-.14-15.46-.43-22.6-.29-7.14-.73-14.01-1.35-20.63,1.05-1.14,2.22-2.05,3.51-2.73,1.29-.68,2.81-1.15,4.57-1.41,1.4.96,2.41,2.36,3.02,4.2.61,1.84,1.01,5.19,1.18,10.05,2.98-2.93,5.51-5.33,7.59-7.19,2.08-1.86,3.8-3.27,5.16-4.24,1.49.57,2.66,1.46,3.51,2.66.85,1.2,1.57,3.06,2.14,5.55-3.15,1.88-6.2,4.08-9.13,6.6-2.93,2.52-5.8,5.42-8.61,8.7-.13,4.16-.23,8.37-.3,12.61-.07,4.25-.1,8.56-.1,12.94,0,2.76.04,6.09.13,9.99.09,3.9.22,8.15.39,12.74l-2.04,2.56c-.39,0-.99-.02-1.77-.06-.79-.04-1.36-.07-1.71-.07-1.58,0-2.87-.15-3.88-.46-1.01-.31-1.86-.81-2.56-1.51Z"/>
  <path class="cls-1" d="m73.58,41.45h-.39c-1.4,0-2.63-.57-3.68-1.71s-1.58-2.37-1.58-3.68c0-.17.07-.39.2-.66s.37-.61.72-1.05c2.5-1.49,5.08-2.93,7.75-4.34,2.67-1.4,5.39-2.74,8.15-4.01,5.47,1.05,9.26,4.02,11.37,8.9,2.1,4.88,3.15,16.48,3.15,34.79,0,6.04-.15,16.1-.46,30.15-.04,1.45-.07,2.52-.07,3.22-.92.39-1.73.68-2.43.85-.7.17-1.38.26-2.04.26-.7,0-1.43-.11-2.2-.33-.77-.22-1.5-.53-2.2-.92l-.53-3.09c-1.84.88-3.69,1.57-5.55,2.07-1.86.5-3.47.76-4.83.76-3.59,0-6.26-1.78-8.01-5.35-1.75-3.57-2.63-9.1-2.63-16.59,0-8.71,1.39-14.98,4.17-18.79,2.78-3.81,7.33-5.72,13.63-5.72h2.1c-.04-5.43-.68-9.9-1.91-13.4-1.23-3.5-2.69-5.26-4.4-5.26-.39,0-.91.11-1.54.33-.63.22-1.28.5-1.94.85l-4.86,2.69Zm15.18,49.4c0-4.03-.03-8.1-.1-12.22-.07-4.12-.16-8.3-.3-12.55-.22-.04-.46-.08-.72-.1-.26-.02-.64-.03-1.12-.03-2.59,0-4.53,1.03-5.85,3.09s-1.97,5.1-1.97,9.13c0,5.43.48,8.99,1.45,10.68.96,1.69,2.72,2.53,5.26,2.53.44,0,1.2-.11,2.3-.33.44-.09.79-.15,1.05-.2Z"/>
  <path class="cls-1" d="m109.91,7.03c1.05-.26,2.09-.46,3.12-.59,1.03-.13,2-.2,2.92-.2.48,0,1.16.09,2.04.26.88.18,1.86.44,2.96.79.39,1.23.69,2.27.89,3.12s.3,1.57.3,2.14-.1,1.23-.3,1.97c-.2.75-.54,1.73-1.02,2.96-1.18.35-2.26.6-3.22.75-.96.15-1.77.23-2.43.23-.57,0-1.25-.08-2.04-.23-.79-.15-1.82-.38-3.09-.69-.35-1.27-.61-2.37-.79-3.28-.18-.92-.26-1.71-.26-2.36,0-.44.05-.96.16-1.58.11-.61.36-1.71.76-3.28Zm.92,95.79c-.31-7.8-.54-14.87-.69-21.22-.15-6.35-.23-12.37-.23-18.07,0-3.72.07-8.19.2-13.4.13-5.21.37-12.64.72-22.27.83-.26,1.65-.46,2.46-.59.81-.13,1.61-.2,2.4-.2.83,0,1.62.04,2.37.13.74.09,1.51.22,2.3.39.26,9.42.45,18.35.56,26.8.11,8.45.16,16.67.16,24.64,0,2.54-.02,6.34-.07,11.4-.04,5.06-.09,8.84-.13,11.33-.96.66-1.95,1.15-2.96,1.48-1.01.33-2.02.49-3.02.49-.53,0-1.08-.06-1.68-.2-.59-.13-1.39-.37-2.4-.72Z"/>
  <path class="cls-1" d="m130.21,32.59c1.18-1.36,2.53-2.41,4.04-3.15,1.51-.74,3.27-1.2,5.29-1.38l1.18,3.74c1.8-.74,3.64-1.54,5.52-2.4,1.88-.85,3.81-1.76,5.78-2.73.39-.09.8-.15,1.22-.2.42-.04.91-.07,1.48-.07,3.28,0,5.67,1.39,7.16,4.17,1.49,2.78,2.23,7.3,2.23,13.57v15.37c0,9.37.09,17.42.26,24.14.17,6.72.46,12.56.85,17.51-1.1.75-2.16,1.29-3.19,1.64-1.03.35-2.14.53-3.32.53-1.01,0-2.03-.14-3.06-.43-1.03-.28-2.11-.71-3.25-1.28.26-6.35.47-12.55.62-18.59.15-6.04.23-11.96.23-17.74v-2.83c0-11.12-.36-17.95-1.08-20.46s-2.11-3.78-4.17-3.78c-1.27,0-2.46.34-3.58,1.02-1.12.68-2,1.59-2.66,2.73.31,5.3.53,10.61.66,15.93.13,5.32.2,10.74.2,16.26,0,3.42-.02,8.11-.07,14.09-.04,5.98-.07,10.24-.07,12.78-.66.83-1.42,1.42-2.3,1.77-.88.35-2.04.53-3.48.53-1.14,0-2.21-.13-3.22-.39-1.01-.26-2.06-.7-3.15-1.31.48-7.8.83-15.44,1.05-22.93.22-7.49.33-14.87.33-22.14,0-5.34-.12-9.84-.36-13.5-.24-3.66-.62-7.15-1.15-10.48Z"/>
  <path class="cls-1" d="m186.64.46l1.45,1.18c-.66,9.99-1.14,19.64-1.45,28.97-.31,9.33-.46,18.33-.46,27,0,7.18.14,13.82.43,19.91.28,6.09.73,32.62,1.35,38.19.44-.04,1.09-.11,1.97-.2,7.31-.66,11.21-1.51,11.69-2.56l.46-.07c.61,0,1.26.13,1.94.39.68.26,1.5.72,2.46,1.38.66.7,1.14,1.46,1.45,2.27.31.81.46,1.72.46,2.73,0,.18-.02.42-.07.72-.04.31-.07.55-.07.72-2.1,1.27-4.65,2.28-7.65,3.02-3,.74-6.82,1.31-11.46,1.71-3.28-.7-5.87-1.52-7.75-2.46-1.88-.94-3.46-2.18-4.73-3.71-.53-8.63-.91-37.67-1.15-45.71-.24-8.04-.36-15.95-.36-23.75,0-8.32.17-16.48.53-24.47.35-7.99.9-15.89,1.64-23.68.7-.7,1.46-1.22,2.27-1.54.81-.33,1.81-.49,2.99-.49.66,0,1.31.03,1.97.1.66.07,1.36.19,2.1.36Z"/>
  <path class="cls-1" d="m202.3,41.45h-.39c-1.4,0-2.63-.57-3.68-1.71s-1.58-2.37-1.58-3.68c0-.17.07-.39.2-.66s.37-.61.72-1.05c2.5-1.49,5.08-2.93,7.75-4.34,2.67-1.4,5.39-2.74,8.15-4.01,5.47,1.05,9.26,4.02,11.37,8.9,2.1,4.88,3.15,16.48,3.15,34.79,0,6.04-.15,16.1-.46,30.15-.04,1.45-.06,2.52-.06,3.22-.92.39-1.73.68-2.43.85-.7.17-1.38.26-2.04.26-.7,0-1.43-.11-2.2-.33-.77-.22-1.5-.53-2.2-.92l-.53-3.09c-1.84.88-3.69,1.57-5.55,2.07-1.86.5-3.47.76-4.83.76-3.59,0-6.26-1.78-8.01-5.35-1.75-3.57-2.63-9.1-2.63-16.59,0-8.71,1.39-14.98,4.17-18.79,2.78-3.81,7.33-5.72,13.63-5.72h2.1c-.04-5.43-.68-9.9-1.91-13.4-1.23-3.5-2.69-5.26-4.4-5.26-.39,0-.91.11-1.54.33-.64.22-1.28.5-1.94.85l-4.86,2.69Zm15.18,49.4c0-4.03-.03-8.1-.1-12.22-.07-4.12-.16-8.3-.3-12.55-.22-.04-.46-.08-.72-.1-.26-.02-.64-.03-1.12-.03-2.58,0-4.53,1.03-5.85,3.09-1.31,2.06-1.97,5.1-1.97,9.13,0,5.43.48,8.99,1.45,10.68.96,1.69,2.71,2.53,5.26,2.53.44,0,1.2-.11,2.3-.33.44-.09.79-.15,1.05-.2Z"/>
  <path class="cls-1" d="m248.88,102.95c-1.8,0-3.33-.27-4.6-.82-1.27-.55-2.39-1.39-3.35-2.53-1.49-3.06-2.58-6.7-3.28-10.91-.7-4.2-1.05-9.5-1.05-15.9,0-8.5.62-16.26,1.87-23.29,1.25-7.03,3.01-12.76,5.29-17.18.7-1.53,2-2.79,3.91-3.78s3.91-1.48,6.01-1.48c.88,0,1.83.09,2.86.26,1.03.18,2.09.44,3.19.79l-.26-23.39c1.18-1.23,2.4-2.11,3.65-2.66,1.25-.55,2.68-.82,4.3-.82.26,0,.63.03,1.12.1s1.45.25,2.89.56c-.39,12.26-.69,25.52-.89,39.78-.2,14.26-.3,29.53-.3,45.82v14.13l-4.01,2.23h-.99c-1.1,0-2.12-.11-3.09-.33-.96-.22-1.91-.57-2.83-1.05-.13-.53-.25-1.13-.36-1.81s-.21-1.65-.29-2.92c-1.27,1.18-2.7,2.2-4.3,3.06s-3.43,1.57-5.49,2.14Zm-.39-12.88c1.4.39,2.64.69,3.71.89,1.07.2,1.98.3,2.73.3.79,0,1.99-.31,3.61-.92l.13-.07c.31-5.56.55-12.6.72-21.12.17-8.52.28-19.59.33-33.21-.96-.22-1.8-.38-2.5-.49-.7-.11-1.29-.16-1.77-.16-2.76,0-4.77,2.91-6.04,8.74-1.27,5.83-1.9,15.11-1.9,27.86,0,3.28.08,6.42.23,9.39.15,2.98.4,5.91.75,8.8Z"/>
  <path class="cls-1" d="m287.57,99.46c-1.4-11.96-3.08-23.61-5.03-34.95-1.95-11.34-4.17-22.38-6.67-33.11,1.09-.88,2.18-1.5,3.25-1.87,1.07-.37,2.55-.56,4.43-.56.83,0,1.57.01,2.2.03.63.02,1.28.06,1.94.1,1.23,6.92,2.39,14.39,3.48,22.4,1.09,8.02,2.15,16.64,3.15,25.88,1.58-7.75,2.98-15.82,4.2-24.21,1.23-8.39,2.28-17.14,3.15-26.25,1.23-.26,2.09-.44,2.6-.53.5-.09.91-.13,1.22-.13.96,0,2.02.16,3.19.49,1.16.33,2.51.82,4.04,1.48-2.63,19.01-5.94,37.1-9.92,54.27-3.99,17.17-8.61,33.31-13.86,48.42h-1.38c-1.88,0-3.62-.38-5.22-1.15s-3.21-2-4.83-3.71c1.84-3.2,3.55-6.88,5.12-11.04,1.58-4.16,3.22-9.35,4.93-15.57Z"/>
</svg>