<?xml version="1.0" encoding="UTF-8" standalone="no"?>
<!DOCTYPE svg PUBLIC "-//W3C//DTD SVG 1.1//EN" "http://www.w3.org/Graphics/SVG/1.1/DTD/svg11.dtd">
<svg width="100%" height="100%" viewBox="0 0 187 75" version="1.1" xmlns="http://www.w3.org/2000/svg" xmlns:xlink="http://www.w3.org/1999/xlink" xml:space="preserve" xmlns:serif="http://www.serif.com/" style="fill-rule:evenodd;clip-rule:evenodd;stroke-linejoin:round;stroke-miterlimit:2;">
    <g id="Artboard1" transform="matrix(1,0,0,1,-7,-63)">
        <rect x="7" y="63" width="187" height="75" style="fill:none;"/>
        <g transform="matrix(1.989871,0,0,1.989871,5.095028,-14.969061)">
            <path d="M11.3,70.3L8.8,70.3L8.8,71C8.8,71.4 8.5,71.8 8,71.8L3.6,71.8C3.2,71.8 2.8,71.5 2.8,71L2.8,57.4C2.8,57 3.1,56.6 3.6,56.6L8.8,56.6L8.8,58.1L14.3,58.1L14.3,61.9L8.8,61.9L8.8,63.3L50.1,63.3L55.9,59.2L64.7,59.2C65.1,59.2 65.5,58.9 65.4,58.4L65.4,53.2C65.4,52.8 65.1,52.4 64.7,52.4L54.8,52.4C54.7,52.4 54.5,52.4 54.4,52.5L48.1,56.6L45.6,56.6L45.6,50.3L40.8,50.3L40.8,56.6L8.8,56.6L8.8,43.4L19,43.4L19,42L25.4,42L25.4,43.4L28.8,43.4L28.8,42L35.2,42L35.2,43.4L38,43.4L38,45.5L49.2,45.5L49.2,42.4L50.4,42.4L50.4,40.9L56.8,40.9L56.8,42.4L66.6,42.4L66.6,44L68.4,44L68.4,42.7L78.6,42.7L78.6,44L79.4,44L79.4,47.5L78.3,47.5L78.3,50L86.5,50L86.5,53.9L84.6,52.8L84.6,51.3L79.4,51.3L79.4,53.4L83,53.4L83,62.9L85.9,62.9L85.9,59.9C85.9,59.5 86.2,59.1 86.7,59.1C87.1,59.1 87.5,59.4 87.5,59.9L87.5,67.3L90.5,67.3L90.5,58.4L85,58.4C84.6,58.4 84.2,58.1 84.2,57.6C84.2,57.2 84.5,56.8 85,56.8L91.2,56.8C91.6,56.8 92,57.1 92,57.6L92,66.3L93.3,66.3L93.3,69.7L92,69.7L92,71.2C92,71.6 91.7,72 91.2,72L86.7,72C86.3,72 85.9,71.7 85.9,71.2L85.9,70.1L84,70.1C83.9,71.9 82.5,73.3 80.6,73.3C78.8,73.3 77.3,71.9 77.2,70.1L74.2,70.1C74.1,71.9 72.7,73.3 70.8,73.3C69,73.3 67.5,71.9 67.4,70.1L64.4,70.1C64.3,71.9 62.9,73.3 61,73.3C59.2,73.3 57.7,71.9 57.6,70.1L55.9,70.1L55.9,73L38.9,73L38.9,70.3L37.3,70.3C37.2,72.1 35.8,73.5 33.9,73.5C32.1,73.5 30.6,72.1 30.5,70.3L27.5,70.3C27.4,72.1 26,73.5 24.1,73.5C22.3,73.5 20.8,72.1 20.7,70.3L17.7,70.3C17.6,72.1 16.2,73.5 14.3,73.5C12.9,73.5 11.4,72.1 11.3,70.3ZM15.8,70.1C15.8,69.5 15.3,69 14.7,69C14.1,69 13.6,69.5 13.6,70.1C13.6,70.7 14.1,71.2 14.7,71.2C15.3,71.2 15.8,70.8 15.8,70.1ZM25.5,70.1C25.5,69.5 25,69 24.4,69C23.8,69 23.3,69.5 23.3,70.1C23.3,70.7 23.8,71.2 24.4,71.2C25,71.2 25.5,70.8 25.5,70.1ZM35.3,70.1C35.3,69.5 34.8,69 34.2,69C33.6,69 33.1,69.5 33.1,70.1C33.1,70.7 33.6,71.2 34.2,71.2C34.8,71.3 35.3,70.8 35.3,70.1ZM62.3,70.1C62.3,69.5 61.8,69 61.2,69C60.6,69 60.1,69.5 60.1,70.1C60.1,70.7 60.6,71.2 61.2,71.2C61.8,71.3 62.3,70.8 62.3,70.1ZM72,70.1C72,69.5 71.5,69 70.9,69C70.3,69 69.8,69.5 69.8,70.1C69.8,70.7 70.3,71.2 70.9,71.2C71.5,71.3 72,70.8 72,70.1ZM81.8,70.1C81.8,69.5 81.3,69 80.7,69C80.1,69 79.6,69.5 79.6,70.1C79.6,70.7 80.1,71.2 80.7,71.2C81.3,71.3 81.8,70.8 81.8,70.1ZM90.4,70.6L90.4,68.8L87.4,68.8L87.4,70.6L90.4,70.6ZM7.3,70.3L7.3,67.7L4.3,67.7L4.3,70.3L7.3,70.3ZM36.5,67.9L39.2,67.9L39.2,65L36.5,65L36.5,67.9ZM12.2,67.9L12.2,65L8.8,65L8.8,67.9L12.2,67.9ZM58.7,67.9L58.7,65L56.2,65L56.2,67.9L58.7,67.9ZM85.9,68L85.9,65L83,65L83,67.8C83.1,67.9 83.1,67.9 83.2,68L85.9,68ZM77.8,67.3L77.8,63.3L74.2,63.3L74.2,67.3L77.8,67.3ZM31.3,67.3L31.3,64.7L27.7,64.7L27.7,67.3L31.3,67.3ZM7.3,66.4L7.3,64.7L4.3,64.7L4.3,66.4L7.3,66.4ZM7.3,63.4L7.3,58.2L4.3,58.2L4.3,63.4L7.3,63.4ZM15.8,61.9L15.8,58.1L22.8,58.1L22.8,61.9L15.8,61.9ZM24.3,61.9L24.3,58.1L33.3,58.1L33.3,61.9L24.3,61.9ZM34.8,61.9L34.8,58.1L40.9,58.1L40.9,61.9L34.8,61.9ZM45.7,61.9L45.7,58.1L47.7,58.1L47.7,61.9L45.7,61.9ZM49.2,61.9L49.2,57.8L55.1,53.9L56.5,53.9L56.5,57.7L55.7,57.7C55.5,57.7 55.4,57.7 55.3,57.8L49.6,61.9L49.2,61.9ZM58,57.7L58,53.9L64,53.9L64,57.7L58,57.7ZM85.5,56.3L85.5,55.1L86.4,55.1L86.4,56.3L85.5,56.3ZM36.8,52.1L36.8,47.2L18.1,47.2L18.1,52.1L36.8,52.1ZM71.4,50.9L71.4,47.4L67.6,47.4L67.6,50.9L71.4,50.9ZM76.6,50.9L76.6,47.4L72.8,47.4L72.8,50.9L76.6,50.9Z" style="fill-rule:nonzero;"/>
        </g>
    </g>
</svg>
