<?xml version="1.0" encoding="UTF-8" standalone="no"?><!DOCTYPE svg PUBLIC "-//W3C//DTD SVG 1.1//EN" "http://www.w3.org/Graphics/SVG/1.1/DTD/svg11.dtd"><svg width="100%" height="100%" viewBox="0 0 800 800" version="1.1" xmlns="http://www.w3.org/2000/svg" xmlns:xlink="http://www.w3.org/1999/xlink" xml:space="preserve" xmlns:serif="http://www.serif.com/" style="fill-rule:evenodd;clip-rule:evenodd;stroke-linejoin:round;stroke-miterlimit:2;"><path d="M722.865,335.068c0,-181.412 -149.619,-327.879 -332.191,-322.733c-166.465,4.691 -304.102,138.589 -313.057,304.879c-6.385,118.57 51.261,224.088 141.463,285.208c72.286,48.98 134.472,111.401 180.904,185.349l0.017,0.026l0,-0c46.716,-74.4 109.714,-136.622 182.204,-186.249c84.927,-58.142 140.661,-155.779 140.661,-266.479l0,0Z" style="fill-rule:nonzero;"/><path d="M493.748,186.312l-187.496,0c-31.073,0 -56.249,25.884 -56.249,57.832l0,202.411c0,42.591 33.573,77.109 74.999,77.109l149.997,0c41.425,0 74.999,-34.518 74.999,-77.109l0,-202.411c0,-31.948 -25.175,-57.832 -56.249,-57.832Zm-131.247,28.916l74.999,0c5.176,0 9.375,4.317 9.375,9.639c0,5.321 -4.199,9.639 -9.375,9.639l-74.999,0c-5.176,0 -9.375,-4.317 -9.375,-9.639c0,-5.321 4.199,-9.639 9.375,-9.639Zm-56.249,269.882c-10.351,0 -18.75,-8.635 -18.75,-19.277c0,-10.643 8.398,-19.277 18.75,-19.277c10.351,0 18.75,8.635 18.75,19.277c0,10.643 -8.398,19.277 -18.75,19.277Zm84.373,-125.302c0,5.322 -4.199,9.639 -9.375,9.639l-84.373,0c-10.351,0 -18.75,-8.635 -18.75,-19.277l0,-77.109c0,-10.643 8.398,-19.277 18.75,-19.277l84.373,0c5.176,0 9.375,4.317 9.375,9.639l0,96.386Zm103.123,125.302c-10.351,0 -18.75,-8.635 -18.75,-19.277c0,-10.643 8.398,-19.277 18.75,-19.277c10.351,0 18.75,8.635 18.75,19.277c0,10.643 -8.398,19.277 -18.75,19.277Zm28.124,-134.941c0,10.643 -8.398,19.277 -18.75,19.277l-84.373,0c-5.176,0 -9.375,-4.317 -9.375,-9.639l0,-96.386c0,-5.322 4.199,-9.639 9.375,-9.639l84.373,0c10.351,0 18.75,8.635 18.75,19.277l0,77.109Z" style="fill:#fff;fill-rule:nonzero;"/></svg>